G75*
%MOIN*%
%OFA0B0*%
%FSLAX24Y24*%
%IPPOS*%
%LPD*%
%AMOC8*
5,1,8,0,0,1.08239X$1,22.5*
%
%ADD10R,0.0827X0.0827*%
%ADD11OC8,0.0594*%
%ADD12OC8,0.0520*%
%ADD13C,0.0520*%
%ADD14C,0.0600*%
%ADD15C,0.0768*%
%ADD16OC8,0.2150*%
%ADD17C,0.0320*%
%ADD18R,0.0396X0.0396*%
%ADD19C,0.0240*%
D10*
X008850Y019517D03*
X008850Y021683D03*
X004350Y020767D03*
X004350Y022933D03*
X013350Y022933D03*
X013350Y020767D03*
D11*
X015350Y008350D03*
D12*
X002350Y017350D03*
D13*
X004350Y017350D03*
D14*
X013050Y015100D02*
X013650Y015100D01*
X013650Y014100D02*
X013050Y014100D01*
X013050Y013100D02*
X013650Y013100D01*
D15*
X009550Y012500D02*
X008782Y012500D01*
X008818Y009600D02*
X008050Y009600D01*
X005050Y012500D02*
X004282Y012500D01*
X004318Y009600D02*
X003550Y009600D01*
X004950Y006300D02*
X004950Y005532D01*
X007850Y005568D02*
X007850Y004800D01*
D16*
X012100Y005517D03*
X012100Y002683D03*
D17*
X000580Y002143D02*
X000580Y023057D01*
X000672Y022966D01*
X000923Y022820D01*
X001205Y022745D01*
X001429Y022745D01*
X001429Y022611D01*
X001502Y022338D01*
X001643Y022094D01*
X001842Y021895D01*
X002086Y021754D01*
X002359Y021681D01*
X002641Y021681D01*
X002913Y021754D01*
X003157Y021895D01*
X003356Y022094D01*
X003497Y022338D01*
X003570Y022611D01*
X003570Y022893D01*
X003497Y023165D01*
X003356Y023409D01*
X003157Y023608D01*
X002913Y023749D01*
X002641Y023822D01*
X002455Y023822D01*
X002455Y023995D01*
X002380Y024277D01*
X002234Y024528D01*
X002147Y024616D01*
X017803Y024616D01*
X017716Y024528D01*
X017570Y024277D01*
X017495Y023995D01*
X017495Y023705D01*
X017570Y023423D01*
X017716Y023172D01*
X017922Y022966D01*
X018173Y022820D01*
X018455Y022745D01*
X018745Y022745D01*
X019027Y022820D01*
X019278Y022966D01*
X019484Y023172D01*
X019490Y023182D01*
X019490Y002018D01*
X019484Y002028D01*
X019278Y002234D01*
X019027Y002380D01*
X018745Y002455D01*
X018455Y002455D01*
X018173Y002380D01*
X017922Y002234D01*
X017716Y002028D01*
X017570Y001777D01*
X017495Y001495D01*
X017495Y001205D01*
X017570Y000923D01*
X017716Y000672D01*
X017807Y000580D01*
X002143Y000580D01*
X002234Y000672D01*
X002380Y000923D01*
X002455Y001205D01*
X002455Y001495D01*
X002380Y001777D01*
X002234Y002028D01*
X002028Y002234D01*
X001777Y002380D01*
X001495Y002455D01*
X001205Y002455D01*
X000923Y002380D01*
X000672Y002234D01*
X000580Y002143D01*
X000580Y002330D02*
X000837Y002330D01*
X000580Y002648D02*
X011940Y002648D01*
X011940Y002523D02*
X010765Y002523D01*
X010765Y002130D01*
X011547Y001348D01*
X011940Y001348D01*
X011940Y002523D01*
X011940Y002843D01*
X010765Y002843D01*
X010765Y003236D01*
X011492Y003962D01*
X011456Y003962D01*
X010545Y004873D01*
X010545Y006161D01*
X011456Y007072D01*
X012744Y007072D01*
X013655Y006161D01*
X013655Y004873D01*
X012744Y003962D01*
X012708Y003962D01*
X013435Y003236D01*
X013435Y002843D01*
X012260Y002843D01*
X012260Y002523D01*
X013435Y002523D01*
X013435Y002130D01*
X012653Y001348D01*
X012260Y001348D01*
X012260Y002523D01*
X011940Y002523D01*
X011940Y002330D02*
X012260Y002330D01*
X012260Y002648D02*
X019490Y002648D01*
X019490Y002330D02*
X019113Y002330D01*
X019490Y002967D02*
X013435Y002967D01*
X013386Y003285D02*
X019490Y003285D01*
X019490Y003604D02*
X013067Y003604D01*
X012749Y003922D02*
X019490Y003922D01*
X019490Y004241D02*
X013022Y004241D01*
X013341Y004559D02*
X019490Y004559D01*
X019490Y004878D02*
X013655Y004878D01*
X013655Y005196D02*
X019490Y005196D01*
X019490Y005515D02*
X013655Y005515D01*
X013655Y005833D02*
X019490Y005833D01*
X019490Y006152D02*
X013655Y006152D01*
X013346Y006470D02*
X019490Y006470D01*
X019490Y006789D02*
X013028Y006789D01*
X014573Y008028D02*
X014573Y008672D01*
X015028Y009127D01*
X015672Y009127D01*
X016127Y008672D01*
X016127Y008028D01*
X015672Y007573D01*
X015028Y007573D01*
X014573Y008028D01*
X014573Y008063D02*
X000580Y008063D01*
X000580Y008381D02*
X014573Y008381D01*
X014601Y008700D02*
X000580Y008700D01*
X000580Y009018D02*
X002910Y009018D01*
X002818Y009111D02*
X003061Y008868D01*
X003378Y008736D01*
X004490Y008736D01*
X004807Y008868D01*
X005050Y009111D01*
X005182Y009428D01*
X005182Y009772D01*
X005050Y010089D01*
X005050Y010090D01*
X005102Y010120D01*
X005330Y010348D01*
X005492Y010627D01*
X005575Y010939D01*
X005575Y011261D01*
X005492Y011573D01*
X005410Y011714D01*
X005539Y011768D01*
X005782Y012011D01*
X005914Y012328D01*
X005914Y012672D01*
X005782Y012989D01*
X005539Y013232D01*
X005222Y013364D01*
X004110Y013364D01*
X003793Y013232D01*
X003550Y012989D01*
X003418Y012672D01*
X003418Y012328D01*
X003544Y012026D01*
X003370Y011852D01*
X003208Y011573D01*
X003125Y011261D01*
X003125Y010939D01*
X003208Y010627D01*
X003317Y010439D01*
X003061Y010332D01*
X002818Y010089D01*
X002686Y009772D01*
X002686Y009428D01*
X002818Y009111D01*
X002724Y009337D02*
X000580Y009337D01*
X000580Y009655D02*
X002686Y009655D01*
X002770Y009974D02*
X000580Y009974D01*
X000580Y010292D02*
X003020Y010292D01*
X003218Y010611D02*
X000580Y010611D01*
X000580Y010929D02*
X003128Y010929D01*
X003125Y011248D02*
X000580Y011248D01*
X000580Y011566D02*
X003207Y011566D01*
X003402Y011885D02*
X000580Y011885D01*
X000580Y012203D02*
X003470Y012203D01*
X003418Y012522D02*
X000580Y012522D01*
X000580Y012840D02*
X003488Y012840D01*
X003719Y013159D02*
X000580Y013159D01*
X000580Y013477D02*
X012362Y013477D01*
X012389Y013542D02*
X012270Y013255D01*
X012270Y012945D01*
X012389Y012658D01*
X012608Y012439D01*
X012895Y012320D01*
X013805Y012320D01*
X014092Y012439D01*
X014311Y012658D01*
X014430Y012945D01*
X014430Y013255D01*
X014311Y013542D01*
X014094Y013759D01*
X014129Y013806D01*
X014169Y013885D01*
X014196Y013969D01*
X014210Y014056D01*
X014210Y014100D01*
X014210Y014144D01*
X014196Y014231D01*
X014169Y014315D01*
X014129Y014394D01*
X014094Y014441D01*
X014311Y014658D01*
X014430Y014945D01*
X014430Y015255D01*
X014311Y015542D01*
X014092Y015761D01*
X013805Y015880D01*
X012895Y015880D01*
X012608Y015761D01*
X012389Y015542D01*
X012270Y015255D01*
X012270Y014945D01*
X012389Y014658D01*
X012606Y014441D01*
X012571Y014394D01*
X012531Y014315D01*
X012504Y014231D01*
X012490Y014144D01*
X012490Y014100D01*
X013350Y014100D01*
X014210Y014100D01*
X013350Y014100D01*
X013350Y014100D01*
X013350Y014100D01*
X012490Y014100D01*
X012490Y014056D01*
X012504Y013969D01*
X012531Y013885D01*
X012571Y013806D01*
X012606Y013759D01*
X012389Y013542D01*
X012579Y013796D02*
X000580Y013796D01*
X000580Y014114D02*
X012490Y014114D01*
X012599Y014433D02*
X000580Y014433D01*
X000580Y014751D02*
X012350Y014751D01*
X012270Y015070D02*
X000580Y015070D01*
X000580Y015388D02*
X012325Y015388D01*
X012553Y015707D02*
X000580Y015707D01*
X000580Y016025D02*
X019490Y016025D01*
X019490Y015707D02*
X014147Y015707D01*
X014375Y015388D02*
X019490Y015388D01*
X019490Y015070D02*
X014430Y015070D01*
X014350Y014751D02*
X019490Y014751D01*
X019490Y014433D02*
X014101Y014433D01*
X014210Y014114D02*
X019490Y014114D01*
X019490Y013796D02*
X014121Y013796D01*
X014338Y013477D02*
X019490Y013477D01*
X019490Y013159D02*
X014430Y013159D01*
X014387Y012840D02*
X019490Y012840D01*
X019490Y012522D02*
X014175Y012522D01*
X012525Y012522D02*
X010414Y012522D01*
X010414Y012672D02*
X010414Y012328D01*
X010282Y012011D01*
X010039Y011768D01*
X009910Y011714D01*
X009992Y011573D01*
X010075Y011261D01*
X010075Y010939D01*
X009992Y010627D01*
X009830Y010348D01*
X009602Y010120D01*
X009550Y010090D01*
X009550Y010089D01*
X009682Y009772D01*
X009682Y009428D01*
X009550Y009111D01*
X009307Y008868D01*
X008990Y008736D01*
X007878Y008736D01*
X007561Y008868D01*
X007318Y009111D01*
X007186Y009428D01*
X007186Y009772D01*
X007318Y010089D01*
X007561Y010332D01*
X007817Y010439D01*
X007708Y010627D01*
X007625Y010939D01*
X007625Y011261D01*
X007708Y011573D01*
X007870Y011852D01*
X008044Y012026D01*
X007918Y012328D01*
X007918Y012672D01*
X008050Y012989D01*
X008293Y013232D01*
X008610Y013364D01*
X009722Y013364D01*
X010039Y013232D01*
X010282Y012989D01*
X010414Y012672D01*
X010344Y012840D02*
X012313Y012840D01*
X012270Y013159D02*
X010113Y013159D01*
X010362Y012203D02*
X019490Y012203D01*
X019490Y011885D02*
X010156Y011885D01*
X009993Y011566D02*
X019490Y011566D01*
X019490Y011248D02*
X010075Y011248D01*
X010072Y010929D02*
X019490Y010929D01*
X019490Y010611D02*
X009982Y010611D01*
X009774Y010292D02*
X019490Y010292D01*
X019490Y009974D02*
X009598Y009974D01*
X009682Y009655D02*
X019490Y009655D01*
X019490Y009337D02*
X009644Y009337D01*
X009457Y009018D02*
X014919Y009018D01*
X015781Y009018D02*
X019490Y009018D01*
X019490Y008700D02*
X016099Y008700D01*
X016127Y008381D02*
X019490Y008381D01*
X019490Y008063D02*
X016127Y008063D01*
X015843Y007744D02*
X019490Y007744D01*
X019490Y007426D02*
X000580Y007426D01*
X000580Y007744D02*
X014857Y007744D01*
X011451Y003922D02*
X000580Y003922D01*
X000580Y003604D02*
X011133Y003604D01*
X010814Y003285D02*
X000580Y003285D01*
X000580Y002967D02*
X010765Y002967D01*
X010765Y002330D02*
X001863Y002330D01*
X002244Y002011D02*
X010884Y002011D01*
X011202Y001693D02*
X002402Y001693D01*
X002455Y001374D02*
X011521Y001374D01*
X011940Y001374D02*
X012260Y001374D01*
X012260Y001693D02*
X011940Y001693D01*
X011940Y002011D02*
X012260Y002011D01*
X012679Y001374D02*
X017495Y001374D01*
X017535Y001056D02*
X002415Y001056D01*
X002272Y000737D02*
X017678Y000737D01*
X017548Y001693D02*
X012998Y001693D01*
X013316Y002011D02*
X017706Y002011D01*
X018087Y002330D02*
X013435Y002330D01*
X011178Y004241D02*
X008512Y004241D01*
X008582Y004311D02*
X008714Y004628D01*
X008714Y005740D01*
X008582Y006057D01*
X008339Y006300D01*
X008022Y006432D01*
X007678Y006432D01*
X007361Y006300D01*
X007360Y006300D01*
X007330Y006352D01*
X007102Y006580D01*
X006823Y006742D01*
X006511Y006825D01*
X006189Y006825D01*
X005877Y006742D01*
X005736Y006660D01*
X005682Y006789D01*
X005439Y007032D01*
X005122Y007164D01*
X004778Y007164D01*
X004461Y007032D01*
X004218Y006789D01*
X004086Y006472D01*
X004086Y005360D01*
X004218Y005043D01*
X004461Y004800D01*
X004778Y004668D01*
X005122Y004668D01*
X005424Y004794D01*
X005598Y004620D01*
X005877Y004458D01*
X006189Y004375D01*
X006511Y004375D01*
X006823Y004458D01*
X007011Y004567D01*
X007118Y004311D01*
X007361Y004068D01*
X007678Y003936D01*
X008022Y003936D01*
X008339Y004068D01*
X008582Y004311D01*
X008685Y004559D02*
X010859Y004559D01*
X010545Y004878D02*
X008714Y004878D01*
X008714Y005196D02*
X010545Y005196D01*
X010545Y005515D02*
X008714Y005515D01*
X008675Y005833D02*
X010545Y005833D01*
X010545Y006152D02*
X008488Y006152D01*
X007212Y006470D02*
X010854Y006470D01*
X011172Y006789D02*
X006647Y006789D01*
X006053Y006789D02*
X005683Y006789D01*
X005259Y007107D02*
X019490Y007107D01*
X019490Y016344D02*
X000580Y016344D01*
X000580Y016662D02*
X004077Y016662D01*
X004203Y016610D02*
X004497Y016610D01*
X004769Y016723D01*
X004977Y016931D01*
X005090Y017203D01*
X005090Y017497D01*
X004977Y017769D01*
X004769Y017977D01*
X004497Y018090D01*
X004203Y018090D01*
X003931Y017977D01*
X003723Y017769D01*
X003610Y017497D01*
X003610Y017203D01*
X003723Y016931D01*
X003931Y016723D01*
X004203Y016610D01*
X004623Y016662D02*
X019490Y016662D01*
X019490Y016981D02*
X004998Y016981D01*
X005090Y017299D02*
X019490Y017299D01*
X019490Y017618D02*
X012443Y017618D01*
X012455Y017630D02*
X012505Y017750D01*
X014375Y017750D01*
X014380Y017745D01*
X014556Y017672D01*
X015144Y017672D01*
X015320Y017745D01*
X015455Y017880D01*
X015528Y018056D01*
X015528Y018644D01*
X015455Y018820D01*
X015320Y018955D01*
X015144Y019028D01*
X014556Y019028D01*
X014380Y018955D01*
X014375Y018950D01*
X011981Y018950D01*
X011760Y018859D01*
X011680Y018778D01*
X011556Y018778D01*
X011380Y018705D01*
X011245Y018570D01*
X011172Y018394D01*
X011172Y017806D01*
X011245Y017630D01*
X011380Y017495D01*
X011556Y017422D01*
X012144Y017422D01*
X012320Y017495D01*
X012455Y017630D01*
X011839Y018892D02*
X009695Y018892D01*
X009670Y018832D02*
X009743Y019008D01*
X009743Y020026D01*
X009670Y020203D01*
X009535Y020338D01*
X009359Y020411D01*
X008341Y020411D01*
X008165Y020338D01*
X008030Y020203D01*
X007957Y020026D01*
X007957Y019008D01*
X008030Y018832D01*
X008165Y018697D01*
X008341Y018624D01*
X009359Y018624D01*
X009535Y018697D01*
X009670Y018832D01*
X009743Y019210D02*
X019490Y019210D01*
X019490Y019529D02*
X009743Y019529D01*
X009743Y019847D02*
X019490Y019847D01*
X019490Y020166D02*
X014205Y020166D01*
X014170Y020082D02*
X014243Y020258D01*
X014243Y021276D01*
X014170Y021453D01*
X014035Y021588D01*
X013859Y021661D01*
X012841Y021661D01*
X012665Y021588D01*
X012530Y021453D01*
X012457Y021276D01*
X012457Y020258D01*
X012530Y020082D01*
X012665Y019947D01*
X012841Y019874D01*
X013859Y019874D01*
X014035Y019947D01*
X014170Y020082D01*
X014243Y020484D02*
X019490Y020484D01*
X019490Y020803D02*
X014243Y020803D01*
X014243Y021121D02*
X019490Y021121D01*
X019490Y021440D02*
X014176Y021440D01*
X014543Y021895D02*
X014344Y022094D01*
X014203Y022338D01*
X014130Y022611D01*
X014130Y022893D01*
X014203Y023165D01*
X014344Y023409D01*
X014543Y023608D01*
X014787Y023749D01*
X015059Y023822D01*
X015341Y023822D01*
X015614Y023749D01*
X015858Y023608D01*
X016057Y023409D01*
X016198Y023165D01*
X016271Y022893D01*
X016271Y022611D01*
X016198Y022338D01*
X016057Y022094D01*
X015858Y021895D01*
X015614Y021754D01*
X015341Y021681D01*
X015059Y021681D01*
X014787Y021754D01*
X014543Y021895D01*
X014361Y022077D02*
X012339Y022077D01*
X012356Y022094D02*
X012497Y022338D01*
X012570Y022611D01*
X012570Y022893D01*
X012497Y023165D01*
X012356Y023409D01*
X012157Y023608D01*
X011913Y023749D01*
X011641Y023822D01*
X011359Y023822D01*
X011086Y023749D01*
X010842Y023608D01*
X010643Y023409D01*
X010502Y023165D01*
X010429Y022893D01*
X010429Y022611D01*
X010447Y022542D01*
X010287Y022499D01*
X010043Y022358D01*
X009844Y022159D01*
X009703Y021915D01*
X009630Y021643D01*
X009630Y021361D01*
X009703Y021088D01*
X009844Y020844D01*
X010043Y020645D01*
X010287Y020504D01*
X010559Y020431D01*
X010841Y020431D01*
X011114Y020504D01*
X011358Y020645D01*
X011557Y020844D01*
X011698Y021088D01*
X011771Y021361D01*
X011771Y021643D01*
X011753Y021711D01*
X011913Y021754D01*
X012157Y021895D01*
X012356Y022094D01*
X012512Y022395D02*
X012707Y022395D01*
X012706Y022396D02*
X012735Y022354D01*
X012771Y022317D01*
X012813Y022289D01*
X012861Y022269D01*
X012911Y022259D01*
X013350Y022259D01*
X013350Y022933D01*
X013350Y023606D01*
X013789Y023606D01*
X013839Y023596D01*
X013887Y023576D01*
X013929Y023548D01*
X013965Y023512D01*
X013994Y023469D01*
X014013Y023422D01*
X014023Y023372D01*
X014023Y022933D01*
X013350Y022933D01*
X013350Y022933D01*
X013350Y023606D01*
X012911Y023606D01*
X012861Y023596D01*
X012813Y023576D01*
X012771Y023548D01*
X012735Y023512D01*
X012706Y023469D01*
X012687Y023422D01*
X012677Y023372D01*
X012677Y022933D01*
X013350Y022933D01*
X013350Y022933D01*
X013350Y022933D01*
X014023Y022933D01*
X014023Y022494D01*
X014013Y022443D01*
X013994Y022396D01*
X013965Y022354D01*
X013929Y022317D01*
X013887Y022289D01*
X013839Y022269D01*
X013789Y022259D01*
X013350Y022259D01*
X013350Y022933D01*
X012677Y022933D01*
X012677Y022494D01*
X012687Y022443D01*
X012706Y022396D01*
X012677Y022714D02*
X012570Y022714D01*
X012533Y023032D02*
X012677Y023032D01*
X012677Y023351D02*
X012390Y023351D01*
X012052Y023669D02*
X014648Y023669D01*
X014310Y023351D02*
X014023Y023351D01*
X014023Y023032D02*
X014167Y023032D01*
X014130Y022714D02*
X014023Y022714D01*
X013993Y022395D02*
X014188Y022395D01*
X014780Y021758D02*
X011920Y021758D01*
X011771Y021440D02*
X012524Y021440D01*
X012457Y021121D02*
X011707Y021121D01*
X011515Y020803D02*
X012457Y020803D01*
X012457Y020484D02*
X011039Y020484D01*
X010362Y020484D02*
X007338Y020484D01*
X007413Y020504D02*
X007657Y020645D01*
X007856Y020844D01*
X007997Y021088D01*
X008070Y021361D01*
X008070Y021643D01*
X007997Y021915D01*
X007856Y022159D01*
X007657Y022358D01*
X007413Y022499D01*
X007253Y022542D01*
X007271Y022611D01*
X007271Y022893D01*
X007198Y023165D01*
X007057Y023409D01*
X006858Y023608D01*
X006614Y023749D01*
X006341Y023822D01*
X006059Y023822D01*
X005787Y023749D01*
X005543Y023608D01*
X005344Y023409D01*
X005203Y023165D01*
X005130Y022893D01*
X005130Y022611D01*
X005203Y022338D01*
X005344Y022094D01*
X005543Y021895D01*
X005787Y021754D01*
X005947Y021711D01*
X005929Y021643D01*
X005929Y021361D01*
X006002Y021088D01*
X006143Y020844D01*
X006342Y020645D01*
X006586Y020504D01*
X006859Y020431D01*
X007141Y020431D01*
X007413Y020504D01*
X007815Y020803D02*
X009885Y020803D01*
X009694Y021121D02*
X009477Y021121D01*
X009465Y021104D02*
X009494Y021146D01*
X009513Y021193D01*
X009523Y021244D01*
X009523Y021683D01*
X009523Y022122D01*
X009513Y022172D01*
X009494Y022219D01*
X009465Y022262D01*
X009429Y022298D01*
X009387Y022326D01*
X009339Y022346D01*
X009289Y022356D01*
X008850Y022356D01*
X008411Y022356D01*
X008361Y022346D01*
X008313Y022326D01*
X008271Y022298D01*
X008235Y022262D01*
X008206Y022219D01*
X008187Y022172D01*
X008177Y022122D01*
X008177Y021683D01*
X008850Y021683D01*
X008850Y022356D01*
X008850Y021683D01*
X008850Y021683D01*
X009523Y021683D01*
X008850Y021683D01*
X008850Y021683D01*
X008850Y021683D01*
X008177Y021683D01*
X008177Y021244D01*
X008187Y021193D01*
X008206Y021146D01*
X008235Y021104D01*
X008271Y021067D01*
X008313Y021039D01*
X008361Y021019D01*
X008411Y021009D01*
X008850Y021009D01*
X008850Y021683D01*
X008850Y021009D01*
X009289Y021009D01*
X009339Y021019D01*
X009387Y021039D01*
X009429Y021067D01*
X009465Y021104D01*
X009523Y021440D02*
X009630Y021440D01*
X009661Y021758D02*
X009523Y021758D01*
X009523Y022077D02*
X009796Y022077D01*
X010107Y022395D02*
X007593Y022395D01*
X007904Y022077D02*
X008177Y022077D01*
X008177Y021758D02*
X008039Y021758D01*
X008070Y021440D02*
X008177Y021440D01*
X008223Y021121D02*
X008006Y021121D01*
X008014Y020166D02*
X005205Y020166D01*
X005170Y020082D02*
X005035Y019947D01*
X004859Y019874D01*
X003841Y019874D01*
X003665Y019947D01*
X003530Y020082D01*
X003457Y020258D01*
X003457Y021276D01*
X003530Y021453D01*
X003665Y021588D01*
X003841Y021661D01*
X004859Y021661D01*
X005035Y021588D01*
X005170Y021453D01*
X005243Y021276D01*
X005243Y020258D01*
X005170Y020082D01*
X005243Y020484D02*
X006661Y020484D01*
X006185Y020803D02*
X005243Y020803D01*
X005243Y021121D02*
X005993Y021121D01*
X005929Y021440D02*
X005176Y021440D01*
X005361Y022077D02*
X003339Y022077D01*
X003512Y022395D02*
X003707Y022395D01*
X003706Y022396D02*
X003735Y022354D01*
X003771Y022317D01*
X003813Y022289D01*
X003861Y022269D01*
X003911Y022259D01*
X004350Y022259D01*
X004350Y022933D01*
X004350Y023606D01*
X004789Y023606D01*
X004839Y023596D01*
X004887Y023576D01*
X004929Y023548D01*
X004965Y023512D01*
X004994Y023469D01*
X005013Y023422D01*
X005023Y023372D01*
X005023Y022933D01*
X004350Y022933D01*
X004350Y022933D01*
X004350Y023606D01*
X003911Y023606D01*
X003861Y023596D01*
X003813Y023576D01*
X003771Y023548D01*
X003735Y023512D01*
X003706Y023469D01*
X003687Y023422D01*
X003677Y023372D01*
X003677Y022933D01*
X004350Y022933D01*
X004350Y022933D01*
X004350Y022933D01*
X005023Y022933D01*
X005023Y022494D01*
X005013Y022443D01*
X004994Y022396D01*
X004965Y022354D01*
X004929Y022317D01*
X004887Y022289D01*
X004839Y022269D01*
X004789Y022259D01*
X004350Y022259D01*
X004350Y022933D01*
X003677Y022933D01*
X003677Y022494D01*
X003687Y022443D01*
X003706Y022396D01*
X003677Y022714D02*
X003570Y022714D01*
X003533Y023032D02*
X003677Y023032D01*
X003677Y023351D02*
X003390Y023351D01*
X003052Y023669D02*
X005648Y023669D01*
X005310Y023351D02*
X005023Y023351D01*
X005023Y023032D02*
X005167Y023032D01*
X005130Y022714D02*
X005023Y022714D01*
X004993Y022395D02*
X005188Y022395D01*
X005780Y021758D02*
X002920Y021758D01*
X003524Y021440D02*
X000580Y021440D01*
X000580Y021758D02*
X002079Y021758D01*
X001661Y022077D02*
X000580Y022077D01*
X000580Y022395D02*
X001487Y022395D01*
X001429Y022714D02*
X000580Y022714D01*
X000580Y023032D02*
X000605Y023032D01*
X000580Y021121D02*
X003457Y021121D01*
X003457Y020803D02*
X000580Y020803D01*
X000580Y020484D02*
X003457Y020484D01*
X003495Y020166D02*
X000580Y020166D01*
X000580Y019847D02*
X007957Y019847D01*
X007957Y019529D02*
X000580Y019529D01*
X000580Y019210D02*
X007957Y019210D01*
X008005Y018892D02*
X000580Y018892D01*
X000580Y018573D02*
X011248Y018573D01*
X011172Y018255D02*
X000580Y018255D01*
X000580Y017936D02*
X003889Y017936D01*
X003660Y017618D02*
X002818Y017618D01*
X002870Y017565D02*
X002565Y017870D01*
X002350Y017870D01*
X002350Y017350D01*
X002870Y017350D01*
X002870Y017565D01*
X002870Y017350D02*
X002350Y017350D01*
X002350Y017350D01*
X002350Y017350D01*
X002350Y016830D01*
X002565Y016830D01*
X002870Y017135D01*
X002870Y017350D01*
X002870Y017299D02*
X003610Y017299D01*
X003702Y016981D02*
X002716Y016981D01*
X002350Y016981D02*
X002350Y016981D01*
X002350Y016830D02*
X002135Y016830D01*
X001830Y017135D01*
X001830Y017350D01*
X002350Y017350D01*
X002350Y017350D01*
X002350Y017350D01*
X002350Y017870D01*
X002135Y017870D01*
X001830Y017565D01*
X001830Y017350D01*
X002350Y017350D01*
X002350Y016830D01*
X001984Y016981D02*
X000580Y016981D01*
X000580Y017299D02*
X001830Y017299D01*
X001882Y017618D02*
X000580Y017618D01*
X002350Y017618D02*
X002350Y017618D01*
X002350Y017299D02*
X002350Y017299D01*
X004811Y017936D02*
X011172Y017936D01*
X011257Y017618D02*
X005040Y017618D01*
X005613Y013159D02*
X008219Y013159D01*
X007988Y012840D02*
X005844Y012840D01*
X005914Y012522D02*
X007918Y012522D01*
X007970Y012203D02*
X005862Y012203D01*
X005656Y011885D02*
X007902Y011885D01*
X007707Y011566D02*
X005493Y011566D01*
X005575Y011248D02*
X007625Y011248D01*
X007628Y010929D02*
X005572Y010929D01*
X005482Y010611D02*
X007718Y010611D01*
X007520Y010292D02*
X005274Y010292D01*
X005098Y009974D02*
X007270Y009974D01*
X007186Y009655D02*
X005182Y009655D01*
X005144Y009337D02*
X007224Y009337D01*
X007410Y009018D02*
X004957Y009018D01*
X004641Y007107D02*
X000580Y007107D01*
X000580Y006789D02*
X004217Y006789D01*
X004086Y006470D02*
X000580Y006470D01*
X000580Y006152D02*
X004086Y006152D01*
X004086Y005833D02*
X000580Y005833D01*
X000580Y005515D02*
X004086Y005515D01*
X004154Y005196D02*
X000580Y005196D01*
X000580Y004878D02*
X004383Y004878D01*
X005703Y004559D02*
X000580Y004559D01*
X000580Y004241D02*
X007188Y004241D01*
X007015Y004559D02*
X006997Y004559D01*
X015478Y017936D02*
X019490Y017936D01*
X019490Y018255D02*
X015528Y018255D01*
X015528Y018573D02*
X019490Y018573D01*
X019490Y018892D02*
X015384Y018892D01*
X015621Y021758D02*
X019490Y021758D01*
X019490Y022077D02*
X016039Y022077D01*
X016213Y022395D02*
X019490Y022395D01*
X019490Y022714D02*
X016271Y022714D01*
X016234Y023032D02*
X017855Y023032D01*
X017612Y023351D02*
X016091Y023351D01*
X015752Y023669D02*
X017505Y023669D01*
X017495Y023988D02*
X002455Y023988D01*
X002363Y024306D02*
X017587Y024306D01*
X019345Y023032D02*
X019490Y023032D01*
X013350Y023032D02*
X013350Y023032D01*
X013350Y022933D02*
X013350Y022933D01*
X013350Y022714D02*
X013350Y022714D01*
X013350Y022395D02*
X013350Y022395D01*
X013350Y023351D02*
X013350Y023351D01*
X010948Y023669D02*
X006752Y023669D01*
X007091Y023351D02*
X010609Y023351D01*
X010466Y023032D02*
X007234Y023032D01*
X007271Y022714D02*
X010429Y022714D01*
X008850Y022077D02*
X008850Y022077D01*
X008850Y021758D02*
X008850Y021758D01*
X008850Y021683D02*
X008850Y021683D01*
X008850Y021440D02*
X008850Y021440D01*
X008850Y021121D02*
X008850Y021121D01*
X009686Y020166D02*
X012495Y020166D01*
X004350Y022395D02*
X004350Y022395D01*
X004350Y022714D02*
X004350Y022714D01*
X004350Y022933D02*
X004350Y022933D01*
X004350Y023032D02*
X004350Y023032D01*
X004350Y023351D02*
X004350Y023351D01*
D18*
X007100Y016350D03*
X011850Y018100D03*
X014850Y018350D03*
D19*
X012100Y018350D01*
X011850Y018100D01*
M02*
