%
M48
M72
T01C0.0236
T02C0.0320
T03C0.0394
T04C0.0400
T05C0.0512
T06C0.0551
T07C0.1181
T08C0.1250
T09C0.1490
T10C0.1750
%
T01
X7100Y16350
X11850Y18100
X14850Y18350
T02
X4350Y17350
X2350Y17350
T03
X15350Y8350
T04
X13350Y13100
X13350Y14100
X13350Y15100
T05
X9550Y12500
X8050Y9600
X5050Y12500
X3550Y9600
X4950Y6300
X7850Y4800
T06
X8850Y19517
X8850Y21683
X4350Y20767
X4350Y22933
X13350Y22933
X13350Y20767
T07
X11500Y22752
X10700Y21502
X7000Y21502
X6200Y22752
X2500Y22752
X15200Y22752
T08
X1350Y1350
X18600Y1350
X18600Y23850
X1350Y23850
T09
X4350Y11100
X8850Y11100
X6350Y5600
T10
X12100Y5517
X12100Y2683
M30
