G75*
%MOIN*%
%OFA0B0*%
%FSLAX24Y24*%
%IPPOS*%
%LPD*%
%AMOC8*
5,1,8,0,0,1.08239X$1,22.5*
%
%ADD10C,0.0060*%
%ADD11C,0.0040*%
%ADD12C,0.0098*%
%ADD13R,0.0079X0.0079*%
%ADD14C,0.0100*%
%ADD15C,0.0080*%
%ADD16C,0.0030*%
%ADD17C,0.0050*%
%ADD18R,0.0240X0.0620*%
%ADD19R,0.0200X0.1000*%
%ADD20R,0.0300X0.4200*%
%ADD21R,0.0200X0.0750*%
%ADD22R,0.0200X0.0300*%
D10*
X012800Y012100D02*
X013950Y012150D01*
X014050Y012250D01*
X014050Y015950D01*
X013950Y016050D01*
X012800Y016100D01*
X013710Y012330D02*
X013712Y012350D01*
X013718Y012368D01*
X013727Y012386D01*
X013739Y012401D01*
X013754Y012413D01*
X013772Y012422D01*
X013790Y012428D01*
X013810Y012430D01*
X013830Y012428D01*
X013848Y012422D01*
X013866Y012413D01*
X013881Y012401D01*
X013893Y012386D01*
X013902Y012368D01*
X013908Y012350D01*
X013910Y012330D01*
X013908Y012310D01*
X013902Y012292D01*
X013893Y012274D01*
X013881Y012259D01*
X013866Y012247D01*
X013848Y012238D01*
X013830Y012232D01*
X013810Y012230D01*
X013790Y012232D01*
X013772Y012238D01*
X013754Y012247D01*
X013739Y012259D01*
X013727Y012274D01*
X013718Y012292D01*
X013712Y012310D01*
X013710Y012330D01*
X017179Y011472D02*
X017179Y011152D01*
X017820Y011152D01*
X017606Y011152D02*
X017606Y011472D01*
X017500Y011579D01*
X017286Y011579D01*
X017179Y011472D01*
X017500Y011796D02*
X017713Y011796D01*
X017820Y011903D01*
X017820Y012117D01*
X017713Y012223D01*
X017500Y012223D01*
X017393Y012117D01*
X017393Y011903D01*
X017500Y011796D01*
X017393Y012441D02*
X017713Y012441D01*
X017820Y012548D01*
X017713Y012654D01*
X017820Y012761D01*
X017713Y012868D01*
X017393Y012868D01*
X017500Y013085D02*
X017393Y013192D01*
X017393Y013406D01*
X017500Y013512D01*
X017606Y013512D01*
X017606Y013085D01*
X017500Y013085D02*
X017713Y013085D01*
X017820Y013192D01*
X017820Y013406D01*
X017820Y013730D02*
X017393Y013730D01*
X017393Y013943D02*
X017393Y014050D01*
X017393Y013943D02*
X017606Y013730D01*
X018429Y013298D02*
X018750Y012978D01*
X018750Y013405D01*
X018643Y013381D02*
X018750Y013275D01*
X018963Y013275D01*
X019070Y013381D01*
X019070Y013595D01*
X018856Y013702D02*
X018856Y013275D01*
X019070Y013298D02*
X018429Y013298D01*
X018643Y013381D02*
X018643Y013595D01*
X018750Y013702D01*
X018856Y013702D01*
X018643Y013919D02*
X019070Y014133D01*
X018643Y014346D01*
X018536Y015208D02*
X018429Y015315D01*
X018429Y015528D01*
X018536Y015635D01*
X018963Y015208D01*
X019070Y015315D01*
X019070Y015528D01*
X018963Y015635D01*
X018536Y015635D01*
X018536Y015208D02*
X018963Y015208D01*
X018963Y015853D02*
X018963Y015960D01*
X019070Y015960D01*
X019070Y015853D01*
X018963Y015853D01*
X018963Y016175D02*
X019070Y016282D01*
X019070Y016495D01*
X018963Y016602D01*
X018856Y016602D01*
X018750Y016495D01*
X018750Y016389D01*
X018750Y016495D02*
X018643Y016602D01*
X018536Y016602D01*
X018429Y016495D01*
X018429Y016282D01*
X018536Y016175D01*
X018702Y016630D02*
X018702Y017057D01*
X018488Y017271D01*
X018275Y017057D01*
X018275Y016630D01*
X018057Y016737D02*
X017950Y016630D01*
X017737Y016630D01*
X017630Y016737D01*
X017630Y017164D01*
X017737Y017271D01*
X017950Y017271D01*
X018057Y017164D01*
X018275Y016950D02*
X018702Y016950D01*
X018919Y016630D02*
X018919Y017271D01*
X019133Y017057D01*
X019346Y017271D01*
X019346Y016630D01*
X019346Y017880D02*
X018919Y017880D01*
X018919Y018521D01*
X019346Y018521D01*
X019133Y018200D02*
X018919Y018200D01*
X018702Y017987D02*
X018702Y018521D01*
X018275Y018521D02*
X018275Y017987D01*
X018381Y017880D01*
X018595Y017880D01*
X018702Y017987D01*
X018057Y017987D02*
X017950Y017880D01*
X017630Y017880D01*
X017630Y018521D01*
X017950Y018521D01*
X018057Y018414D01*
X018057Y017987D01*
X017820Y017809D02*
X017820Y017489D01*
X017713Y017382D01*
X017500Y017382D01*
X017393Y017489D01*
X017393Y017809D01*
X017179Y017809D02*
X017820Y017809D01*
X017393Y017166D02*
X017393Y017059D01*
X017606Y016845D01*
X017393Y016845D02*
X017820Y016845D01*
X017820Y016628D02*
X017820Y016307D01*
X017713Y016201D01*
X017606Y016307D01*
X017606Y016628D01*
X017500Y016628D02*
X017820Y016628D01*
X017500Y016628D02*
X017393Y016521D01*
X017393Y016307D01*
X017500Y015983D02*
X017393Y015876D01*
X017393Y015663D01*
X017500Y015556D01*
X017713Y015556D01*
X017820Y015663D01*
X017820Y015876D01*
X017713Y015983D01*
X017500Y015983D01*
X017606Y015339D02*
X017500Y015232D01*
X017500Y014912D01*
X017500Y015232D02*
X017393Y015339D01*
X017286Y015339D01*
X017179Y015232D01*
X017179Y014912D01*
X017820Y014912D01*
X017820Y015232D01*
X017713Y015339D01*
X017606Y015339D01*
X018536Y013057D02*
X018750Y013057D01*
X018856Y012950D01*
X018856Y012630D01*
X018856Y012844D02*
X019070Y013057D01*
X019070Y012760D02*
X019070Y012333D01*
X019070Y012547D02*
X018429Y012547D01*
X018643Y012333D01*
X018536Y012116D02*
X018429Y012009D01*
X018429Y011796D01*
X018536Y011689D01*
X018963Y011689D01*
X018536Y012116D01*
X018963Y012116D01*
X019070Y012009D01*
X019070Y011796D01*
X018963Y011689D01*
X019070Y011471D02*
X019070Y011044D01*
X018643Y011471D01*
X018536Y011471D01*
X018429Y011365D01*
X018429Y011151D01*
X018536Y011044D01*
X018963Y010184D02*
X018963Y010077D01*
X019070Y010077D01*
X019070Y010184D01*
X018963Y010184D01*
X019070Y010184D02*
X019284Y009970D01*
X018963Y009753D02*
X019070Y009646D01*
X019070Y009325D01*
X018429Y009325D01*
X018429Y009646D01*
X018536Y009753D01*
X018643Y009753D01*
X018750Y009646D01*
X018750Y009325D01*
X018750Y009646D02*
X018856Y009753D01*
X018963Y009753D01*
X018034Y010076D02*
X018034Y010183D01*
X017927Y010290D01*
X017393Y010290D01*
X017393Y009863D02*
X017713Y009863D01*
X017820Y009969D01*
X017820Y010290D01*
X017606Y009645D02*
X017500Y009645D01*
X017393Y009538D01*
X017393Y009325D01*
X017500Y009218D01*
X017713Y009218D01*
X017820Y009325D01*
X017820Y009538D01*
X017606Y009645D02*
X017606Y009218D01*
X017393Y009001D02*
X017606Y008681D01*
X017820Y009001D01*
X017820Y008681D02*
X017179Y008681D01*
X017393Y008463D02*
X017393Y008143D01*
X017500Y008036D01*
X017713Y008036D01*
X017820Y008143D01*
X017820Y008463D01*
X017713Y007819D02*
X017500Y007819D01*
X017393Y007712D01*
X017393Y007499D01*
X017500Y007392D01*
X017713Y007392D01*
X017820Y007499D01*
X017820Y007712D01*
X017713Y007819D01*
X017713Y007068D02*
X017179Y007068D01*
X017179Y007174D02*
X017179Y006961D01*
X017713Y007068D02*
X017820Y006961D01*
X017820Y006854D01*
X017713Y006747D01*
X017606Y005885D02*
X017500Y005885D01*
X017393Y005778D01*
X017393Y005565D01*
X017500Y005458D01*
X017713Y005458D01*
X017820Y005565D01*
X017820Y005778D01*
X017606Y005885D02*
X017606Y005458D01*
X017393Y005241D02*
X017393Y004920D01*
X017500Y004814D01*
X017713Y004814D01*
X017820Y004920D01*
X017820Y005241D01*
X017820Y004596D02*
X017500Y004596D01*
X017393Y004489D01*
X017393Y004276D01*
X017606Y004276D02*
X017606Y004596D01*
X017820Y004596D02*
X017820Y004276D01*
X017713Y004169D01*
X017606Y004276D01*
X017500Y003952D02*
X017713Y003952D01*
X017820Y003845D01*
X017820Y003525D01*
X018034Y003525D02*
X017393Y003525D01*
X017393Y003845D01*
X017500Y003952D01*
X017606Y003307D02*
X017713Y003307D01*
X017820Y003200D01*
X017820Y002987D01*
X017713Y002880D01*
X017500Y002987D02*
X017500Y003200D01*
X017606Y003307D01*
X017286Y003307D02*
X017179Y003200D01*
X017179Y002987D01*
X017286Y002880D01*
X017393Y002880D01*
X017500Y002987D01*
X018429Y002880D02*
X018643Y003094D01*
X018429Y003307D01*
X019070Y003307D01*
X019070Y003525D02*
X018429Y003525D01*
X018429Y003845D01*
X018536Y003952D01*
X018750Y003952D01*
X018856Y003845D01*
X018856Y003525D01*
X018856Y003738D02*
X019070Y003952D01*
X018963Y004169D02*
X019070Y004276D01*
X019070Y004489D01*
X018963Y004596D01*
X018856Y004596D01*
X018750Y004489D01*
X018750Y004276D01*
X018643Y004169D01*
X018536Y004169D01*
X018429Y004276D01*
X018429Y004489D01*
X018536Y004596D01*
X018429Y004814D02*
X018429Y005134D01*
X018536Y005241D01*
X018963Y005241D01*
X019070Y005134D01*
X019070Y004814D01*
X018429Y004814D01*
X018429Y006103D02*
X018429Y006530D01*
X018429Y006316D02*
X019070Y006316D01*
X018963Y006747D02*
X018750Y006747D01*
X018643Y006854D01*
X018643Y007068D01*
X018750Y007174D01*
X018856Y007174D01*
X018856Y006747D01*
X018963Y006747D02*
X019070Y006854D01*
X019070Y007068D01*
X018963Y007392D02*
X018856Y007499D01*
X018856Y007819D01*
X018750Y007819D02*
X019070Y007819D01*
X019070Y007499D01*
X018963Y007392D01*
X018643Y007499D02*
X018643Y007712D01*
X018750Y007819D01*
X018643Y008036D02*
X018643Y008143D01*
X018750Y008250D01*
X018643Y008357D01*
X018750Y008463D01*
X019070Y008463D01*
X019070Y008250D02*
X018750Y008250D01*
X018643Y008036D02*
X019070Y008036D01*
X019070Y012630D02*
X018429Y012630D01*
X018429Y012950D01*
X018536Y013057D01*
X018702Y019130D02*
X018488Y019344D01*
X018595Y019344D02*
X018702Y019450D01*
X018702Y019664D01*
X018595Y019771D01*
X018275Y019771D01*
X018275Y019130D01*
X018275Y019344D02*
X018595Y019344D01*
X018919Y019344D02*
X019133Y019130D01*
X019346Y019344D01*
X019346Y019771D01*
X018919Y019771D02*
X018919Y019344D01*
X018057Y019344D02*
X018057Y019237D01*
X017950Y019130D01*
X017737Y019130D01*
X017630Y019237D01*
X017737Y019450D02*
X017950Y019450D01*
X018057Y019344D01*
X018057Y019664D02*
X017950Y019771D01*
X017737Y019771D01*
X017630Y019664D01*
X017630Y019557D01*
X017737Y019450D01*
X004250Y016700D02*
X003850Y016700D01*
X004050Y016500D02*
X004050Y016900D01*
X003900Y017350D02*
X003600Y017350D01*
X003600Y016850D01*
X003400Y016850D01*
X003400Y017850D01*
X003600Y017850D01*
X003600Y017350D01*
X001150Y017350D02*
X001152Y017443D01*
X001158Y017537D01*
X001168Y017629D01*
X001182Y017722D01*
X001199Y017813D01*
X001221Y017904D01*
X001246Y017994D01*
X001276Y018083D01*
X001309Y018170D01*
X001345Y018256D01*
X001386Y018340D01*
X001429Y018423D01*
X001477Y018503D01*
X001527Y018582D01*
X001581Y018658D01*
X001638Y018732D01*
X001699Y018803D01*
X001762Y018872D01*
X001828Y018938D01*
X001897Y019001D01*
X001968Y019062D01*
X002042Y019119D01*
X002118Y019173D01*
X002197Y019223D01*
X002277Y019271D01*
X002360Y019314D01*
X002444Y019355D01*
X002530Y019391D01*
X002617Y019424D01*
X002706Y019454D01*
X002796Y019479D01*
X002887Y019501D01*
X002978Y019518D01*
X003071Y019532D01*
X003163Y019542D01*
X003257Y019548D01*
X003350Y019550D01*
X003443Y019548D01*
X003537Y019542D01*
X003629Y019532D01*
X003722Y019518D01*
X003813Y019501D01*
X003904Y019479D01*
X003994Y019454D01*
X004083Y019424D01*
X004170Y019391D01*
X004256Y019355D01*
X004340Y019314D01*
X004423Y019271D01*
X004503Y019223D01*
X004582Y019173D01*
X004658Y019119D01*
X004732Y019062D01*
X004803Y019001D01*
X004872Y018938D01*
X004938Y018872D01*
X005001Y018803D01*
X005062Y018732D01*
X005119Y018658D01*
X005173Y018582D01*
X005223Y018503D01*
X005271Y018423D01*
X005314Y018340D01*
X005355Y018256D01*
X005391Y018170D01*
X005424Y018083D01*
X005454Y017994D01*
X005479Y017904D01*
X005501Y017813D01*
X005518Y017722D01*
X005532Y017629D01*
X005542Y017537D01*
X005548Y017443D01*
X005550Y017350D01*
X005548Y017257D01*
X005542Y017163D01*
X005532Y017071D01*
X005518Y016978D01*
X005501Y016887D01*
X005479Y016796D01*
X005454Y016706D01*
X005424Y016617D01*
X005391Y016530D01*
X005355Y016444D01*
X005314Y016360D01*
X005271Y016277D01*
X005223Y016197D01*
X005173Y016118D01*
X005119Y016042D01*
X005062Y015968D01*
X005001Y015897D01*
X004938Y015828D01*
X004872Y015762D01*
X004803Y015699D01*
X004732Y015638D01*
X004658Y015581D01*
X004582Y015527D01*
X004503Y015477D01*
X004423Y015429D01*
X004340Y015386D01*
X004256Y015345D01*
X004170Y015309D01*
X004083Y015276D01*
X003994Y015246D01*
X003904Y015221D01*
X003813Y015199D01*
X003722Y015182D01*
X003629Y015168D01*
X003537Y015158D01*
X003443Y015152D01*
X003350Y015150D01*
X003257Y015152D01*
X003163Y015158D01*
X003071Y015168D01*
X002978Y015182D01*
X002887Y015199D01*
X002796Y015221D01*
X002706Y015246D01*
X002617Y015276D01*
X002530Y015309D01*
X002444Y015345D01*
X002360Y015386D01*
X002277Y015429D01*
X002197Y015477D01*
X002118Y015527D01*
X002042Y015581D01*
X001968Y015638D01*
X001897Y015699D01*
X001828Y015762D01*
X001762Y015828D01*
X001699Y015897D01*
X001638Y015968D01*
X001581Y016042D01*
X001527Y016118D01*
X001477Y016197D01*
X001429Y016277D01*
X001386Y016360D01*
X001345Y016444D01*
X001309Y016530D01*
X001276Y016617D01*
X001246Y016706D01*
X001221Y016796D01*
X001199Y016887D01*
X001182Y016978D01*
X001168Y017071D01*
X001158Y017163D01*
X001152Y017257D01*
X001150Y017350D01*
X002800Y017350D02*
X003100Y017350D01*
X018429Y002880D02*
X019070Y002880D01*
D11*
X015317Y001804D02*
X015317Y001727D01*
X015010Y001420D01*
X015317Y001420D01*
X015317Y001804D02*
X015240Y001880D01*
X015086Y001880D01*
X015010Y001804D01*
X014856Y001804D02*
X014779Y001880D01*
X014549Y001880D01*
X014549Y001420D01*
X014779Y001420D01*
X014856Y001497D01*
X014856Y001804D01*
X014907Y006870D02*
X014830Y006947D01*
X014830Y007023D01*
X014907Y007100D01*
X015061Y007100D01*
X015137Y007023D01*
X015137Y006947D01*
X015061Y006870D01*
X014907Y006870D01*
X014677Y006870D02*
X014523Y007023D01*
X014600Y007023D02*
X014370Y007023D01*
X014370Y006870D02*
X014370Y007330D01*
X014600Y007330D01*
X014677Y007254D01*
X014677Y007100D01*
X014600Y007023D01*
X014830Y007177D02*
X014830Y007254D01*
X014907Y007330D01*
X015061Y007330D01*
X015137Y007254D01*
X015137Y007177D01*
X015061Y007100D01*
X014907Y007100D02*
X014830Y007177D01*
X014967Y009120D02*
X014967Y009640D01*
X014793Y009467D01*
X014620Y009640D01*
X014620Y009120D01*
X015136Y009207D02*
X015222Y009120D01*
X015396Y009120D01*
X015483Y009207D01*
X015483Y009554D01*
X015396Y009640D01*
X015222Y009640D01*
X015136Y009554D01*
X015136Y009207D01*
X015651Y009120D02*
X015651Y009640D01*
X015998Y009120D01*
X015998Y009640D01*
X015825Y009960D02*
X015825Y010480D01*
X015998Y010480D02*
X015651Y010480D01*
X015483Y010307D02*
X015483Y009960D01*
X015483Y010220D02*
X015136Y010220D01*
X015136Y010307D02*
X015309Y010480D01*
X015483Y010307D01*
X015136Y010307D02*
X015136Y009960D01*
X014967Y010047D02*
X014967Y010133D01*
X014880Y010220D01*
X014620Y010220D01*
X014620Y009960D02*
X014880Y009960D01*
X014967Y010047D01*
X014880Y010220D02*
X014967Y010307D01*
X014967Y010394D01*
X014880Y010480D01*
X014620Y010480D01*
X014620Y009960D01*
X016167Y010480D02*
X016514Y010480D01*
X016340Y010480D02*
X016340Y009960D01*
X012830Y008830D02*
X012753Y008830D01*
X012446Y009137D01*
X012370Y009137D01*
X012370Y008830D01*
X012446Y008677D02*
X012600Y008677D01*
X012677Y008600D01*
X012677Y008370D01*
X012830Y008370D02*
X012370Y008370D01*
X012370Y008600D01*
X012446Y008677D01*
X012677Y008523D02*
X012830Y008677D01*
X011330Y008937D02*
X011330Y009167D01*
X011253Y009244D01*
X010946Y009244D01*
X010870Y009167D01*
X010870Y008937D01*
X011330Y008937D01*
X011253Y009397D02*
X011330Y009474D01*
X011330Y009627D01*
X011253Y009704D01*
X010870Y009704D01*
X010870Y009858D02*
X011330Y009858D01*
X011330Y010165D01*
X011407Y010318D02*
X011407Y010625D01*
X011330Y010778D02*
X010870Y010778D01*
X010870Y011085D01*
X010870Y011239D02*
X011253Y011239D01*
X011330Y011316D01*
X011330Y011469D01*
X011253Y011546D01*
X010870Y011546D01*
X010946Y011699D02*
X010870Y011776D01*
X010870Y011929D01*
X010946Y012006D01*
X010870Y012160D02*
X011330Y012160D01*
X011330Y012467D01*
X011100Y012313D02*
X011100Y012160D01*
X011177Y012006D02*
X011253Y012006D01*
X011330Y011929D01*
X011330Y011776D01*
X011253Y011699D01*
X011100Y011776D02*
X011100Y011929D01*
X011177Y012006D01*
X011100Y011776D02*
X011023Y011699D01*
X010946Y011699D01*
X010870Y012160D02*
X010870Y012467D01*
X011100Y010932D02*
X011100Y010778D01*
X010870Y010165D02*
X010870Y009858D01*
X011100Y009858D02*
X011100Y010011D01*
X011253Y009397D02*
X010870Y009397D01*
X008860Y008080D02*
X008553Y008080D01*
X008553Y007620D01*
X008860Y007620D01*
X008707Y007850D02*
X008553Y007850D01*
X008400Y007773D02*
X008400Y007697D01*
X008323Y007620D01*
X008169Y007620D01*
X008093Y007697D01*
X007939Y007697D02*
X007939Y008080D01*
X008093Y008004D02*
X008093Y007927D01*
X008169Y007850D01*
X008323Y007850D01*
X008400Y007773D01*
X008400Y008004D02*
X008323Y008080D01*
X008169Y008080D01*
X008093Y008004D01*
X007939Y007697D02*
X007863Y007620D01*
X007709Y007620D01*
X007632Y007697D01*
X007632Y008080D01*
X007479Y008080D02*
X007172Y008080D01*
X007172Y007620D01*
X007018Y007543D02*
X006712Y007543D01*
X006405Y007620D02*
X006405Y008080D01*
X006370Y008093D02*
X006446Y008016D01*
X006523Y008016D01*
X006600Y008093D01*
X006600Y008246D01*
X006677Y008323D01*
X006753Y008323D01*
X006830Y008246D01*
X006830Y008093D01*
X006753Y008016D01*
X006558Y008080D02*
X006251Y008080D01*
X006370Y008093D02*
X006370Y008246D01*
X006446Y008323D01*
X006370Y008476D02*
X006830Y008476D01*
X006830Y008783D01*
X006830Y008937D02*
X006370Y008937D01*
X006370Y009167D01*
X006446Y009244D01*
X006600Y009244D01*
X006677Y009167D01*
X006677Y008937D01*
X006677Y009090D02*
X006830Y009244D01*
X006677Y009397D02*
X006830Y009551D01*
X006677Y009704D01*
X006370Y009704D01*
X006446Y009858D02*
X006753Y009858D01*
X006830Y009934D01*
X006830Y010088D01*
X006753Y010165D01*
X006446Y010165D01*
X006370Y010088D01*
X006370Y009934D01*
X006446Y009858D01*
X006370Y009397D02*
X006677Y009397D01*
X006370Y008783D02*
X006370Y008476D01*
X006600Y008476D02*
X006600Y008630D01*
X006098Y008080D02*
X005791Y008080D01*
X005944Y008080D02*
X005944Y007620D01*
X005637Y007620D02*
X005637Y007927D01*
X005484Y008080D01*
X005330Y007927D01*
X005330Y007620D01*
X005177Y007697D02*
X005100Y007620D01*
X004870Y007620D01*
X004870Y008080D01*
X005100Y008080D01*
X005177Y008004D01*
X005177Y007927D01*
X005100Y007850D01*
X004870Y007850D01*
X005100Y007850D02*
X005177Y007773D01*
X005177Y007697D01*
X005330Y007850D02*
X005637Y007850D01*
X007172Y007850D02*
X007325Y007850D01*
X006907Y010318D02*
X006907Y010625D01*
X006830Y010778D02*
X006370Y010778D01*
X006370Y011085D01*
X006370Y011239D02*
X006753Y011239D01*
X006830Y011316D01*
X006830Y011469D01*
X006753Y011546D01*
X006370Y011546D01*
X006446Y011699D02*
X006523Y011699D01*
X006600Y011776D01*
X006600Y011929D01*
X006677Y012006D01*
X006753Y012006D01*
X006830Y011929D01*
X006830Y011776D01*
X006753Y011699D01*
X006446Y011699D02*
X006370Y011776D01*
X006370Y011929D01*
X006446Y012006D01*
X006370Y012160D02*
X006830Y012160D01*
X006830Y012467D01*
X006600Y012313D02*
X006600Y012160D01*
X006370Y012160D02*
X006370Y012467D01*
X006600Y010932D02*
X006600Y010778D01*
X009870Y004558D02*
X009870Y004251D01*
X009870Y004098D02*
X009870Y003791D01*
X009870Y003944D02*
X010330Y003944D01*
X010330Y003637D02*
X010023Y003637D01*
X009870Y003484D01*
X010023Y003330D01*
X010330Y003330D01*
X010253Y003177D02*
X010330Y003100D01*
X010330Y002870D01*
X009870Y002870D01*
X009870Y003100D01*
X009946Y003177D01*
X010023Y003177D01*
X010100Y003100D01*
X010100Y002870D01*
X010100Y003100D02*
X010177Y003177D01*
X010253Y003177D01*
X010100Y003330D02*
X010100Y003637D01*
X010330Y004405D02*
X009870Y004405D01*
X006732Y003106D02*
X004968Y003106D01*
X004968Y001594D02*
X006732Y001594D01*
X005387Y000870D02*
X005080Y000870D01*
X005234Y000870D02*
X005234Y001330D01*
X005080Y001177D01*
X004927Y001254D02*
X004927Y000947D01*
X004850Y000870D01*
X004620Y000870D01*
X004620Y001330D01*
X004850Y001330D01*
X004927Y001254D01*
X013199Y016120D02*
X013199Y016580D01*
X013429Y016580D01*
X013506Y016504D01*
X013506Y016350D01*
X013429Y016273D01*
X013199Y016273D01*
X013353Y016273D02*
X013506Y016120D01*
X013660Y016350D02*
X013967Y016350D01*
X013890Y016120D02*
X013890Y016580D01*
X013660Y016350D01*
X015119Y016226D02*
X015426Y016226D01*
X015579Y016226D02*
X015886Y016226D01*
X016040Y016226D02*
X016270Y016226D01*
X016347Y016303D01*
X016347Y016610D01*
X016270Y016687D01*
X016040Y016687D01*
X016040Y016226D01*
X015733Y016456D02*
X015579Y016456D01*
X015579Y016226D02*
X015579Y016687D01*
X015886Y016687D01*
X016500Y016456D02*
X016807Y016456D01*
X016730Y016226D02*
X016730Y016687D01*
X016500Y016456D01*
X016577Y017476D02*
X016500Y017553D01*
X016577Y017476D02*
X016730Y017476D01*
X016807Y017553D01*
X016807Y017630D01*
X016730Y017706D01*
X016654Y017706D01*
X016730Y017706D02*
X016807Y017783D01*
X016807Y017860D01*
X016730Y017937D01*
X016577Y017937D01*
X016500Y017860D01*
X016347Y017860D02*
X016270Y017937D01*
X016040Y017937D01*
X016040Y017476D01*
X016270Y017476D01*
X016347Y017553D01*
X016347Y017860D01*
X015886Y017937D02*
X015579Y017937D01*
X015579Y017476D01*
X015886Y017476D01*
X015733Y017706D02*
X015579Y017706D01*
X015426Y017476D02*
X015119Y017476D01*
X015119Y017937D01*
X015119Y018726D02*
X015426Y018726D01*
X015579Y018726D02*
X015886Y018726D01*
X016040Y018726D02*
X016270Y018726D01*
X016347Y018803D01*
X016347Y019110D01*
X016270Y019187D01*
X016040Y019187D01*
X016040Y018726D01*
X015733Y018956D02*
X015579Y018956D01*
X015579Y018726D02*
X015579Y019187D01*
X015886Y019187D01*
X016500Y019033D02*
X016654Y019187D01*
X016654Y018726D01*
X016807Y018726D02*
X016500Y018726D01*
X015119Y018726D02*
X015119Y019187D01*
X015119Y016687D02*
X015119Y016226D01*
X009967Y017197D02*
X009890Y017120D01*
X009736Y017120D01*
X009660Y017197D01*
X009506Y017120D02*
X009353Y017273D01*
X009429Y017273D02*
X009199Y017273D01*
X009199Y017120D02*
X009199Y017580D01*
X009429Y017580D01*
X009506Y017504D01*
X009506Y017350D01*
X009429Y017273D01*
X009660Y017504D02*
X009736Y017580D01*
X009890Y017580D01*
X009967Y017504D01*
X009967Y017427D01*
X009890Y017350D01*
X009967Y017273D01*
X009967Y017197D01*
X009890Y017350D02*
X009813Y017350D01*
X006217Y018370D02*
X005910Y018370D01*
X006063Y018370D02*
X006063Y018830D01*
X005910Y018677D01*
X005756Y018754D02*
X005756Y018600D01*
X005679Y018523D01*
X005449Y018523D01*
X005449Y018370D02*
X005449Y018830D01*
X005679Y018830D01*
X005756Y018754D01*
X005603Y018523D02*
X005756Y018370D01*
X008370Y022620D02*
X008600Y022620D01*
X008677Y022697D01*
X008677Y023004D01*
X008600Y023080D01*
X008370Y023080D01*
X008370Y022620D01*
X008830Y022697D02*
X008830Y023080D01*
X008830Y022697D02*
X008907Y022620D01*
X009061Y022620D01*
X009137Y022697D01*
X009137Y023080D01*
X009291Y023080D02*
X009291Y022620D01*
X009598Y022620D01*
X009444Y022850D02*
X009291Y022850D01*
X009291Y023080D02*
X009598Y023080D01*
X012870Y023947D02*
X012947Y023870D01*
X013100Y023870D01*
X013177Y023947D01*
X013330Y023870D02*
X013330Y024177D01*
X013484Y024330D01*
X013637Y024177D01*
X013637Y023870D01*
X013791Y023870D02*
X013791Y024330D01*
X013944Y024177D01*
X014098Y024330D01*
X014098Y023870D01*
X014251Y023870D02*
X014558Y023870D01*
X014712Y023870D02*
X014712Y024330D01*
X014942Y024330D01*
X015018Y024254D01*
X015018Y024100D01*
X014942Y024023D01*
X014712Y024023D01*
X014865Y024023D02*
X015018Y023870D01*
X015172Y023870D02*
X015172Y024177D01*
X015325Y024330D01*
X015479Y024177D01*
X015479Y023870D01*
X015479Y024100D02*
X015172Y024100D01*
X014558Y024330D02*
X014251Y024330D01*
X014251Y023870D01*
X014251Y024100D02*
X014405Y024100D01*
X013637Y024100D02*
X013330Y024100D01*
X013177Y024254D02*
X013100Y024330D01*
X012947Y024330D01*
X012870Y024254D01*
X012870Y023947D01*
X006018Y023947D02*
X005942Y023870D01*
X005788Y023870D01*
X005712Y023947D01*
X005712Y024254D01*
X005788Y024330D01*
X005942Y024330D01*
X006018Y024254D01*
X006018Y023947D01*
X005558Y024023D02*
X005558Y024330D01*
X005558Y024023D02*
X005405Y023870D01*
X005251Y024023D01*
X005251Y024330D01*
X005098Y024254D02*
X005098Y024100D01*
X005021Y024023D01*
X004791Y024023D01*
X004791Y023870D02*
X004791Y024330D01*
X005021Y024330D01*
X005098Y024254D01*
X004944Y024023D02*
X005098Y023870D01*
X004637Y023870D02*
X004330Y023870D01*
X004330Y024330D01*
X004637Y024330D01*
X004484Y024100D02*
X004330Y024100D01*
X004177Y024023D02*
X004177Y023947D01*
X004100Y023870D01*
X003947Y023870D01*
X003870Y023947D01*
X003947Y024100D02*
X004100Y024100D01*
X004177Y024023D01*
X004177Y024254D02*
X004100Y024330D01*
X003947Y024330D01*
X003870Y024254D01*
X003870Y024177D01*
X003947Y024100D01*
D12*
X016635Y019393D03*
X016635Y018143D03*
X016635Y016893D03*
D13*
X016350Y017100D03*
X016350Y018350D03*
X016350Y019600D03*
D14*
X014374Y019921D02*
X012326Y019921D01*
X012326Y023622D01*
X014374Y023622D01*
X014374Y020984D01*
X014402Y020982D01*
X014430Y020977D01*
X014457Y020967D01*
X014483Y020955D01*
X014506Y020939D01*
X014527Y020920D01*
X014546Y020899D01*
X014562Y020876D01*
X014574Y020850D01*
X014584Y020823D01*
X014589Y020795D01*
X014591Y020767D01*
X014589Y020739D01*
X014584Y020711D01*
X014574Y020684D01*
X014562Y020659D01*
X014546Y020635D01*
X014527Y020614D01*
X014506Y020595D01*
X014483Y020579D01*
X014457Y020567D01*
X014430Y020557D01*
X014402Y020552D01*
X014374Y020550D01*
X014374Y020551D02*
X014374Y019921D01*
X014413Y022362D02*
X014689Y022362D01*
X014649Y023110D02*
X014678Y023151D01*
X014710Y023190D01*
X014745Y023227D01*
X014782Y023260D01*
X014822Y023291D01*
X014864Y023318D01*
X014908Y023343D01*
X014954Y023363D01*
X015002Y023380D01*
X015050Y023394D01*
X015100Y023403D01*
X015150Y023409D01*
X015200Y023411D01*
X015250Y023409D01*
X015300Y023403D01*
X015350Y023394D01*
X015398Y023380D01*
X015446Y023363D01*
X015492Y023343D01*
X015536Y023318D01*
X015578Y023291D01*
X015618Y023260D01*
X015655Y023227D01*
X015690Y023190D01*
X015722Y023151D01*
X015751Y023110D01*
X015752Y023110D02*
X015752Y022401D01*
X015751Y022402D02*
X015722Y022361D01*
X015690Y022322D01*
X015655Y022285D01*
X015618Y022252D01*
X015578Y022221D01*
X015536Y022194D01*
X015492Y022169D01*
X015446Y022149D01*
X015398Y022132D01*
X015350Y022118D01*
X015300Y022109D01*
X015250Y022103D01*
X015200Y022101D01*
X015150Y022103D01*
X015100Y022109D01*
X015050Y022118D01*
X015002Y022132D01*
X014954Y022149D01*
X014908Y022169D01*
X014864Y022194D01*
X014822Y022221D01*
X014782Y022252D01*
X014745Y022285D01*
X014710Y022322D01*
X014678Y022361D01*
X014649Y022402D01*
X014689Y023149D02*
X014413Y023149D01*
X012287Y023149D02*
X012011Y023149D01*
X012051Y022402D02*
X012022Y022361D01*
X011990Y022322D01*
X011955Y022285D01*
X011918Y022252D01*
X011878Y022221D01*
X011836Y022194D01*
X011792Y022169D01*
X011746Y022149D01*
X011698Y022132D01*
X011650Y022118D01*
X011600Y022109D01*
X011550Y022103D01*
X011500Y022101D01*
X011450Y022103D01*
X011400Y022109D01*
X011350Y022118D01*
X011302Y022132D01*
X011254Y022149D01*
X011208Y022169D01*
X011164Y022194D01*
X011122Y022221D01*
X011082Y022252D01*
X011045Y022285D01*
X011010Y022322D01*
X010978Y022361D01*
X010949Y022402D01*
X010948Y022401D02*
X010948Y023110D01*
X010949Y023110D02*
X010978Y023151D01*
X011010Y023190D01*
X011045Y023227D01*
X011082Y023260D01*
X011122Y023291D01*
X011164Y023318D01*
X011208Y023343D01*
X011254Y023363D01*
X011302Y023380D01*
X011350Y023394D01*
X011400Y023403D01*
X011450Y023409D01*
X011500Y023411D01*
X011550Y023409D01*
X011600Y023403D01*
X011650Y023394D01*
X011698Y023380D01*
X011746Y023363D01*
X011792Y023343D01*
X011836Y023318D01*
X011878Y023291D01*
X011918Y023260D01*
X011955Y023227D01*
X011990Y023190D01*
X012022Y023151D01*
X012051Y023110D01*
X012011Y022362D02*
X012287Y022362D01*
X011252Y021860D02*
X011252Y021151D01*
X011251Y021860D02*
X011222Y021901D01*
X011190Y021940D01*
X011155Y021977D01*
X011118Y022010D01*
X011078Y022041D01*
X011036Y022068D01*
X010992Y022093D01*
X010946Y022113D01*
X010898Y022130D01*
X010850Y022144D01*
X010800Y022153D01*
X010750Y022159D01*
X010700Y022161D01*
X010650Y022159D01*
X010600Y022153D01*
X010550Y022144D01*
X010502Y022130D01*
X010454Y022113D01*
X010408Y022093D01*
X010364Y022068D01*
X010322Y022041D01*
X010282Y022010D01*
X010245Y021977D01*
X010210Y021940D01*
X010178Y021901D01*
X010149Y021860D01*
X010189Y021899D02*
X009913Y021899D01*
X009874Y022372D02*
X009874Y019734D01*
X009902Y019732D01*
X009930Y019727D01*
X009957Y019717D01*
X009983Y019705D01*
X010006Y019689D01*
X010027Y019670D01*
X010046Y019649D01*
X010062Y019626D01*
X010074Y019600D01*
X010084Y019573D01*
X010089Y019545D01*
X010091Y019517D01*
X010089Y019489D01*
X010084Y019461D01*
X010074Y019434D01*
X010062Y019409D01*
X010046Y019385D01*
X010027Y019364D01*
X010006Y019345D01*
X009983Y019329D01*
X009957Y019317D01*
X009930Y019307D01*
X009902Y019302D01*
X009874Y019300D01*
X009874Y019301D02*
X009874Y018671D01*
X007826Y018671D01*
X007826Y022372D01*
X009874Y022372D01*
X010149Y021152D02*
X010178Y021111D01*
X010210Y021072D01*
X010245Y021035D01*
X010282Y021002D01*
X010322Y020971D01*
X010364Y020944D01*
X010408Y020919D01*
X010454Y020899D01*
X010502Y020882D01*
X010550Y020868D01*
X010600Y020859D01*
X010650Y020853D01*
X010700Y020851D01*
X010750Y020853D01*
X010800Y020859D01*
X010850Y020868D01*
X010898Y020882D01*
X010946Y020899D01*
X010992Y020919D01*
X011036Y020944D01*
X011078Y020971D01*
X011118Y021002D01*
X011155Y021035D01*
X011190Y021072D01*
X011222Y021111D01*
X011251Y021152D01*
X010189Y021112D02*
X009913Y021112D01*
X007787Y021112D02*
X007511Y021112D01*
X007551Y021860D02*
X007522Y021901D01*
X007490Y021940D01*
X007455Y021977D01*
X007418Y022010D01*
X007378Y022041D01*
X007336Y022068D01*
X007292Y022093D01*
X007246Y022113D01*
X007198Y022130D01*
X007150Y022144D01*
X007100Y022153D01*
X007050Y022159D01*
X007000Y022161D01*
X006950Y022159D01*
X006900Y022153D01*
X006850Y022144D01*
X006802Y022130D01*
X006754Y022113D01*
X006708Y022093D01*
X006664Y022068D01*
X006622Y022041D01*
X006582Y022010D01*
X006545Y021977D01*
X006510Y021940D01*
X006478Y021901D01*
X006449Y021860D01*
X006448Y021860D02*
X006448Y021151D01*
X006449Y021152D02*
X006478Y021111D01*
X006510Y021072D01*
X006545Y021035D01*
X006582Y021002D01*
X006622Y020971D01*
X006664Y020944D01*
X006708Y020919D01*
X006754Y020899D01*
X006802Y020882D01*
X006850Y020868D01*
X006900Y020859D01*
X006950Y020853D01*
X007000Y020851D01*
X007050Y020853D01*
X007100Y020859D01*
X007150Y020868D01*
X007198Y020882D01*
X007246Y020899D01*
X007292Y020919D01*
X007336Y020944D01*
X007378Y020971D01*
X007418Y021002D01*
X007455Y021035D01*
X007490Y021072D01*
X007522Y021111D01*
X007551Y021152D01*
X007511Y021899D02*
X007787Y021899D01*
X006752Y022401D02*
X006752Y023110D01*
X006751Y023110D02*
X006722Y023151D01*
X006690Y023190D01*
X006655Y023227D01*
X006618Y023260D01*
X006578Y023291D01*
X006536Y023318D01*
X006492Y023343D01*
X006446Y023363D01*
X006398Y023380D01*
X006350Y023394D01*
X006300Y023403D01*
X006250Y023409D01*
X006200Y023411D01*
X006150Y023409D01*
X006100Y023403D01*
X006050Y023394D01*
X006002Y023380D01*
X005954Y023363D01*
X005908Y023343D01*
X005864Y023318D01*
X005822Y023291D01*
X005782Y023260D01*
X005745Y023227D01*
X005710Y023190D01*
X005678Y023151D01*
X005649Y023110D01*
X005689Y023149D02*
X005413Y023149D01*
X005374Y023622D02*
X005374Y020984D01*
X005402Y020982D01*
X005430Y020977D01*
X005457Y020967D01*
X005483Y020955D01*
X005506Y020939D01*
X005527Y020920D01*
X005546Y020899D01*
X005562Y020876D01*
X005574Y020850D01*
X005584Y020823D01*
X005589Y020795D01*
X005591Y020767D01*
X005589Y020739D01*
X005584Y020711D01*
X005574Y020684D01*
X005562Y020659D01*
X005546Y020635D01*
X005527Y020614D01*
X005506Y020595D01*
X005483Y020579D01*
X005457Y020567D01*
X005430Y020557D01*
X005402Y020552D01*
X005374Y020550D01*
X005374Y020551D02*
X005374Y019921D01*
X003326Y019921D01*
X003326Y023622D01*
X005374Y023622D01*
X005649Y022402D02*
X005678Y022361D01*
X005710Y022322D01*
X005745Y022285D01*
X005782Y022252D01*
X005822Y022221D01*
X005864Y022194D01*
X005908Y022169D01*
X005954Y022149D01*
X006002Y022132D01*
X006050Y022118D01*
X006100Y022109D01*
X006150Y022103D01*
X006200Y022101D01*
X006250Y022103D01*
X006300Y022109D01*
X006350Y022118D01*
X006398Y022132D01*
X006446Y022149D01*
X006492Y022169D01*
X006536Y022194D01*
X006578Y022221D01*
X006618Y022252D01*
X006655Y022285D01*
X006690Y022322D01*
X006722Y022361D01*
X006751Y022402D01*
X005689Y022362D02*
X005413Y022362D01*
X003287Y022362D02*
X003011Y022362D01*
X003051Y023110D02*
X003022Y023151D01*
X002990Y023190D01*
X002955Y023227D01*
X002918Y023260D01*
X002878Y023291D01*
X002836Y023318D01*
X002792Y023343D01*
X002746Y023363D01*
X002698Y023380D01*
X002650Y023394D01*
X002600Y023403D01*
X002550Y023409D01*
X002500Y023411D01*
X002450Y023409D01*
X002400Y023403D01*
X002350Y023394D01*
X002302Y023380D01*
X002254Y023363D01*
X002208Y023343D01*
X002164Y023318D01*
X002122Y023291D01*
X002082Y023260D01*
X002045Y023227D01*
X002010Y023190D01*
X001978Y023151D01*
X001949Y023110D01*
X001948Y023110D02*
X001948Y022401D01*
X001949Y022402D02*
X001978Y022361D01*
X002010Y022322D01*
X002045Y022285D01*
X002082Y022252D01*
X002122Y022221D01*
X002164Y022194D01*
X002208Y022169D01*
X002254Y022149D01*
X002302Y022132D01*
X002350Y022118D01*
X002400Y022109D01*
X002450Y022103D01*
X002500Y022101D01*
X002550Y022103D01*
X002600Y022109D01*
X002650Y022118D01*
X002698Y022132D01*
X002746Y022149D01*
X002792Y022169D01*
X002836Y022194D01*
X002878Y022221D01*
X002918Y022252D01*
X002955Y022285D01*
X002990Y022322D01*
X003022Y022361D01*
X003051Y022402D01*
X003011Y023149D02*
X003287Y023149D01*
D15*
X014799Y008805D02*
X014799Y007895D01*
X015901Y007895D01*
X015901Y008805D01*
X014799Y008805D01*
X014603Y002586D02*
X014603Y002114D01*
X014997Y002350D01*
X014603Y002586D01*
D16*
X014820Y003532D02*
X014943Y003532D01*
X015005Y003594D01*
X015127Y003594D02*
X015188Y003532D01*
X015312Y003532D01*
X015373Y003594D01*
X015373Y003655D01*
X015312Y003717D01*
X015250Y003717D01*
X015312Y003717D02*
X015373Y003779D01*
X015373Y003841D01*
X015312Y003902D01*
X015188Y003902D01*
X015127Y003841D01*
X015005Y003841D02*
X014943Y003902D01*
X014820Y003902D01*
X014758Y003841D01*
X014758Y003594D01*
X014820Y003532D01*
X015263Y007382D02*
X015532Y007382D01*
X015398Y007382D02*
X015398Y007785D01*
X015263Y007650D01*
X011090Y013235D02*
X010843Y013235D01*
X010782Y013297D01*
X010782Y013420D01*
X010843Y013482D01*
X010782Y013603D02*
X010967Y013603D01*
X010905Y013727D01*
X010905Y013789D01*
X010967Y013850D01*
X011090Y013850D01*
X011152Y013789D01*
X011152Y013665D01*
X011090Y013603D01*
X011090Y013482D02*
X011152Y013420D01*
X011152Y013297D01*
X011090Y013235D01*
X010782Y013603D02*
X010782Y013850D01*
X007123Y017782D02*
X006877Y017782D01*
X007000Y017782D02*
X007000Y018152D01*
X006877Y018029D01*
X006755Y018091D02*
X006693Y018152D01*
X006570Y018152D01*
X006508Y018091D01*
X006508Y017844D01*
X006570Y017782D01*
X006693Y017782D01*
X006755Y017844D01*
X015298Y014623D02*
X015359Y014500D01*
X015483Y014377D01*
X015483Y014562D01*
X015545Y014623D01*
X015606Y014623D01*
X015668Y014562D01*
X015668Y014438D01*
X015606Y014377D01*
X015483Y014377D01*
X015606Y014255D02*
X015668Y014193D01*
X015668Y014070D01*
X015606Y014008D01*
X015359Y014008D01*
X015298Y014070D01*
X015298Y014193D01*
X015359Y014255D01*
D17*
X002850Y007100D02*
X002850Y004100D01*
X009850Y004100D01*
X009850Y007100D01*
X002850Y007100D01*
X002850Y007600D02*
X002850Y014600D01*
X005850Y014600D01*
X005850Y007600D01*
X002850Y007600D01*
X005550Y003050D02*
X005550Y001650D01*
X007350Y007600D02*
X007350Y014600D01*
X010350Y014600D01*
X010350Y007600D01*
X007350Y007600D01*
X010486Y007171D02*
X013675Y007171D01*
X013675Y001817D01*
X012887Y001029D01*
X011313Y001029D01*
X010486Y001856D01*
X010486Y007171D01*
X011037Y006777D02*
X011037Y006383D01*
X010840Y006580D02*
X011234Y006580D01*
X014255Y012125D02*
X014630Y012125D01*
X014705Y012200D01*
X014705Y012350D01*
X014630Y012425D01*
X014255Y012425D01*
X014405Y012585D02*
X014255Y012736D01*
X014705Y012736D01*
X014705Y012886D02*
X014705Y012585D01*
X001993Y016925D02*
X001766Y016925D01*
X001879Y016925D02*
X001879Y016585D01*
X001520Y016585D02*
X001520Y016925D01*
X001407Y016925D02*
X001634Y016925D01*
X001615Y019375D02*
X001915Y019675D01*
X001915Y019750D01*
X001840Y019825D01*
X001690Y019825D01*
X001615Y019750D01*
X001454Y019750D02*
X001379Y019825D01*
X001229Y019825D01*
X001154Y019750D01*
X001154Y019450D01*
X001229Y019375D01*
X001379Y019375D01*
X001454Y019450D01*
X001615Y019375D02*
X001915Y019375D01*
D18*
X015070Y002350D03*
D19*
X003150Y017350D03*
D20*
X012500Y014100D03*
D21*
X012750Y012375D03*
X012750Y015825D03*
D22*
X012750Y014600D03*
X012750Y013600D03*
M02*
