G75*
%MOIN*%
%OFA0B0*%
%FSLAX24Y24*%
%IPPOS*%
%LPD*%
%AMOC8*
5,1,8,0,0,1.08239X$1,22.5*
%
%ADD10C,0.0000*%
D10*
X000100Y000100D02*
X000100Y025096D01*
X019970Y025096D01*
X019970Y000100D01*
X000100Y000100D01*
X000725Y001350D02*
X000727Y001400D01*
X000733Y001449D01*
X000743Y001498D01*
X000756Y001545D01*
X000774Y001592D01*
X000795Y001637D01*
X000819Y001680D01*
X000847Y001721D01*
X000878Y001760D01*
X000912Y001796D01*
X000949Y001830D01*
X000989Y001860D01*
X001030Y001887D01*
X001074Y001911D01*
X001119Y001931D01*
X001166Y001947D01*
X001214Y001960D01*
X001263Y001969D01*
X001313Y001974D01*
X001362Y001975D01*
X001412Y001972D01*
X001461Y001965D01*
X001510Y001954D01*
X001557Y001940D01*
X001603Y001921D01*
X001648Y001899D01*
X001691Y001874D01*
X001731Y001845D01*
X001769Y001813D01*
X001805Y001779D01*
X001838Y001741D01*
X001867Y001701D01*
X001893Y001659D01*
X001916Y001615D01*
X001935Y001569D01*
X001951Y001522D01*
X001963Y001473D01*
X001971Y001424D01*
X001975Y001375D01*
X001975Y001325D01*
X001971Y001276D01*
X001963Y001227D01*
X001951Y001178D01*
X001935Y001131D01*
X001916Y001085D01*
X001893Y001041D01*
X001867Y000999D01*
X001838Y000959D01*
X001805Y000921D01*
X001769Y000887D01*
X001731Y000855D01*
X001691Y000826D01*
X001648Y000801D01*
X001603Y000779D01*
X001557Y000760D01*
X001510Y000746D01*
X001461Y000735D01*
X001412Y000728D01*
X001362Y000725D01*
X001313Y000726D01*
X001263Y000731D01*
X001214Y000740D01*
X001166Y000753D01*
X001119Y000769D01*
X001074Y000789D01*
X001030Y000813D01*
X000989Y000840D01*
X000949Y000870D01*
X000912Y000904D01*
X000878Y000940D01*
X000847Y000979D01*
X000819Y001020D01*
X000795Y001063D01*
X000774Y001108D01*
X000756Y001155D01*
X000743Y001202D01*
X000733Y001251D01*
X000727Y001300D01*
X000725Y001350D01*
X005605Y005600D02*
X005607Y005654D01*
X005613Y005708D01*
X005623Y005762D01*
X005637Y005815D01*
X005654Y005866D01*
X005675Y005916D01*
X005700Y005965D01*
X005729Y006011D01*
X005760Y006055D01*
X005795Y006097D01*
X005833Y006136D01*
X005873Y006173D01*
X005917Y006206D01*
X005962Y006236D01*
X006009Y006263D01*
X006059Y006286D01*
X006109Y006305D01*
X006162Y006321D01*
X006215Y006333D01*
X006269Y006341D01*
X006323Y006345D01*
X006377Y006345D01*
X006431Y006341D01*
X006485Y006333D01*
X006538Y006321D01*
X006591Y006305D01*
X006641Y006286D01*
X006691Y006263D01*
X006738Y006236D01*
X006783Y006206D01*
X006827Y006173D01*
X006867Y006136D01*
X006905Y006097D01*
X006940Y006055D01*
X006971Y006011D01*
X007000Y005965D01*
X007025Y005916D01*
X007046Y005866D01*
X007063Y005815D01*
X007077Y005762D01*
X007087Y005708D01*
X007093Y005654D01*
X007095Y005600D01*
X007093Y005546D01*
X007087Y005492D01*
X007077Y005438D01*
X007063Y005385D01*
X007046Y005334D01*
X007025Y005284D01*
X007000Y005235D01*
X006971Y005189D01*
X006940Y005145D01*
X006905Y005103D01*
X006867Y005064D01*
X006827Y005027D01*
X006783Y004994D01*
X006738Y004964D01*
X006691Y004937D01*
X006641Y004914D01*
X006591Y004895D01*
X006538Y004879D01*
X006485Y004867D01*
X006431Y004859D01*
X006377Y004855D01*
X006323Y004855D01*
X006269Y004859D01*
X006215Y004867D01*
X006162Y004879D01*
X006109Y004895D01*
X006059Y004914D01*
X006009Y004937D01*
X005962Y004964D01*
X005917Y004994D01*
X005873Y005027D01*
X005833Y005064D01*
X005795Y005103D01*
X005760Y005145D01*
X005729Y005189D01*
X005700Y005235D01*
X005675Y005284D01*
X005654Y005334D01*
X005637Y005385D01*
X005623Y005438D01*
X005613Y005492D01*
X005607Y005546D01*
X005605Y005600D01*
X003605Y011100D02*
X003607Y011154D01*
X003613Y011208D01*
X003623Y011262D01*
X003637Y011315D01*
X003654Y011366D01*
X003675Y011416D01*
X003700Y011465D01*
X003729Y011511D01*
X003760Y011555D01*
X003795Y011597D01*
X003833Y011636D01*
X003873Y011673D01*
X003917Y011706D01*
X003962Y011736D01*
X004009Y011763D01*
X004059Y011786D01*
X004109Y011805D01*
X004162Y011821D01*
X004215Y011833D01*
X004269Y011841D01*
X004323Y011845D01*
X004377Y011845D01*
X004431Y011841D01*
X004485Y011833D01*
X004538Y011821D01*
X004591Y011805D01*
X004641Y011786D01*
X004691Y011763D01*
X004738Y011736D01*
X004783Y011706D01*
X004827Y011673D01*
X004867Y011636D01*
X004905Y011597D01*
X004940Y011555D01*
X004971Y011511D01*
X005000Y011465D01*
X005025Y011416D01*
X005046Y011366D01*
X005063Y011315D01*
X005077Y011262D01*
X005087Y011208D01*
X005093Y011154D01*
X005095Y011100D01*
X005093Y011046D01*
X005087Y010992D01*
X005077Y010938D01*
X005063Y010885D01*
X005046Y010834D01*
X005025Y010784D01*
X005000Y010735D01*
X004971Y010689D01*
X004940Y010645D01*
X004905Y010603D01*
X004867Y010564D01*
X004827Y010527D01*
X004783Y010494D01*
X004738Y010464D01*
X004691Y010437D01*
X004641Y010414D01*
X004591Y010395D01*
X004538Y010379D01*
X004485Y010367D01*
X004431Y010359D01*
X004377Y010355D01*
X004323Y010355D01*
X004269Y010359D01*
X004215Y010367D01*
X004162Y010379D01*
X004109Y010395D01*
X004059Y010414D01*
X004009Y010437D01*
X003962Y010464D01*
X003917Y010494D01*
X003873Y010527D01*
X003833Y010564D01*
X003795Y010603D01*
X003760Y010645D01*
X003729Y010689D01*
X003700Y010735D01*
X003675Y010784D01*
X003654Y010834D01*
X003637Y010885D01*
X003623Y010938D01*
X003613Y010992D01*
X003607Y011046D01*
X003605Y011100D01*
X008105Y011100D02*
X008107Y011154D01*
X008113Y011208D01*
X008123Y011262D01*
X008137Y011315D01*
X008154Y011366D01*
X008175Y011416D01*
X008200Y011465D01*
X008229Y011511D01*
X008260Y011555D01*
X008295Y011597D01*
X008333Y011636D01*
X008373Y011673D01*
X008417Y011706D01*
X008462Y011736D01*
X008509Y011763D01*
X008559Y011786D01*
X008609Y011805D01*
X008662Y011821D01*
X008715Y011833D01*
X008769Y011841D01*
X008823Y011845D01*
X008877Y011845D01*
X008931Y011841D01*
X008985Y011833D01*
X009038Y011821D01*
X009091Y011805D01*
X009141Y011786D01*
X009191Y011763D01*
X009238Y011736D01*
X009283Y011706D01*
X009327Y011673D01*
X009367Y011636D01*
X009405Y011597D01*
X009440Y011555D01*
X009471Y011511D01*
X009500Y011465D01*
X009525Y011416D01*
X009546Y011366D01*
X009563Y011315D01*
X009577Y011262D01*
X009587Y011208D01*
X009593Y011154D01*
X009595Y011100D01*
X009593Y011046D01*
X009587Y010992D01*
X009577Y010938D01*
X009563Y010885D01*
X009546Y010834D01*
X009525Y010784D01*
X009500Y010735D01*
X009471Y010689D01*
X009440Y010645D01*
X009405Y010603D01*
X009367Y010564D01*
X009327Y010527D01*
X009283Y010494D01*
X009238Y010464D01*
X009191Y010437D01*
X009141Y010414D01*
X009091Y010395D01*
X009038Y010379D01*
X008985Y010367D01*
X008931Y010359D01*
X008877Y010355D01*
X008823Y010355D01*
X008769Y010359D01*
X008715Y010367D01*
X008662Y010379D01*
X008609Y010395D01*
X008559Y010414D01*
X008509Y010437D01*
X008462Y010464D01*
X008417Y010494D01*
X008373Y010527D01*
X008333Y010564D01*
X008295Y010603D01*
X008260Y010645D01*
X008229Y010689D01*
X008200Y010735D01*
X008175Y010784D01*
X008154Y010834D01*
X008137Y010885D01*
X008123Y010938D01*
X008113Y010992D01*
X008107Y011046D01*
X008105Y011100D01*
X006409Y021502D02*
X006411Y021550D01*
X006417Y021598D01*
X006427Y021645D01*
X006440Y021691D01*
X006458Y021736D01*
X006478Y021780D01*
X006503Y021822D01*
X006531Y021861D01*
X006561Y021898D01*
X006595Y021932D01*
X006632Y021964D01*
X006670Y021993D01*
X006711Y022018D01*
X006754Y022040D01*
X006799Y022058D01*
X006845Y022072D01*
X006892Y022083D01*
X006940Y022090D01*
X006988Y022093D01*
X007036Y022092D01*
X007084Y022087D01*
X007132Y022078D01*
X007178Y022066D01*
X007223Y022049D01*
X007267Y022029D01*
X007309Y022006D01*
X007349Y021979D01*
X007387Y021949D01*
X007422Y021916D01*
X007454Y021880D01*
X007484Y021842D01*
X007510Y021801D01*
X007532Y021758D01*
X007552Y021714D01*
X007567Y021669D01*
X007579Y021622D01*
X007587Y021574D01*
X007591Y021526D01*
X007591Y021478D01*
X007587Y021430D01*
X007579Y021382D01*
X007567Y021335D01*
X007552Y021290D01*
X007532Y021246D01*
X007510Y021203D01*
X007484Y021162D01*
X007454Y021124D01*
X007422Y021088D01*
X007387Y021055D01*
X007349Y021025D01*
X007309Y020998D01*
X007267Y020975D01*
X007223Y020955D01*
X007178Y020938D01*
X007132Y020926D01*
X007084Y020917D01*
X007036Y020912D01*
X006988Y020911D01*
X006940Y020914D01*
X006892Y020921D01*
X006845Y020932D01*
X006799Y020946D01*
X006754Y020964D01*
X006711Y020986D01*
X006670Y021011D01*
X006632Y021040D01*
X006595Y021072D01*
X006561Y021106D01*
X006531Y021143D01*
X006503Y021182D01*
X006478Y021224D01*
X006458Y021268D01*
X006440Y021313D01*
X006427Y021359D01*
X006417Y021406D01*
X006411Y021454D01*
X006409Y021502D01*
X005609Y022752D02*
X005611Y022800D01*
X005617Y022848D01*
X005627Y022895D01*
X005640Y022941D01*
X005658Y022986D01*
X005678Y023030D01*
X005703Y023072D01*
X005731Y023111D01*
X005761Y023148D01*
X005795Y023182D01*
X005832Y023214D01*
X005870Y023243D01*
X005911Y023268D01*
X005954Y023290D01*
X005999Y023308D01*
X006045Y023322D01*
X006092Y023333D01*
X006140Y023340D01*
X006188Y023343D01*
X006236Y023342D01*
X006284Y023337D01*
X006332Y023328D01*
X006378Y023316D01*
X006423Y023299D01*
X006467Y023279D01*
X006509Y023256D01*
X006549Y023229D01*
X006587Y023199D01*
X006622Y023166D01*
X006654Y023130D01*
X006684Y023092D01*
X006710Y023051D01*
X006732Y023008D01*
X006752Y022964D01*
X006767Y022919D01*
X006779Y022872D01*
X006787Y022824D01*
X006791Y022776D01*
X006791Y022728D01*
X006787Y022680D01*
X006779Y022632D01*
X006767Y022585D01*
X006752Y022540D01*
X006732Y022496D01*
X006710Y022453D01*
X006684Y022412D01*
X006654Y022374D01*
X006622Y022338D01*
X006587Y022305D01*
X006549Y022275D01*
X006509Y022248D01*
X006467Y022225D01*
X006423Y022205D01*
X006378Y022188D01*
X006332Y022176D01*
X006284Y022167D01*
X006236Y022162D01*
X006188Y022161D01*
X006140Y022164D01*
X006092Y022171D01*
X006045Y022182D01*
X005999Y022196D01*
X005954Y022214D01*
X005911Y022236D01*
X005870Y022261D01*
X005832Y022290D01*
X005795Y022322D01*
X005761Y022356D01*
X005731Y022393D01*
X005703Y022432D01*
X005678Y022474D01*
X005658Y022518D01*
X005640Y022563D01*
X005627Y022609D01*
X005617Y022656D01*
X005611Y022704D01*
X005609Y022752D01*
X001909Y022752D02*
X001911Y022800D01*
X001917Y022848D01*
X001927Y022895D01*
X001940Y022941D01*
X001958Y022986D01*
X001978Y023030D01*
X002003Y023072D01*
X002031Y023111D01*
X002061Y023148D01*
X002095Y023182D01*
X002132Y023214D01*
X002170Y023243D01*
X002211Y023268D01*
X002254Y023290D01*
X002299Y023308D01*
X002345Y023322D01*
X002392Y023333D01*
X002440Y023340D01*
X002488Y023343D01*
X002536Y023342D01*
X002584Y023337D01*
X002632Y023328D01*
X002678Y023316D01*
X002723Y023299D01*
X002767Y023279D01*
X002809Y023256D01*
X002849Y023229D01*
X002887Y023199D01*
X002922Y023166D01*
X002954Y023130D01*
X002984Y023092D01*
X003010Y023051D01*
X003032Y023008D01*
X003052Y022964D01*
X003067Y022919D01*
X003079Y022872D01*
X003087Y022824D01*
X003091Y022776D01*
X003091Y022728D01*
X003087Y022680D01*
X003079Y022632D01*
X003067Y022585D01*
X003052Y022540D01*
X003032Y022496D01*
X003010Y022453D01*
X002984Y022412D01*
X002954Y022374D01*
X002922Y022338D01*
X002887Y022305D01*
X002849Y022275D01*
X002809Y022248D01*
X002767Y022225D01*
X002723Y022205D01*
X002678Y022188D01*
X002632Y022176D01*
X002584Y022167D01*
X002536Y022162D01*
X002488Y022161D01*
X002440Y022164D01*
X002392Y022171D01*
X002345Y022182D01*
X002299Y022196D01*
X002254Y022214D01*
X002211Y022236D01*
X002170Y022261D01*
X002132Y022290D01*
X002095Y022322D01*
X002061Y022356D01*
X002031Y022393D01*
X002003Y022432D01*
X001978Y022474D01*
X001958Y022518D01*
X001940Y022563D01*
X001927Y022609D01*
X001917Y022656D01*
X001911Y022704D01*
X001909Y022752D01*
X000725Y023850D02*
X000727Y023900D01*
X000733Y023949D01*
X000743Y023998D01*
X000756Y024045D01*
X000774Y024092D01*
X000795Y024137D01*
X000819Y024180D01*
X000847Y024221D01*
X000878Y024260D01*
X000912Y024296D01*
X000949Y024330D01*
X000989Y024360D01*
X001030Y024387D01*
X001074Y024411D01*
X001119Y024431D01*
X001166Y024447D01*
X001214Y024460D01*
X001263Y024469D01*
X001313Y024474D01*
X001362Y024475D01*
X001412Y024472D01*
X001461Y024465D01*
X001510Y024454D01*
X001557Y024440D01*
X001603Y024421D01*
X001648Y024399D01*
X001691Y024374D01*
X001731Y024345D01*
X001769Y024313D01*
X001805Y024279D01*
X001838Y024241D01*
X001867Y024201D01*
X001893Y024159D01*
X001916Y024115D01*
X001935Y024069D01*
X001951Y024022D01*
X001963Y023973D01*
X001971Y023924D01*
X001975Y023875D01*
X001975Y023825D01*
X001971Y023776D01*
X001963Y023727D01*
X001951Y023678D01*
X001935Y023631D01*
X001916Y023585D01*
X001893Y023541D01*
X001867Y023499D01*
X001838Y023459D01*
X001805Y023421D01*
X001769Y023387D01*
X001731Y023355D01*
X001691Y023326D01*
X001648Y023301D01*
X001603Y023279D01*
X001557Y023260D01*
X001510Y023246D01*
X001461Y023235D01*
X001412Y023228D01*
X001362Y023225D01*
X001313Y023226D01*
X001263Y023231D01*
X001214Y023240D01*
X001166Y023253D01*
X001119Y023269D01*
X001074Y023289D01*
X001030Y023313D01*
X000989Y023340D01*
X000949Y023370D01*
X000912Y023404D01*
X000878Y023440D01*
X000847Y023479D01*
X000819Y023520D01*
X000795Y023563D01*
X000774Y023608D01*
X000756Y023655D01*
X000743Y023702D01*
X000733Y023751D01*
X000727Y023800D01*
X000725Y023850D01*
X010109Y021502D02*
X010111Y021550D01*
X010117Y021598D01*
X010127Y021645D01*
X010140Y021691D01*
X010158Y021736D01*
X010178Y021780D01*
X010203Y021822D01*
X010231Y021861D01*
X010261Y021898D01*
X010295Y021932D01*
X010332Y021964D01*
X010370Y021993D01*
X010411Y022018D01*
X010454Y022040D01*
X010499Y022058D01*
X010545Y022072D01*
X010592Y022083D01*
X010640Y022090D01*
X010688Y022093D01*
X010736Y022092D01*
X010784Y022087D01*
X010832Y022078D01*
X010878Y022066D01*
X010923Y022049D01*
X010967Y022029D01*
X011009Y022006D01*
X011049Y021979D01*
X011087Y021949D01*
X011122Y021916D01*
X011154Y021880D01*
X011184Y021842D01*
X011210Y021801D01*
X011232Y021758D01*
X011252Y021714D01*
X011267Y021669D01*
X011279Y021622D01*
X011287Y021574D01*
X011291Y021526D01*
X011291Y021478D01*
X011287Y021430D01*
X011279Y021382D01*
X011267Y021335D01*
X011252Y021290D01*
X011232Y021246D01*
X011210Y021203D01*
X011184Y021162D01*
X011154Y021124D01*
X011122Y021088D01*
X011087Y021055D01*
X011049Y021025D01*
X011009Y020998D01*
X010967Y020975D01*
X010923Y020955D01*
X010878Y020938D01*
X010832Y020926D01*
X010784Y020917D01*
X010736Y020912D01*
X010688Y020911D01*
X010640Y020914D01*
X010592Y020921D01*
X010545Y020932D01*
X010499Y020946D01*
X010454Y020964D01*
X010411Y020986D01*
X010370Y021011D01*
X010332Y021040D01*
X010295Y021072D01*
X010261Y021106D01*
X010231Y021143D01*
X010203Y021182D01*
X010178Y021224D01*
X010158Y021268D01*
X010140Y021313D01*
X010127Y021359D01*
X010117Y021406D01*
X010111Y021454D01*
X010109Y021502D01*
X010909Y022752D02*
X010911Y022800D01*
X010917Y022848D01*
X010927Y022895D01*
X010940Y022941D01*
X010958Y022986D01*
X010978Y023030D01*
X011003Y023072D01*
X011031Y023111D01*
X011061Y023148D01*
X011095Y023182D01*
X011132Y023214D01*
X011170Y023243D01*
X011211Y023268D01*
X011254Y023290D01*
X011299Y023308D01*
X011345Y023322D01*
X011392Y023333D01*
X011440Y023340D01*
X011488Y023343D01*
X011536Y023342D01*
X011584Y023337D01*
X011632Y023328D01*
X011678Y023316D01*
X011723Y023299D01*
X011767Y023279D01*
X011809Y023256D01*
X011849Y023229D01*
X011887Y023199D01*
X011922Y023166D01*
X011954Y023130D01*
X011984Y023092D01*
X012010Y023051D01*
X012032Y023008D01*
X012052Y022964D01*
X012067Y022919D01*
X012079Y022872D01*
X012087Y022824D01*
X012091Y022776D01*
X012091Y022728D01*
X012087Y022680D01*
X012079Y022632D01*
X012067Y022585D01*
X012052Y022540D01*
X012032Y022496D01*
X012010Y022453D01*
X011984Y022412D01*
X011954Y022374D01*
X011922Y022338D01*
X011887Y022305D01*
X011849Y022275D01*
X011809Y022248D01*
X011767Y022225D01*
X011723Y022205D01*
X011678Y022188D01*
X011632Y022176D01*
X011584Y022167D01*
X011536Y022162D01*
X011488Y022161D01*
X011440Y022164D01*
X011392Y022171D01*
X011345Y022182D01*
X011299Y022196D01*
X011254Y022214D01*
X011211Y022236D01*
X011170Y022261D01*
X011132Y022290D01*
X011095Y022322D01*
X011061Y022356D01*
X011031Y022393D01*
X011003Y022432D01*
X010978Y022474D01*
X010958Y022518D01*
X010940Y022563D01*
X010927Y022609D01*
X010917Y022656D01*
X010911Y022704D01*
X010909Y022752D01*
X014609Y022752D02*
X014611Y022800D01*
X014617Y022848D01*
X014627Y022895D01*
X014640Y022941D01*
X014658Y022986D01*
X014678Y023030D01*
X014703Y023072D01*
X014731Y023111D01*
X014761Y023148D01*
X014795Y023182D01*
X014832Y023214D01*
X014870Y023243D01*
X014911Y023268D01*
X014954Y023290D01*
X014999Y023308D01*
X015045Y023322D01*
X015092Y023333D01*
X015140Y023340D01*
X015188Y023343D01*
X015236Y023342D01*
X015284Y023337D01*
X015332Y023328D01*
X015378Y023316D01*
X015423Y023299D01*
X015467Y023279D01*
X015509Y023256D01*
X015549Y023229D01*
X015587Y023199D01*
X015622Y023166D01*
X015654Y023130D01*
X015684Y023092D01*
X015710Y023051D01*
X015732Y023008D01*
X015752Y022964D01*
X015767Y022919D01*
X015779Y022872D01*
X015787Y022824D01*
X015791Y022776D01*
X015791Y022728D01*
X015787Y022680D01*
X015779Y022632D01*
X015767Y022585D01*
X015752Y022540D01*
X015732Y022496D01*
X015710Y022453D01*
X015684Y022412D01*
X015654Y022374D01*
X015622Y022338D01*
X015587Y022305D01*
X015549Y022275D01*
X015509Y022248D01*
X015467Y022225D01*
X015423Y022205D01*
X015378Y022188D01*
X015332Y022176D01*
X015284Y022167D01*
X015236Y022162D01*
X015188Y022161D01*
X015140Y022164D01*
X015092Y022171D01*
X015045Y022182D01*
X014999Y022196D01*
X014954Y022214D01*
X014911Y022236D01*
X014870Y022261D01*
X014832Y022290D01*
X014795Y022322D01*
X014761Y022356D01*
X014731Y022393D01*
X014703Y022432D01*
X014678Y022474D01*
X014658Y022518D01*
X014640Y022563D01*
X014627Y022609D01*
X014617Y022656D01*
X014611Y022704D01*
X014609Y022752D01*
X017975Y023850D02*
X017977Y023900D01*
X017983Y023949D01*
X017993Y023998D01*
X018006Y024045D01*
X018024Y024092D01*
X018045Y024137D01*
X018069Y024180D01*
X018097Y024221D01*
X018128Y024260D01*
X018162Y024296D01*
X018199Y024330D01*
X018239Y024360D01*
X018280Y024387D01*
X018324Y024411D01*
X018369Y024431D01*
X018416Y024447D01*
X018464Y024460D01*
X018513Y024469D01*
X018563Y024474D01*
X018612Y024475D01*
X018662Y024472D01*
X018711Y024465D01*
X018760Y024454D01*
X018807Y024440D01*
X018853Y024421D01*
X018898Y024399D01*
X018941Y024374D01*
X018981Y024345D01*
X019019Y024313D01*
X019055Y024279D01*
X019088Y024241D01*
X019117Y024201D01*
X019143Y024159D01*
X019166Y024115D01*
X019185Y024069D01*
X019201Y024022D01*
X019213Y023973D01*
X019221Y023924D01*
X019225Y023875D01*
X019225Y023825D01*
X019221Y023776D01*
X019213Y023727D01*
X019201Y023678D01*
X019185Y023631D01*
X019166Y023585D01*
X019143Y023541D01*
X019117Y023499D01*
X019088Y023459D01*
X019055Y023421D01*
X019019Y023387D01*
X018981Y023355D01*
X018941Y023326D01*
X018898Y023301D01*
X018853Y023279D01*
X018807Y023260D01*
X018760Y023246D01*
X018711Y023235D01*
X018662Y023228D01*
X018612Y023225D01*
X018563Y023226D01*
X018513Y023231D01*
X018464Y023240D01*
X018416Y023253D01*
X018369Y023269D01*
X018324Y023289D01*
X018280Y023313D01*
X018239Y023340D01*
X018199Y023370D01*
X018162Y023404D01*
X018128Y023440D01*
X018097Y023479D01*
X018069Y023520D01*
X018045Y023563D01*
X018024Y023608D01*
X018006Y023655D01*
X017993Y023702D01*
X017983Y023751D01*
X017977Y023800D01*
X017975Y023850D01*
X017975Y001350D02*
X017977Y001400D01*
X017983Y001449D01*
X017993Y001498D01*
X018006Y001545D01*
X018024Y001592D01*
X018045Y001637D01*
X018069Y001680D01*
X018097Y001721D01*
X018128Y001760D01*
X018162Y001796D01*
X018199Y001830D01*
X018239Y001860D01*
X018280Y001887D01*
X018324Y001911D01*
X018369Y001931D01*
X018416Y001947D01*
X018464Y001960D01*
X018513Y001969D01*
X018563Y001974D01*
X018612Y001975D01*
X018662Y001972D01*
X018711Y001965D01*
X018760Y001954D01*
X018807Y001940D01*
X018853Y001921D01*
X018898Y001899D01*
X018941Y001874D01*
X018981Y001845D01*
X019019Y001813D01*
X019055Y001779D01*
X019088Y001741D01*
X019117Y001701D01*
X019143Y001659D01*
X019166Y001615D01*
X019185Y001569D01*
X019201Y001522D01*
X019213Y001473D01*
X019221Y001424D01*
X019225Y001375D01*
X019225Y001325D01*
X019221Y001276D01*
X019213Y001227D01*
X019201Y001178D01*
X019185Y001131D01*
X019166Y001085D01*
X019143Y001041D01*
X019117Y000999D01*
X019088Y000959D01*
X019055Y000921D01*
X019019Y000887D01*
X018981Y000855D01*
X018941Y000826D01*
X018898Y000801D01*
X018853Y000779D01*
X018807Y000760D01*
X018760Y000746D01*
X018711Y000735D01*
X018662Y000728D01*
X018612Y000725D01*
X018563Y000726D01*
X018513Y000731D01*
X018464Y000740D01*
X018416Y000753D01*
X018369Y000769D01*
X018324Y000789D01*
X018280Y000813D01*
X018239Y000840D01*
X018199Y000870D01*
X018162Y000904D01*
X018128Y000940D01*
X018097Y000979D01*
X018069Y001020D01*
X018045Y001063D01*
X018024Y001108D01*
X018006Y001155D01*
X017993Y001202D01*
X017983Y001251D01*
X017977Y001300D01*
X017975Y001350D01*
M02*
