G75*
%MOIN*%
%OFA0B0*%
%FSLAX24Y24*%
%IPPOS*%
%LPD*%
%AMOC8*
5,1,8,0,0,1.08239X$1,22.5*
%
%ADD10C,0.1330*%
%ADD11R,0.0907X0.0907*%
%ADD12C,0.1261*%
%ADD13OC8,0.0674*%
%ADD14OC8,0.0600*%
%ADD15C,0.0600*%
%ADD16C,0.0680*%
%ADD17C,0.1570*%
%ADD18C,0.0848*%
%ADD19OC8,0.2230*%
%ADD20R,0.0476X0.0476*%
D10*
X001350Y001350D03*
X018600Y001350D03*
X018600Y023850D03*
X001350Y023850D03*
D11*
X004350Y022933D03*
X004350Y020767D03*
X008850Y021683D03*
X008850Y019517D03*
X013350Y020767D03*
X013350Y022933D03*
D12*
X011500Y022752D03*
X010700Y021502D03*
X007000Y021502D03*
X006200Y022752D03*
X002500Y022752D03*
X015200Y022752D03*
D13*
X015350Y008350D03*
D14*
X002350Y017350D03*
D15*
X004350Y017350D03*
D16*
X013050Y015100D02*
X013650Y015100D01*
X013650Y014100D02*
X013050Y014100D01*
X013050Y013100D02*
X013650Y013100D01*
D17*
X008850Y011100D03*
X004350Y011100D03*
X006350Y005600D03*
D18*
X004950Y005532D02*
X004950Y006300D01*
X004318Y009600D02*
X003550Y009600D01*
X004282Y012500D02*
X005050Y012500D01*
X008050Y009600D02*
X008818Y009600D01*
X008782Y012500D02*
X009550Y012500D01*
X007850Y005568D02*
X007850Y004800D01*
D19*
X012100Y005517D03*
X012100Y002683D03*
D20*
X007100Y016350D03*
X011850Y018100D03*
X014850Y018350D03*
M02*
