%
M48
M72
T01C0.0236
T02C0.0315
T03C0.0394
T04C0.0430
T05C0.0472
T06C0.0520
T07C0.0660
T08C0.1260
%
T01
X8800Y2813
X9300Y8013
X17800Y16313
X13300Y18813
X24800Y17313
T02
X13188Y6023
X12188Y6023
X11188Y6023
X10188Y6023
T03
X31413Y17603
X31413Y18603
T04
X28188Y22523
X28188Y23523
X28188Y14523
X28188Y13523
X29010Y5925
X30010Y5925
T05
X12688Y12523
X11688Y12523
X10688Y12523
X10688Y21523
X11688Y21523
X12688Y21523
T06
X15870Y21813
X15870Y13313
X15870Y6313
X24730Y6313
X24730Y13313
X24730Y21813
X16900Y30313
X16900Y32313
X8700Y32313
X8700Y30313
T07
X5375Y22297
X5375Y20328
X23816Y29238
X25784Y29238
T08
X1300Y1313
X1300Y33313
X33300Y33313
X33300Y1313
M30
