G75*
%MOIN*%
%OFA0B0*%
%FSLAX24Y24*%
%IPPOS*%
%LPD*%
%AMOC8*
5,1,8,0,0,1.08239X$1,22.5*
%
%ADD10C,0.0100*%
%ADD11C,0.0030*%
%ADD12R,0.0015X0.0003*%
%ADD13R,0.0013X0.0003*%
%ADD14R,0.0010X0.0003*%
%ADD15C,0.0000*%
%ADD16C,0.0060*%
%ADD17C,0.0040*%
%ADD18C,0.0020*%
%ADD19R,0.0128X0.0167*%
%ADD20R,0.0138X0.0138*%
%ADD21C,0.0050*%
%ADD22C,0.0070*%
%ADD23R,0.0450X0.0450*%
%ADD24R,0.1100X0.0250*%
%ADD25R,0.4000X0.0200*%
%ADD26R,0.0150X0.0700*%
%ADD27R,0.0350X0.2500*%
%ADD28R,0.0250X0.0450*%
%ADD29R,0.0250X0.1600*%
%ADD30R,0.1550X0.0050*%
%ADD31R,0.1900X0.0200*%
D10*
X001938Y002023D02*
X007938Y002023D01*
X007938Y013523D01*
X001938Y013523D01*
X001938Y002023D01*
X027947Y001925D02*
X027947Y000612D01*
X031073Y000612D01*
X031073Y001925D01*
X031073Y005175D01*
X027947Y005175D01*
X027947Y001925D01*
X028260Y001925D01*
X028260Y001675D01*
X028260Y001925D02*
X029010Y001925D01*
X029010Y004175D01*
X030010Y004175D01*
X030010Y001925D01*
X030760Y001925D01*
X030760Y001675D01*
X030760Y001925D02*
X031073Y001925D01*
X030760Y001675D02*
X030758Y001631D01*
X030752Y001588D01*
X030743Y001546D01*
X030730Y001504D01*
X030713Y001464D01*
X030693Y001425D01*
X030670Y001388D01*
X030643Y001354D01*
X030614Y001321D01*
X030581Y001292D01*
X030547Y001265D01*
X030510Y001242D01*
X030471Y001222D01*
X030431Y001205D01*
X030389Y001192D01*
X030347Y001183D01*
X030304Y001177D01*
X030260Y001175D01*
X028760Y001175D01*
X028716Y001177D01*
X028673Y001183D01*
X028631Y001192D01*
X028589Y001205D01*
X028549Y001222D01*
X028510Y001242D01*
X028473Y001265D01*
X028439Y001292D01*
X028406Y001321D01*
X028377Y001354D01*
X028350Y001388D01*
X028327Y001425D01*
X028307Y001464D01*
X028290Y001504D01*
X028277Y001546D01*
X028268Y001588D01*
X028262Y001631D01*
X028260Y001675D01*
X028938Y012460D02*
X032188Y012460D01*
X033500Y012460D01*
X033500Y015585D01*
X032188Y015585D01*
X028938Y015585D01*
X028938Y012460D01*
X029938Y013523D02*
X032188Y013523D01*
X032188Y012773D01*
X032438Y012773D01*
X032188Y012773D02*
X032188Y012460D01*
X032438Y012773D02*
X032482Y012775D01*
X032525Y012781D01*
X032567Y012790D01*
X032609Y012803D01*
X032649Y012820D01*
X032688Y012840D01*
X032725Y012863D01*
X032759Y012890D01*
X032792Y012919D01*
X032821Y012952D01*
X032848Y012986D01*
X032871Y013023D01*
X032891Y013062D01*
X032908Y013102D01*
X032921Y013144D01*
X032930Y013186D01*
X032936Y013229D01*
X032938Y013273D01*
X032938Y014773D01*
X032936Y014817D01*
X032930Y014860D01*
X032921Y014902D01*
X032908Y014944D01*
X032891Y014984D01*
X032871Y015023D01*
X032848Y015060D01*
X032821Y015094D01*
X032792Y015127D01*
X032759Y015156D01*
X032725Y015183D01*
X032688Y015206D01*
X032649Y015226D01*
X032609Y015243D01*
X032567Y015256D01*
X032525Y015265D01*
X032482Y015271D01*
X032438Y015273D01*
X032188Y015273D01*
X032188Y014523D01*
X029938Y014523D01*
X029938Y013523D01*
X032188Y015273D02*
X032188Y015585D01*
X031913Y017103D02*
X031913Y019103D01*
X032663Y019103D01*
X032663Y017103D01*
X031913Y017103D01*
X030163Y017103D01*
X030163Y019103D01*
X031913Y019103D01*
X032188Y021460D02*
X028938Y021460D01*
X028938Y024585D01*
X032188Y024585D01*
X032188Y024273D01*
X032438Y024273D01*
X032188Y024273D02*
X032188Y023523D01*
X029938Y023523D01*
X029938Y022523D01*
X032188Y022523D01*
X032188Y021773D01*
X032438Y021773D01*
X032188Y021773D02*
X032188Y021460D01*
X033500Y021460D01*
X033500Y024585D01*
X032188Y024585D01*
X032438Y024273D02*
X032482Y024271D01*
X032525Y024265D01*
X032567Y024256D01*
X032609Y024243D01*
X032649Y024226D01*
X032688Y024206D01*
X032725Y024183D01*
X032759Y024156D01*
X032792Y024127D01*
X032821Y024094D01*
X032848Y024060D01*
X032871Y024023D01*
X032891Y023984D01*
X032908Y023944D01*
X032921Y023902D01*
X032930Y023860D01*
X032936Y023817D01*
X032938Y023773D01*
X032938Y022273D01*
X032936Y022229D01*
X032930Y022186D01*
X032921Y022144D01*
X032908Y022102D01*
X032891Y022062D01*
X032871Y022023D01*
X032848Y021986D01*
X032821Y021952D01*
X032792Y021919D01*
X032759Y021890D01*
X032725Y021863D01*
X032688Y021840D01*
X032649Y021820D01*
X032609Y021803D01*
X032567Y021790D01*
X032525Y021781D01*
X032482Y021775D01*
X032438Y021773D01*
D11*
X032525Y019698D02*
X032525Y019636D01*
X032648Y019513D01*
X032648Y019328D01*
X032648Y019513D02*
X032772Y019636D01*
X032772Y019698D01*
X032403Y019636D02*
X032403Y019513D01*
X032342Y019451D01*
X032157Y019451D01*
X032280Y019451D02*
X032403Y019328D01*
X032157Y019328D02*
X032157Y019698D01*
X032342Y019698D01*
X032403Y019636D01*
X032035Y019698D02*
X031788Y019698D01*
X031788Y019328D01*
X032035Y019328D01*
X031912Y019513D02*
X031788Y019513D01*
X031667Y019698D02*
X031420Y019698D01*
X031299Y019698D02*
X031052Y019698D01*
X031175Y019698D02*
X031175Y019328D01*
X030930Y019328D02*
X030930Y019574D01*
X030807Y019698D01*
X030683Y019574D01*
X030683Y019328D01*
X030562Y019389D02*
X030500Y019328D01*
X030315Y019328D01*
X030315Y019698D01*
X030500Y019698D01*
X030562Y019636D01*
X030562Y019574D01*
X030500Y019513D01*
X030315Y019513D01*
X030500Y019513D02*
X030562Y019451D01*
X030562Y019389D01*
X030683Y019513D02*
X030930Y019513D01*
X031543Y019328D02*
X031543Y019698D01*
X007233Y014034D02*
X007048Y014034D01*
X006986Y013973D01*
X007048Y013911D01*
X007171Y013911D01*
X007233Y013849D01*
X007171Y013788D01*
X006986Y013788D01*
X006864Y014034D02*
X006803Y014034D01*
X006679Y013911D01*
X006679Y013788D02*
X006679Y014034D01*
X006558Y013973D02*
X006496Y014034D01*
X006373Y014034D01*
X006311Y013973D01*
X006311Y013849D01*
X006373Y013788D01*
X006496Y013788D01*
X006558Y013849D01*
X006558Y013973D01*
X006189Y014034D02*
X006065Y014034D01*
X006127Y014096D02*
X006127Y013849D01*
X006189Y013788D01*
X005944Y013788D02*
X005759Y013788D01*
X005697Y013849D01*
X005759Y013911D01*
X005944Y013911D01*
X005944Y013973D02*
X005944Y013788D01*
X005944Y013973D02*
X005882Y014034D01*
X005759Y014034D01*
X005576Y014034D02*
X005390Y014034D01*
X005329Y013973D01*
X005329Y013849D01*
X005390Y013788D01*
X005576Y013788D01*
X005207Y013788D02*
X005083Y013788D01*
X005145Y013788D02*
X005145Y014034D01*
X005083Y014034D01*
X004962Y014034D02*
X004777Y014034D01*
X004715Y013973D01*
X004715Y013849D01*
X004777Y013788D01*
X004962Y013788D01*
X004962Y014158D01*
X005145Y014158D02*
X005145Y014220D01*
X004593Y013973D02*
X004593Y013788D01*
X004593Y013973D02*
X004532Y014034D01*
X004347Y014034D01*
X004347Y013788D01*
X004224Y013788D02*
X004101Y013788D01*
X004163Y013788D02*
X004163Y014158D01*
X004224Y014158D02*
X004101Y014158D01*
X003611Y014034D02*
X003549Y014034D01*
X003426Y013911D01*
X003304Y013911D02*
X003057Y013911D01*
X003057Y013973D02*
X003119Y014034D01*
X003243Y014034D01*
X003304Y013973D01*
X003304Y013911D01*
X003243Y013788D02*
X003119Y013788D01*
X003057Y013849D01*
X003057Y013973D01*
X002936Y014034D02*
X002936Y013849D01*
X002874Y013788D01*
X002813Y013849D01*
X002751Y013788D01*
X002689Y013849D01*
X002689Y014034D01*
X002568Y013973D02*
X002506Y014034D01*
X002383Y014034D01*
X002321Y013973D01*
X002321Y013849D01*
X002383Y013788D01*
X002506Y013788D01*
X002568Y013849D01*
X002568Y013973D01*
X002199Y013973D02*
X002138Y013911D01*
X001953Y013911D01*
X001953Y013788D02*
X001953Y014158D01*
X002138Y014158D01*
X002199Y014096D01*
X002199Y013973D01*
X003426Y014034D02*
X003426Y013788D01*
D12*
X003424Y000320D03*
X003424Y000318D03*
X003424Y000315D03*
X003424Y000313D03*
D13*
X003423Y000323D03*
D14*
X003424Y000325D03*
D15*
X000303Y000305D02*
X000300Y000300D01*
X000305Y000301D02*
X000305Y000300D01*
X000307Y000300D01*
X000308Y000301D01*
X000308Y000305D01*
X000310Y000303D02*
X000313Y000303D01*
X000314Y000303D02*
X000315Y000303D01*
X000316Y000303D01*
X000317Y000303D01*
X000317Y000302D01*
X000314Y000302D01*
X000314Y000301D02*
X000314Y000303D01*
X000314Y000301D02*
X000315Y000300D01*
X000316Y000300D01*
X000318Y000300D02*
X000318Y000303D01*
X000318Y000302D02*
X000320Y000303D01*
X000321Y000303D01*
X000322Y000303D02*
X000323Y000303D01*
X000326Y000303D01*
X000325Y000302D02*
X000323Y000302D01*
X000322Y000303D01*
X000322Y000300D02*
X000325Y000300D01*
X000326Y000301D01*
X000325Y000302D01*
X000327Y000300D02*
X000330Y000305D01*
X000332Y000303D02*
X000334Y000303D01*
X000335Y000303D01*
X000335Y000300D01*
X000332Y000300D01*
X000331Y000301D01*
X000332Y000302D01*
X000335Y000302D01*
X000336Y000300D02*
X000338Y000300D01*
X000337Y000300D02*
X000337Y000305D01*
X000336Y000305D01*
X000339Y000303D02*
X000340Y000303D01*
X000342Y000303D01*
X000342Y000303D01*
X000342Y000302D01*
X000339Y000302D01*
X000339Y000301D02*
X000339Y000303D01*
X000339Y000301D02*
X000340Y000300D01*
X000342Y000300D01*
X000344Y000300D02*
X000347Y000303D01*
X000344Y000303D02*
X000347Y000300D01*
X000348Y000300D02*
X000352Y000305D01*
X000353Y000305D02*
X000355Y000305D01*
X000356Y000304D01*
X000356Y000301D01*
X000355Y000300D01*
X000353Y000300D01*
X000353Y000305D01*
X000358Y000303D02*
X000358Y000303D01*
X000360Y000303D01*
X000361Y000303D01*
X000361Y000302D01*
X000358Y000302D01*
X000358Y000301D02*
X000358Y000303D01*
X000358Y000301D02*
X000358Y000300D01*
X000360Y000300D01*
X000362Y000300D02*
X000365Y000300D01*
X000365Y000301D01*
X000365Y000302D01*
X000363Y000302D01*
X000362Y000303D01*
X000363Y000303D01*
X000365Y000303D01*
X000367Y000302D02*
X000369Y000303D01*
X000371Y000303D02*
X000372Y000303D01*
X000371Y000304D02*
X000371Y000301D01*
X000372Y000300D01*
X000374Y000301D02*
X000374Y000300D01*
X000376Y000300D01*
X000377Y000301D01*
X000377Y000303D01*
X000376Y000303D01*
X000374Y000303D01*
X000374Y000303D01*
X000374Y000301D01*
X000378Y000300D02*
X000381Y000300D01*
X000382Y000301D01*
X000382Y000303D01*
X000381Y000303D01*
X000378Y000303D01*
X000378Y000298D01*
X000383Y000300D02*
X000386Y000305D01*
X000387Y000305D02*
X000391Y000305D01*
X000389Y000305D02*
X000389Y000300D01*
X000392Y000301D02*
X000392Y000303D01*
X000393Y000303D01*
X000395Y000303D01*
X000395Y000303D01*
X000395Y000302D01*
X000392Y000302D01*
X000392Y000301D02*
X000393Y000300D01*
X000395Y000300D01*
X000397Y000301D02*
X000398Y000302D01*
X000400Y000302D01*
X000400Y000303D02*
X000400Y000300D01*
X000398Y000300D01*
X000397Y000301D01*
X000398Y000303D02*
X000399Y000303D01*
X000400Y000303D01*
X000401Y000303D02*
X000402Y000303D01*
X000403Y000303D01*
X000404Y000303D01*
X000405Y000303D01*
X000405Y000300D01*
X000406Y000300D02*
X000409Y000300D01*
X000410Y000299D02*
X000414Y000299D01*
X000417Y000300D02*
X000417Y000305D01*
X000418Y000305D02*
X000415Y000305D01*
X000421Y000303D02*
X000422Y000303D01*
X000423Y000303D01*
X000423Y000300D01*
X000421Y000300D01*
X000420Y000301D01*
X000421Y000302D01*
X000423Y000302D01*
X000424Y000303D02*
X000425Y000303D01*
X000428Y000303D01*
X000429Y000302D02*
X000431Y000303D01*
X000433Y000303D02*
X000434Y000305D01*
X000434Y000300D01*
X000433Y000300D02*
X000436Y000300D01*
X000437Y000301D02*
X000441Y000304D01*
X000441Y000301D01*
X000440Y000300D01*
X000438Y000300D01*
X000437Y000301D01*
X000437Y000304D01*
X000438Y000305D01*
X000440Y000305D01*
X000441Y000304D01*
X000442Y000300D02*
X000445Y000305D01*
X000447Y000303D02*
X000449Y000303D01*
X000450Y000303D01*
X000450Y000302D01*
X000447Y000302D01*
X000447Y000303D02*
X000447Y000303D01*
X000447Y000301D01*
X000447Y000300D01*
X000449Y000300D01*
X000451Y000300D02*
X000451Y000303D01*
X000452Y000303D01*
X000453Y000303D01*
X000454Y000303D01*
X000454Y000303D01*
X000454Y000300D01*
X000453Y000300D02*
X000453Y000303D01*
X000456Y000303D02*
X000456Y000301D01*
X000457Y000300D01*
X000459Y000300D01*
X000459Y000303D01*
X000460Y000301D02*
X000461Y000301D01*
X000461Y000300D01*
X000460Y000300D01*
X000460Y000301D01*
X000463Y000300D02*
X000465Y000300D01*
X000466Y000301D01*
X000466Y000303D01*
X000465Y000303D01*
X000463Y000303D01*
X000463Y000305D02*
X000463Y000300D01*
X000467Y000300D02*
X000467Y000303D01*
X000468Y000303D01*
X000469Y000303D01*
X000470Y000303D01*
X000471Y000303D01*
X000471Y000300D01*
X000472Y000300D02*
X000474Y000300D01*
X000475Y000301D01*
X000475Y000303D01*
X000474Y000303D01*
X000472Y000303D01*
X000472Y000298D01*
X000469Y000300D02*
X000469Y000303D01*
X000431Y000300D02*
X000429Y000302D01*
X000428Y000301D02*
X000427Y000302D01*
X000425Y000302D01*
X000424Y000303D01*
X000424Y000300D02*
X000427Y000300D01*
X000428Y000301D01*
X000429Y000300D02*
X000429Y000305D01*
X000409Y000305D02*
X000406Y000305D01*
X000406Y000300D01*
X000406Y000303D02*
X000408Y000303D01*
X000403Y000303D02*
X000403Y000300D01*
X000401Y000300D02*
X000401Y000303D01*
X000369Y000300D02*
X000367Y000302D01*
X000367Y000300D02*
X000367Y000305D01*
X000313Y000301D02*
X000312Y000302D01*
X000310Y000302D01*
X000309Y000303D01*
X000310Y000303D01*
X000309Y000300D02*
X000312Y000300D01*
X000313Y000301D01*
X000305Y000305D02*
X000305Y000301D01*
D16*
X015350Y004763D02*
X015350Y005663D01*
X015800Y005513D02*
X015800Y004863D01*
X016050Y004863D01*
X018050Y004863D01*
X018050Y005313D01*
X016050Y005313D01*
X016050Y005063D01*
X015900Y005063D01*
X015900Y005513D01*
X016050Y005063D02*
X016050Y004863D01*
X015350Y004763D02*
X025250Y004763D01*
X025250Y005663D01*
X024550Y005313D02*
X024550Y004863D01*
X022550Y004863D01*
X022550Y005313D01*
X024550Y005313D01*
X025250Y006963D02*
X025250Y007863D01*
X015350Y007863D01*
X015350Y006963D01*
X016050Y007313D02*
X016050Y007763D01*
X018050Y007763D01*
X018050Y007313D01*
X016050Y007313D01*
X015350Y011763D02*
X015350Y012663D01*
X015800Y012513D02*
X015800Y011863D01*
X016050Y011863D01*
X018050Y011863D01*
X018050Y012313D01*
X016050Y012313D01*
X016050Y012063D01*
X015900Y012063D01*
X015900Y012513D01*
X016050Y012063D02*
X016050Y011863D01*
X015350Y011763D02*
X025250Y011763D01*
X025250Y012663D01*
X024550Y012313D02*
X024550Y011863D01*
X022550Y011863D01*
X022550Y012313D01*
X024550Y012313D01*
X025250Y013963D02*
X025250Y014863D01*
X015350Y014863D01*
X015350Y013963D01*
X016050Y014313D02*
X016050Y014763D01*
X018050Y014763D01*
X018050Y014313D01*
X016050Y014313D01*
X015350Y020263D02*
X015350Y021163D01*
X015800Y021013D02*
X015800Y020363D01*
X016050Y020363D01*
X018050Y020363D01*
X018050Y020813D01*
X016050Y020813D01*
X016050Y020563D01*
X015900Y020563D01*
X015900Y021013D01*
X016050Y020563D02*
X016050Y020363D01*
X015350Y020263D02*
X025250Y020263D01*
X025250Y021163D01*
X024550Y020813D02*
X024550Y020363D01*
X022550Y020363D01*
X022550Y020813D01*
X024550Y020813D01*
X025250Y022463D02*
X025250Y023363D01*
X015350Y023363D01*
X015350Y022463D01*
X016050Y022813D02*
X016050Y023263D01*
X018050Y023263D01*
X018050Y022813D01*
X016050Y022813D01*
X022550Y022813D02*
X022550Y023263D01*
X024550Y023263D01*
X024800Y023263D01*
X024800Y022613D01*
X024700Y022613D02*
X024700Y023063D01*
X024550Y023063D01*
X024550Y022813D01*
X022550Y022813D01*
X024550Y023063D02*
X024550Y023263D01*
X031079Y026843D02*
X031079Y027270D01*
X031079Y027056D02*
X031720Y027056D01*
X032129Y026949D02*
X032236Y026843D01*
X032343Y026843D01*
X032450Y026949D01*
X032450Y027163D01*
X032556Y027270D01*
X032663Y027270D01*
X032770Y027163D01*
X032770Y026949D01*
X032663Y026843D01*
X032129Y026949D02*
X032129Y027163D01*
X032236Y027270D01*
X032663Y027487D02*
X032663Y027594D01*
X032770Y027594D01*
X032770Y027487D01*
X032663Y027487D01*
X031720Y027594D02*
X031613Y027487D01*
X031400Y027487D01*
X031293Y027594D01*
X031293Y027807D01*
X031400Y027914D01*
X031506Y027914D01*
X031506Y027487D01*
X031720Y027594D02*
X031720Y027807D01*
X031613Y028132D02*
X031506Y028238D01*
X031506Y028559D01*
X031400Y028559D02*
X031720Y028559D01*
X031720Y028238D01*
X031613Y028132D01*
X031293Y028238D02*
X031293Y028452D01*
X031400Y028559D01*
X031293Y028776D02*
X031293Y028883D01*
X031400Y028990D01*
X031293Y029096D01*
X031400Y029203D01*
X031720Y029203D01*
X031720Y028990D02*
X031400Y028990D01*
X031293Y028776D02*
X031720Y028776D01*
X032129Y028667D02*
X032343Y028881D01*
X032770Y028881D01*
X032770Y029098D02*
X032663Y029098D01*
X032663Y029205D01*
X032770Y029205D01*
X032770Y029098D01*
X032450Y028881D02*
X032450Y028454D01*
X032343Y028454D02*
X032129Y028667D01*
X032343Y028454D02*
X032770Y028454D01*
X032770Y030065D02*
X032343Y030065D01*
X032129Y030279D01*
X032343Y030492D01*
X032770Y030492D01*
X032770Y030710D02*
X032663Y030710D01*
X032663Y030817D01*
X032770Y030817D01*
X032770Y030710D01*
X032450Y030492D02*
X032450Y030065D01*
X031720Y030065D02*
X031720Y030492D01*
X031400Y030279D02*
X031400Y030065D01*
X031720Y030065D02*
X031079Y030065D01*
X031079Y030492D01*
X031400Y031354D02*
X031400Y031781D01*
X032129Y031783D02*
X032236Y031677D01*
X032343Y031677D01*
X032450Y031783D01*
X032450Y031997D01*
X032556Y032104D01*
X032663Y032104D01*
X032770Y031997D01*
X032770Y031783D01*
X032663Y031677D01*
X032129Y031783D02*
X032129Y031997D01*
X032236Y032104D01*
X032663Y032321D02*
X032663Y032428D01*
X032770Y032428D01*
X032770Y032321D01*
X032663Y032321D01*
X031720Y032750D02*
X031613Y032643D01*
X031720Y032750D02*
X031720Y032964D01*
X031613Y033070D01*
X031506Y033070D01*
X031400Y032964D01*
X031400Y032750D01*
X031293Y032643D01*
X031186Y032643D01*
X031079Y032750D01*
X031079Y032964D01*
X031186Y033070D01*
X031186Y033288D02*
X031613Y033288D01*
X031720Y033395D01*
X031720Y033608D01*
X031613Y033715D01*
X031506Y033933D02*
X031506Y034253D01*
X031400Y034360D01*
X031186Y034360D01*
X031079Y034253D01*
X031079Y033933D01*
X031720Y033933D01*
X031506Y034146D02*
X031720Y034360D01*
X031186Y033715D02*
X031079Y033608D01*
X031079Y033395D01*
X031186Y033288D01*
X019800Y032763D02*
X019800Y032313D01*
X019800Y030313D01*
X019800Y029863D01*
X017600Y029863D01*
X017400Y029863D01*
X017600Y029863D02*
X017600Y030763D01*
X017400Y030763D01*
X017600Y030313D02*
X019800Y030313D01*
X019800Y032313D02*
X017600Y032313D01*
X017600Y031863D02*
X017600Y032763D01*
X017400Y032763D01*
X017600Y032763D02*
X019800Y032763D01*
X017600Y031863D02*
X017400Y031863D01*
X016200Y032313D02*
X015150Y032313D01*
X015150Y032763D01*
X016400Y032763D01*
X014800Y032463D02*
X010800Y032463D01*
X010450Y032313D02*
X009400Y032313D01*
X009200Y032763D02*
X010450Y032763D01*
X010450Y032313D01*
X010450Y030313D02*
X009400Y030313D01*
X009200Y029863D02*
X010450Y029863D01*
X010450Y030313D01*
X008200Y030763D02*
X008000Y030763D01*
X008000Y029863D01*
X008200Y029863D01*
X008000Y029863D02*
X005800Y029863D01*
X005800Y030313D01*
X005800Y032313D01*
X005800Y032763D01*
X008000Y032763D01*
X008200Y032763D01*
X008000Y032763D02*
X008000Y031863D01*
X008200Y031863D01*
X008000Y032313D02*
X005800Y032313D01*
X005800Y030313D02*
X008000Y030313D01*
X015150Y030313D02*
X015150Y029863D01*
X016400Y029863D01*
X016200Y030313D02*
X015150Y030313D01*
X022550Y014763D02*
X022550Y014313D01*
X024550Y014313D01*
X024550Y014563D01*
X024700Y014563D01*
X024700Y014113D01*
X024800Y014113D02*
X024800Y014763D01*
X024550Y014763D01*
X022550Y014763D01*
X024550Y014763D02*
X024550Y014563D01*
X024550Y007763D02*
X022550Y007763D01*
X022550Y007313D01*
X024550Y007313D01*
X024550Y007563D01*
X024700Y007563D01*
X024700Y007113D01*
X024800Y007113D02*
X024800Y007763D01*
X024550Y007763D01*
X024550Y007563D01*
D17*
X031280Y004947D02*
X031400Y005067D01*
X031640Y005067D01*
X031460Y005067D02*
X031460Y004827D01*
X031400Y004827D02*
X031280Y004947D01*
X031400Y004827D02*
X031640Y004827D01*
X031640Y004699D02*
X031520Y004578D01*
X031520Y004639D02*
X031520Y004458D01*
X031640Y004458D02*
X031280Y004458D01*
X031280Y004639D01*
X031340Y004699D01*
X031460Y004699D01*
X031520Y004639D01*
X031640Y004330D02*
X031640Y004090D01*
X031280Y004090D01*
X031280Y004330D01*
X031460Y004210D02*
X031460Y004090D01*
X031280Y003962D02*
X031640Y003962D01*
X031640Y003722D02*
X031280Y003722D01*
X031400Y003842D01*
X031280Y003962D01*
X031400Y003594D02*
X031280Y003474D01*
X031400Y003353D01*
X031640Y003353D01*
X031580Y003225D02*
X031640Y003165D01*
X031640Y003045D01*
X031580Y002985D01*
X031340Y002985D01*
X031280Y003045D01*
X031280Y003165D01*
X031340Y003225D01*
X031460Y003353D02*
X031460Y003594D01*
X031400Y003594D02*
X031640Y003594D01*
X029874Y015793D02*
X029934Y015853D01*
X029934Y016153D01*
X029694Y016153D02*
X029694Y015853D01*
X029754Y015793D01*
X029874Y015793D01*
X029566Y015973D02*
X029506Y015913D01*
X029326Y015913D01*
X029326Y015793D02*
X029326Y016153D01*
X029506Y016153D01*
X029566Y016093D01*
X029566Y015973D01*
X029198Y016093D02*
X029138Y016153D01*
X029018Y016153D01*
X028958Y016093D01*
X028958Y015853D01*
X029018Y015793D01*
X029138Y015793D01*
X029198Y015853D01*
X032932Y017095D02*
X032992Y017035D01*
X033232Y017035D01*
X033293Y017095D01*
X033293Y017216D01*
X033232Y017276D01*
X033172Y017404D02*
X033172Y017584D01*
X033112Y017644D01*
X032992Y017644D01*
X032932Y017584D01*
X032932Y017404D01*
X033293Y017404D01*
X032992Y017276D02*
X032932Y017216D01*
X032932Y017095D01*
X032932Y017772D02*
X033232Y017772D01*
X033293Y017832D01*
X033293Y017952D01*
X033232Y018012D01*
X032932Y018012D01*
X033353Y018140D02*
X033353Y018381D01*
X033293Y018509D02*
X033293Y018629D01*
X033293Y018569D02*
X032932Y018569D01*
X032932Y018509D02*
X032932Y018629D01*
X032992Y018754D02*
X033232Y018754D01*
X033293Y018814D01*
X033293Y018934D01*
X033232Y018994D01*
X032992Y018994D01*
X032932Y018934D01*
X032932Y018814D01*
X032992Y018754D01*
X032886Y024793D02*
X032886Y025153D01*
X033066Y025153D01*
X033126Y025093D01*
X033126Y024973D01*
X033066Y024913D01*
X032886Y024913D01*
X033006Y024913D02*
X033126Y024793D01*
X033255Y024853D02*
X033315Y024793D01*
X033435Y024793D01*
X033495Y024853D01*
X033495Y024913D01*
X033435Y024973D01*
X033315Y024973D01*
X033255Y025033D01*
X033255Y025093D01*
X033315Y025153D01*
X033435Y025153D01*
X033495Y025093D01*
X032758Y025093D02*
X032698Y025153D01*
X032578Y025153D01*
X032518Y025093D01*
X032518Y024853D01*
X032578Y024793D01*
X032698Y024793D01*
X032758Y024853D01*
X032758Y025093D01*
X032390Y025093D02*
X032330Y025153D01*
X032210Y025153D01*
X032150Y025093D01*
X032150Y025033D01*
X032210Y024973D01*
X032330Y024973D01*
X032390Y024913D01*
X032390Y024853D01*
X032330Y024793D01*
X032210Y024793D01*
X032150Y024853D01*
X032021Y024793D02*
X032021Y025153D01*
X031781Y025153D02*
X031781Y024793D01*
X031653Y024793D02*
X031413Y024793D01*
X031413Y025153D01*
X031653Y025153D01*
X031781Y025153D02*
X032021Y024793D01*
X031533Y024973D02*
X031413Y024973D01*
X031285Y024913D02*
X031285Y024853D01*
X031225Y024793D01*
X031105Y024793D01*
X031045Y024853D01*
X031105Y024973D02*
X031225Y024973D01*
X031285Y024913D01*
X031285Y025093D02*
X031225Y025153D01*
X031105Y025153D01*
X031045Y025093D01*
X031045Y025033D01*
X031105Y024973D01*
X030917Y025153D02*
X030676Y024793D01*
X030548Y024853D02*
X030548Y025093D01*
X030488Y025153D01*
X030368Y025153D01*
X030308Y025093D01*
X030308Y024853D01*
X030368Y024793D01*
X030488Y024793D01*
X030548Y024853D01*
X030180Y024793D02*
X030060Y024913D01*
X030120Y024913D02*
X029940Y024913D01*
X029940Y024793D02*
X029940Y025153D01*
X030120Y025153D01*
X030180Y025093D01*
X030180Y024973D01*
X030120Y024913D01*
X029812Y024853D02*
X029752Y024793D01*
X029631Y024793D01*
X029571Y024853D01*
X029571Y025093D01*
X029631Y025153D01*
X029752Y025153D01*
X029812Y025093D01*
X029446Y025153D02*
X029326Y025153D01*
X029386Y025153D02*
X029386Y024793D01*
X029326Y024793D02*
X029446Y024793D01*
X029198Y024793D02*
X029198Y025153D01*
X029078Y025033D01*
X028958Y025153D01*
X028958Y024793D01*
X027167Y027833D02*
X027013Y027986D01*
X027090Y027986D02*
X026860Y027986D01*
X026860Y027833D02*
X026860Y028293D01*
X027090Y028293D01*
X027167Y028216D01*
X027167Y028063D01*
X027090Y027986D01*
X026706Y027833D02*
X026399Y027833D01*
X026399Y028293D01*
X026706Y028293D01*
X026553Y028063D02*
X026399Y028063D01*
X026246Y027986D02*
X026246Y028293D01*
X026246Y027986D02*
X026092Y027833D01*
X025939Y027986D01*
X025939Y028293D01*
X025785Y028293D02*
X025632Y028293D01*
X025709Y028293D02*
X025709Y027833D01*
X025785Y027833D02*
X025632Y027833D01*
X025478Y027833D02*
X025325Y027986D01*
X025402Y027986D02*
X025171Y027986D01*
X025171Y027833D02*
X025171Y028293D01*
X025402Y028293D01*
X025478Y028216D01*
X025478Y028063D01*
X025402Y027986D01*
X025018Y027909D02*
X024941Y027833D01*
X024711Y027833D01*
X024711Y028293D01*
X024941Y028293D01*
X025018Y028216D01*
X025018Y027909D01*
X024558Y027756D02*
X024251Y027756D01*
X024097Y027833D02*
X023944Y027986D01*
X024021Y027986D02*
X023790Y027986D01*
X023790Y027833D02*
X023790Y028293D01*
X024021Y028293D01*
X024097Y028216D01*
X024097Y028063D01*
X024021Y027986D01*
X023637Y027909D02*
X023560Y027833D01*
X023407Y027833D01*
X023330Y027909D01*
X023330Y028216D01*
X023407Y028293D01*
X023560Y028293D01*
X023637Y028216D01*
X023637Y027909D01*
X023176Y028293D02*
X022870Y028293D01*
X023023Y028293D02*
X023023Y027833D01*
X022716Y027909D02*
X022716Y028216D01*
X022639Y028293D01*
X022486Y028293D01*
X022409Y028216D01*
X022409Y027909D01*
X022486Y027833D01*
X022639Y027833D01*
X022716Y027909D01*
X022256Y027833D02*
X022256Y028293D01*
X022102Y028139D01*
X021949Y028293D01*
X021949Y027833D01*
X013544Y022926D02*
X013467Y023003D01*
X013314Y023003D01*
X013237Y022926D01*
X013237Y022619D01*
X013314Y022543D01*
X013467Y022543D01*
X013544Y022619D01*
X013544Y022773D01*
X013391Y022773D01*
X013084Y023003D02*
X012777Y023003D01*
X012777Y022543D01*
X013084Y022543D01*
X012930Y022773D02*
X012777Y022773D01*
X012623Y022773D02*
X012547Y022696D01*
X012316Y022696D01*
X012316Y022543D02*
X012316Y023003D01*
X012547Y023003D01*
X012623Y022926D01*
X012623Y022773D01*
X012470Y022696D02*
X012623Y022543D01*
X012163Y022466D02*
X011856Y022466D01*
X011703Y022619D02*
X011703Y022926D01*
X011626Y023003D01*
X011472Y023003D01*
X011396Y022926D01*
X011396Y022619D01*
X011472Y022543D01*
X011626Y022543D01*
X011703Y022619D01*
X011242Y022543D02*
X011089Y022696D01*
X011165Y022696D02*
X010935Y022696D01*
X010935Y022543D02*
X010935Y023003D01*
X011165Y023003D01*
X011242Y022926D01*
X011242Y022773D01*
X011165Y022696D01*
X010782Y022619D02*
X010705Y022543D01*
X010552Y022543D01*
X010475Y022619D01*
X010475Y022926D01*
X010552Y023003D01*
X010705Y023003D01*
X010782Y022926D01*
X010321Y023003D02*
X010168Y023003D01*
X010245Y023003D02*
X010245Y022543D01*
X010321Y022543D02*
X010168Y022543D01*
X010014Y022543D02*
X010014Y023003D01*
X009861Y022849D01*
X009708Y023003D01*
X009708Y022543D01*
X006780Y022451D02*
X006780Y022758D01*
X006780Y022912D02*
X006320Y022912D01*
X006320Y023142D01*
X006396Y023219D01*
X006550Y023219D01*
X006627Y023142D01*
X006627Y022912D01*
X006627Y023065D02*
X006780Y023219D01*
X006780Y023526D02*
X006550Y023526D01*
X006396Y023679D01*
X006320Y023679D01*
X006550Y023526D02*
X006396Y023372D01*
X006320Y023372D01*
X006320Y022758D02*
X006320Y022451D01*
X006780Y022451D01*
X006550Y022451D02*
X006550Y022605D01*
X006320Y022298D02*
X006320Y021991D01*
X006320Y022144D02*
X006780Y022144D01*
X006780Y021684D02*
X006320Y021684D01*
X006320Y021531D02*
X006320Y021837D01*
X006473Y021377D02*
X006780Y021377D01*
X006550Y021377D02*
X006550Y021070D01*
X006473Y021070D02*
X006780Y021070D01*
X006703Y020917D02*
X006780Y020840D01*
X006780Y020610D01*
X006320Y020610D01*
X006320Y020840D01*
X006396Y020917D01*
X006473Y020917D01*
X006550Y020840D01*
X006550Y020610D01*
X006550Y020840D02*
X006627Y020917D01*
X006703Y020917D01*
X006473Y021070D02*
X006320Y021224D01*
X006473Y021377D01*
X010284Y014003D02*
X010208Y013926D01*
X010208Y013619D01*
X010284Y013543D01*
X010438Y013543D01*
X010514Y013619D01*
X010668Y013543D02*
X010668Y014003D01*
X010898Y014003D01*
X010975Y013926D01*
X010975Y013773D01*
X010898Y013696D01*
X010668Y013696D01*
X010514Y013926D02*
X010438Y014003D01*
X010284Y014003D01*
X011128Y014003D02*
X011128Y013619D01*
X011205Y013543D01*
X011358Y013543D01*
X011435Y013619D01*
X011435Y014003D01*
X011589Y013466D02*
X011896Y013466D01*
X012049Y013543D02*
X012049Y014003D01*
X012279Y014003D01*
X012356Y013926D01*
X012356Y013773D01*
X012279Y013696D01*
X012049Y013696D01*
X012203Y013696D02*
X012356Y013543D01*
X012509Y013543D02*
X012509Y014003D01*
X012816Y014003D01*
X012970Y013926D02*
X012970Y013619D01*
X013047Y013543D01*
X013200Y013543D01*
X013277Y013619D01*
X013277Y013773D01*
X013123Y013773D01*
X012970Y013926D02*
X013047Y014003D01*
X013200Y014003D01*
X013277Y013926D01*
X012816Y013543D02*
X012509Y013543D01*
X012509Y013773D02*
X012663Y013773D01*
X012930Y008003D02*
X013160Y008003D01*
X013237Y007926D01*
X013237Y007773D01*
X013160Y007696D01*
X012930Y007696D01*
X012930Y007543D02*
X012930Y008003D01*
X013084Y007696D02*
X013237Y007543D01*
X013391Y007543D02*
X013698Y007543D01*
X013851Y007619D02*
X013928Y007543D01*
X014081Y007543D01*
X014158Y007619D01*
X014158Y007773D01*
X014004Y007773D01*
X013851Y007926D02*
X013851Y007619D01*
X013851Y007926D02*
X013928Y008003D01*
X014081Y008003D01*
X014158Y007926D01*
X013698Y008003D02*
X013391Y008003D01*
X013391Y007543D01*
X013391Y007773D02*
X013544Y007773D01*
X012777Y007466D02*
X012470Y007466D01*
X012316Y007543D02*
X012316Y007849D01*
X012163Y008003D01*
X012009Y007849D01*
X012009Y007543D01*
X011856Y007543D02*
X011703Y007696D01*
X011779Y007696D02*
X011549Y007696D01*
X011549Y007543D02*
X011549Y008003D01*
X011779Y008003D01*
X011856Y007926D01*
X011856Y007773D01*
X011779Y007696D01*
X012009Y007773D02*
X012316Y007773D01*
X011396Y008003D02*
X011089Y008003D01*
X011089Y007543D01*
X011396Y007543D01*
X011242Y007773D02*
X011089Y007773D01*
X010935Y008003D02*
X010935Y007543D01*
X010628Y007543D02*
X010628Y008003D01*
X010782Y007849D01*
X010935Y008003D01*
X010475Y007849D02*
X010475Y007543D01*
X010475Y007773D02*
X010168Y007773D01*
X010168Y007849D02*
X010321Y008003D01*
X010475Y007849D01*
X010168Y007849D02*
X010168Y007543D01*
X010014Y007619D02*
X009938Y007543D01*
X009784Y007543D01*
X009708Y007619D01*
X009708Y007926D01*
X009784Y008003D01*
X009938Y008003D01*
X010014Y007926D01*
X005668Y009043D02*
X005207Y009043D01*
X005361Y009196D01*
X005207Y009349D01*
X005668Y009349D01*
X005668Y009503D02*
X005668Y009656D01*
X005668Y009580D02*
X005207Y009580D01*
X005207Y009656D02*
X005207Y009503D01*
X005284Y009810D02*
X005591Y009810D01*
X005668Y009887D01*
X005668Y010040D01*
X005591Y010117D01*
X005668Y010270D02*
X005207Y010270D01*
X005207Y010500D01*
X005284Y010577D01*
X005437Y010577D01*
X005514Y010500D01*
X005514Y010270D01*
X005514Y010424D02*
X005668Y010577D01*
X005591Y010731D02*
X005284Y010731D01*
X005207Y010807D01*
X005207Y010961D01*
X005284Y011038D01*
X005591Y011038D01*
X005668Y010961D01*
X005668Y010807D01*
X005591Y010731D01*
X005744Y011191D02*
X005744Y011498D01*
X005668Y011651D02*
X005668Y011958D01*
X005668Y012112D02*
X005207Y012112D01*
X005207Y012419D01*
X005207Y012572D02*
X005207Y012802D01*
X005284Y012879D01*
X005591Y012879D01*
X005668Y012802D01*
X005668Y012572D01*
X005207Y012572D01*
X005437Y012265D02*
X005437Y012112D01*
X005668Y012112D02*
X005668Y012419D01*
X005668Y011651D02*
X005207Y011651D01*
X005284Y010117D02*
X005207Y010040D01*
X005207Y009887D01*
X005284Y009810D01*
X003168Y009733D02*
X003168Y009580D01*
X003091Y009503D01*
X002784Y009503D01*
X002707Y009580D01*
X002707Y009733D01*
X002784Y009810D01*
X003091Y009810D01*
X003168Y009733D01*
X003168Y009349D02*
X002707Y009349D01*
X002861Y009196D01*
X002707Y009043D01*
X003168Y009043D01*
X002707Y009963D02*
X002707Y010270D01*
X002707Y010117D02*
X003168Y010117D01*
X003091Y010424D02*
X003168Y010500D01*
X003168Y010654D01*
X003091Y010731D01*
X002784Y010731D01*
X002707Y010654D01*
X002707Y010500D01*
X002784Y010424D01*
X003091Y010424D01*
X003168Y010884D02*
X002707Y010884D01*
X002707Y011114D01*
X002784Y011191D01*
X002937Y011191D01*
X003014Y011114D01*
X003014Y010884D01*
X003014Y011038D02*
X003168Y011191D01*
X003244Y011344D02*
X003244Y011651D01*
X003168Y011805D02*
X003168Y012112D01*
X003168Y012265D02*
X003168Y012572D01*
X003168Y012726D02*
X003168Y012956D01*
X003091Y013033D01*
X002784Y013033D01*
X002707Y012956D01*
X002707Y012726D01*
X003168Y012726D01*
X002937Y012419D02*
X002937Y012265D01*
X002707Y012265D02*
X002707Y012572D01*
X002707Y012265D02*
X003168Y012265D01*
X003168Y011805D02*
X002707Y011805D01*
X002784Y007493D02*
X002707Y007416D01*
X002707Y007186D01*
X003168Y007186D01*
X003168Y007416D01*
X003091Y007493D01*
X002784Y007493D01*
X002707Y007033D02*
X002707Y006726D01*
X003168Y006726D01*
X003168Y007033D01*
X002937Y006879D02*
X002937Y006726D01*
X003168Y006572D02*
X003168Y006265D01*
X002707Y006265D01*
X003244Y006112D02*
X003244Y005805D01*
X003168Y005651D02*
X002861Y005651D01*
X002707Y005498D01*
X002861Y005344D01*
X003168Y005344D01*
X003168Y005191D02*
X003014Y005038D01*
X003014Y005114D02*
X003014Y004884D01*
X003168Y004884D02*
X002707Y004884D01*
X002707Y005114D01*
X002784Y005191D01*
X002937Y005191D01*
X003014Y005114D01*
X002937Y005344D02*
X002937Y005651D01*
X002707Y004731D02*
X002707Y004424D01*
X003168Y004424D01*
X003168Y004731D01*
X002937Y004577D02*
X002937Y004424D01*
X002707Y004270D02*
X002861Y004117D01*
X002707Y003963D01*
X003168Y003963D01*
X003168Y003810D02*
X002861Y003810D01*
X002707Y003656D01*
X002861Y003503D01*
X003168Y003503D01*
X003091Y003349D02*
X003168Y003273D01*
X003168Y003119D01*
X003091Y003043D01*
X002784Y003043D01*
X002707Y003119D01*
X002707Y003273D01*
X002784Y003349D01*
X002937Y003503D02*
X002937Y003810D01*
X002707Y004270D02*
X003168Y004270D01*
X005207Y004270D02*
X005591Y004270D01*
X005668Y004193D01*
X005668Y004040D01*
X005591Y003963D01*
X005207Y003963D01*
X005284Y003810D02*
X005437Y003810D01*
X005514Y003733D01*
X005514Y003503D01*
X005668Y003503D02*
X005207Y003503D01*
X005207Y003733D01*
X005284Y003810D01*
X005744Y004424D02*
X005744Y004731D01*
X005668Y004884D02*
X005207Y004884D01*
X005207Y005344D02*
X005668Y005344D01*
X005668Y005651D01*
X005668Y005805D02*
X005668Y006035D01*
X005591Y006112D01*
X005284Y006112D01*
X005207Y006035D01*
X005207Y005805D01*
X005668Y005805D01*
X005437Y005498D02*
X005437Y005344D01*
X005207Y005344D02*
X005207Y005651D01*
X005668Y005191D02*
X005668Y004884D01*
X005591Y003349D02*
X005668Y003273D01*
X005668Y003119D01*
X005591Y003043D01*
X005284Y003043D01*
X005207Y003119D01*
X005207Y003273D01*
X005284Y003349D01*
X010610Y003294D02*
X011070Y003294D01*
X010610Y002987D01*
X011070Y002987D01*
X011070Y002834D02*
X011070Y002680D01*
X011070Y002757D02*
X010610Y002757D01*
X010610Y002680D02*
X010610Y002834D01*
X010686Y002527D02*
X010610Y002450D01*
X010610Y002297D01*
X010686Y002220D01*
X010993Y002220D01*
X011070Y002297D01*
X011070Y002450D01*
X010993Y002527D01*
X015932Y002660D02*
X015932Y002813D01*
X016009Y002890D01*
X016316Y002583D01*
X016393Y002660D01*
X016393Y002813D01*
X016316Y002890D01*
X016009Y002890D01*
X015932Y002660D02*
X016009Y002583D01*
X016316Y002583D01*
X016316Y002429D02*
X016393Y002353D01*
X016393Y002199D01*
X016316Y002123D01*
X016009Y002123D01*
X015932Y002199D01*
X015932Y002353D01*
X016009Y002429D01*
D18*
X018300Y005163D02*
X022300Y005163D01*
X022350Y006313D02*
X018250Y006313D01*
X018300Y007463D02*
X022300Y007463D01*
X022300Y012163D02*
X018300Y012163D01*
X018250Y013313D02*
X022350Y013313D01*
X022300Y014463D02*
X018300Y014463D01*
X018300Y020663D02*
X022300Y020663D01*
X022350Y021813D02*
X018250Y021813D01*
X018300Y022963D02*
X022300Y022963D01*
X014800Y030163D02*
X010800Y030163D01*
X010800Y031313D02*
X014800Y031313D01*
X032750Y024335D02*
X033500Y024148D01*
X033500Y024523D01*
X032750Y024335D01*
X032787Y024326D02*
X033500Y024326D01*
X033500Y024344D02*
X032787Y024344D01*
X032861Y024363D02*
X033500Y024363D01*
X033500Y024381D02*
X032935Y024381D01*
X033009Y024400D02*
X033500Y024400D01*
X033500Y024418D02*
X033083Y024418D01*
X033157Y024437D02*
X033500Y024437D01*
X033500Y024455D02*
X033231Y024455D01*
X033305Y024474D02*
X033500Y024474D01*
X033500Y024492D02*
X033379Y024492D01*
X033453Y024511D02*
X033500Y024511D01*
X033500Y024307D02*
X032861Y024307D01*
X032935Y024289D02*
X033500Y024289D01*
X033500Y024270D02*
X033009Y024270D01*
X033083Y024252D02*
X033500Y024252D01*
X033500Y024233D02*
X033157Y024233D01*
X033231Y024215D02*
X033500Y024215D01*
X033500Y024196D02*
X033305Y024196D01*
X033379Y024178D02*
X033500Y024178D01*
X033500Y024159D02*
X033453Y024159D01*
X033500Y015523D02*
X033500Y015148D01*
X032750Y015335D01*
X033500Y015523D01*
X033500Y015520D02*
X033489Y015520D01*
X033500Y015501D02*
X033415Y015501D01*
X033341Y015483D02*
X033500Y015483D01*
X033500Y015464D02*
X033267Y015464D01*
X033193Y015446D02*
X033500Y015446D01*
X033500Y015427D02*
X033119Y015427D01*
X033045Y015409D02*
X033500Y015409D01*
X033500Y015390D02*
X032971Y015390D01*
X032897Y015372D02*
X033500Y015372D01*
X033500Y015353D02*
X032823Y015353D01*
X032825Y015316D02*
X033500Y015316D01*
X033500Y015298D02*
X032899Y015298D01*
X032973Y015279D02*
X033500Y015279D01*
X033500Y015261D02*
X033047Y015261D01*
X033121Y015242D02*
X033500Y015242D01*
X033500Y015224D02*
X033195Y015224D01*
X033269Y015205D02*
X033500Y015205D01*
X033500Y015187D02*
X033343Y015187D01*
X033417Y015168D02*
X033500Y015168D01*
X033500Y015150D02*
X033491Y015150D01*
X033500Y015335D02*
X032751Y015335D01*
X030823Y001362D02*
X030635Y000612D01*
X031010Y000612D01*
X030823Y001362D01*
X030819Y001349D02*
X030826Y001349D01*
X030831Y001330D02*
X030814Y001330D01*
X030810Y001312D02*
X030835Y001312D01*
X030840Y001293D02*
X030805Y001293D01*
X030801Y001275D02*
X030845Y001275D01*
X030849Y001256D02*
X030796Y001256D01*
X030791Y001238D02*
X030854Y001238D01*
X030858Y001219D02*
X030787Y001219D01*
X030782Y001201D02*
X030863Y001201D01*
X030868Y001182D02*
X030777Y001182D01*
X030773Y001164D02*
X030872Y001164D01*
X030877Y001145D02*
X030768Y001145D01*
X030764Y001127D02*
X030881Y001127D01*
X030886Y001108D02*
X030759Y001108D01*
X030754Y001090D02*
X030891Y001090D01*
X030895Y001071D02*
X030750Y001071D01*
X030745Y001053D02*
X030900Y001053D01*
X030905Y001034D02*
X030740Y001034D01*
X030736Y001016D02*
X030909Y001016D01*
X030914Y000997D02*
X030731Y000997D01*
X030727Y000979D02*
X030918Y000979D01*
X030923Y000960D02*
X030722Y000960D01*
X030717Y000942D02*
X030928Y000942D01*
X030932Y000923D02*
X030713Y000923D01*
X030708Y000905D02*
X030937Y000905D01*
X030942Y000886D02*
X030703Y000886D01*
X030699Y000868D02*
X030946Y000868D01*
X030951Y000849D02*
X030694Y000849D01*
X030690Y000831D02*
X030955Y000831D01*
X030960Y000812D02*
X030685Y000812D01*
X030680Y000794D02*
X030965Y000794D01*
X030969Y000775D02*
X030676Y000775D01*
X030671Y000757D02*
X030974Y000757D01*
X030979Y000738D02*
X030666Y000738D01*
X030662Y000720D02*
X030983Y000720D01*
X030988Y000701D02*
X030657Y000701D01*
X030653Y000683D02*
X030992Y000683D01*
X030997Y000664D02*
X030648Y000664D01*
X030643Y000646D02*
X031002Y000646D01*
X031006Y000627D02*
X030639Y000627D01*
D19*
X006458Y003744D03*
X005917Y003744D03*
X003958Y003744D03*
X003417Y003744D03*
X003417Y009744D03*
X003958Y009744D03*
X005917Y009744D03*
X006458Y009744D03*
D20*
X006188Y009591D03*
X003688Y009591D03*
X003688Y003591D03*
X006188Y003591D03*
D21*
X009758Y005471D02*
X009680Y006023D01*
X009794Y007243D01*
X013581Y007243D01*
X013695Y006023D01*
X013617Y005471D01*
X009758Y005471D01*
X009688Y011698D02*
X009688Y013348D01*
X013688Y013348D01*
X013688Y011698D01*
X009688Y011698D01*
X008685Y016763D02*
X006915Y016763D01*
X006915Y017863D01*
X008680Y017863D01*
X008680Y017853D01*
X008685Y017863D02*
X008685Y016763D01*
X008300Y016763D02*
X008300Y017863D01*
X006162Y018950D02*
X006162Y023675D01*
X001438Y023675D01*
X001438Y018950D01*
X006162Y018950D01*
X009688Y020698D02*
X009688Y022348D01*
X013688Y022348D01*
X013688Y020698D01*
X009688Y020698D01*
X022438Y028450D02*
X027162Y028450D01*
X027162Y033175D01*
X022438Y033175D01*
X022438Y028450D01*
D22*
X022757Y024178D02*
X023177Y024178D01*
X023401Y024178D02*
X023401Y023653D01*
X023506Y023548D01*
X023717Y023548D01*
X023822Y023653D01*
X023822Y024178D01*
X024046Y024073D02*
X024046Y023968D01*
X024151Y023863D01*
X024361Y023863D01*
X024466Y023758D01*
X024466Y023653D01*
X024361Y023548D01*
X024151Y023548D01*
X024046Y023653D01*
X024046Y024073D02*
X024151Y024178D01*
X024361Y024178D01*
X024466Y024073D01*
X024690Y024178D02*
X024690Y023548D01*
X025111Y023548D01*
X024901Y023863D02*
X024690Y023863D01*
X024690Y024178D02*
X025111Y024178D01*
X022967Y023863D02*
X022757Y023863D01*
X022757Y023548D02*
X022757Y024178D01*
X022533Y023442D02*
X022112Y023442D01*
X021888Y023653D02*
X021888Y024073D01*
X021783Y024178D01*
X021573Y024178D01*
X021468Y024073D01*
X021468Y023653D01*
X021573Y023548D01*
X021783Y023548D01*
X021888Y023653D01*
X021244Y023548D02*
X021033Y023758D01*
X021138Y023758D02*
X020823Y023758D01*
X020823Y023548D02*
X020823Y024178D01*
X021138Y024178D01*
X021244Y024073D01*
X021244Y023863D01*
X021138Y023758D01*
X020599Y023653D02*
X020494Y023548D01*
X020284Y023548D01*
X020179Y023653D01*
X020179Y024073D01*
X020284Y024178D01*
X020494Y024178D01*
X020599Y024073D01*
X019959Y024178D02*
X019749Y024178D01*
X019854Y024178D02*
X019854Y023548D01*
X019749Y023548D02*
X019959Y023548D01*
X019525Y023548D02*
X019525Y024178D01*
X019315Y023968D01*
X019104Y024178D01*
X019104Y023548D01*
X020284Y015678D02*
X020179Y015573D01*
X020179Y015153D01*
X020284Y015048D01*
X020494Y015048D01*
X020599Y015153D01*
X020823Y015258D02*
X021138Y015258D01*
X021244Y015363D01*
X021244Y015573D01*
X021138Y015678D01*
X020823Y015678D01*
X020823Y015048D01*
X020599Y015573D02*
X020494Y015678D01*
X020284Y015678D01*
X021468Y015678D02*
X021468Y015153D01*
X021573Y015048D01*
X021783Y015048D01*
X021888Y015153D01*
X021888Y015678D01*
X022112Y014942D02*
X022533Y014942D01*
X022757Y015048D02*
X022757Y015678D01*
X023177Y015678D01*
X023401Y015678D02*
X023401Y015153D01*
X023506Y015048D01*
X023717Y015048D01*
X023822Y015153D01*
X023822Y015678D01*
X024046Y015573D02*
X024046Y015468D01*
X024151Y015363D01*
X024361Y015363D01*
X024466Y015258D01*
X024466Y015153D01*
X024361Y015048D01*
X024151Y015048D01*
X024046Y015153D01*
X024046Y015573D02*
X024151Y015678D01*
X024361Y015678D01*
X024466Y015573D01*
X024690Y015678D02*
X024690Y015048D01*
X025111Y015048D01*
X024901Y015363D02*
X024690Y015363D01*
X024690Y015678D02*
X025111Y015678D01*
X022967Y015363D02*
X022757Y015363D01*
X022757Y008678D02*
X023177Y008678D01*
X023401Y008678D02*
X023401Y008153D01*
X023506Y008048D01*
X023717Y008048D01*
X023822Y008153D01*
X023822Y008678D01*
X024046Y008573D02*
X024046Y008468D01*
X024151Y008363D01*
X024361Y008363D01*
X024466Y008258D01*
X024466Y008153D01*
X024361Y008048D01*
X024151Y008048D01*
X024046Y008153D01*
X024046Y008573D02*
X024151Y008678D01*
X024361Y008678D01*
X024466Y008573D01*
X024690Y008678D02*
X024690Y008048D01*
X025111Y008048D01*
X024901Y008363D02*
X024690Y008363D01*
X024690Y008678D02*
X025111Y008678D01*
X022967Y008363D02*
X022757Y008363D01*
X022757Y008048D02*
X022757Y008678D01*
X022533Y007942D02*
X022112Y007942D01*
X021888Y008048D02*
X021888Y008468D01*
X021678Y008678D01*
X021468Y008468D01*
X021468Y008048D01*
X021243Y008048D02*
X021033Y008258D01*
X021138Y008258D02*
X020823Y008258D01*
X020823Y008048D02*
X020823Y008678D01*
X021138Y008678D01*
X021243Y008573D01*
X021243Y008363D01*
X021138Y008258D01*
X021468Y008363D02*
X021888Y008363D01*
X020599Y008678D02*
X020179Y008678D01*
X020179Y008048D01*
X020599Y008048D01*
X020389Y008363D02*
X020179Y008363D01*
X019954Y008678D02*
X019954Y008048D01*
X019744Y008468D02*
X019954Y008678D01*
X019744Y008468D02*
X019534Y008678D01*
X019534Y008048D01*
X019310Y008048D02*
X019310Y008468D01*
X019100Y008678D01*
X018889Y008468D01*
X018889Y008048D01*
X018665Y008153D02*
X018560Y008048D01*
X018350Y008048D01*
X018245Y008153D01*
X018245Y008573D01*
X018350Y008678D01*
X018560Y008678D01*
X018665Y008573D01*
X018889Y008363D02*
X019310Y008363D01*
X017556Y032598D02*
X017136Y032598D01*
X017136Y033228D01*
X017556Y033228D01*
X017346Y032913D02*
X017136Y032913D01*
X016912Y032808D02*
X016912Y032703D01*
X016807Y032598D01*
X016596Y032598D01*
X016491Y032703D01*
X016267Y032703D02*
X016267Y033228D01*
X016491Y033123D02*
X016491Y033018D01*
X016596Y032913D01*
X016807Y032913D01*
X016912Y032808D01*
X016912Y033123D02*
X016807Y033228D01*
X016596Y033228D01*
X016491Y033123D01*
X016267Y032703D02*
X016162Y032598D01*
X015952Y032598D01*
X015847Y032703D01*
X015847Y033228D01*
X015623Y033228D02*
X015202Y033228D01*
X015202Y032598D01*
X014978Y032492D02*
X014558Y032492D01*
X014334Y032598D02*
X014123Y032808D01*
X014228Y032808D02*
X013913Y032808D01*
X013913Y032598D02*
X013913Y033228D01*
X014228Y033228D01*
X014334Y033123D01*
X014334Y032913D01*
X014228Y032808D01*
X013689Y032703D02*
X013584Y032598D01*
X013374Y032598D01*
X013269Y032703D01*
X013269Y033123D01*
X013374Y033228D01*
X013584Y033228D01*
X013689Y033123D01*
X013689Y032703D01*
X013044Y033228D02*
X012624Y033228D01*
X012834Y033228D02*
X012834Y032598D01*
X012400Y032703D02*
X012400Y033123D01*
X012295Y033228D01*
X012085Y033228D01*
X011980Y033123D01*
X011980Y032703D01*
X012085Y032598D01*
X012295Y032598D01*
X012400Y032703D01*
X011755Y032598D02*
X011755Y033228D01*
X011545Y033018D01*
X011335Y033228D01*
X011335Y032598D01*
X015202Y032913D02*
X015412Y032913D01*
D23*
X019575Y032088D03*
X019575Y030538D03*
X006025Y030538D03*
X006025Y032088D03*
D24*
X010000Y032188D03*
X010000Y030438D03*
X015600Y030438D03*
X015600Y032188D03*
D25*
X012800Y032063D03*
X012800Y032063D03*
X012800Y030563D03*
X012800Y030563D03*
X020300Y022763D03*
X020300Y020863D03*
X020300Y014263D03*
X020300Y012363D03*
X020300Y007263D03*
X020300Y005363D03*
D26*
X016725Y031313D03*
X008875Y031313D03*
D27*
X010625Y031313D03*
X014975Y031313D03*
D28*
X018175Y022838D03*
X018175Y020788D03*
X022425Y020788D03*
X022425Y022838D03*
X022425Y014338D03*
X022425Y012288D03*
X018175Y012288D03*
X018175Y014338D03*
X018175Y007338D03*
X018175Y005288D03*
X022425Y005288D03*
X022425Y007338D03*
D29*
X022425Y006313D03*
X018175Y006313D03*
X018175Y013313D03*
X022425Y013313D03*
X022425Y021813D03*
X018175Y021813D03*
D30*
X017275Y022588D03*
X017275Y021038D03*
X023325Y021038D03*
X023325Y022588D03*
X023325Y014088D03*
X023325Y012538D03*
X023325Y007088D03*
X023325Y005538D03*
X017275Y005538D03*
X017275Y007088D03*
X017275Y012538D03*
X017275Y014088D03*
D31*
X017100Y014213D03*
X017100Y012413D03*
X017100Y007213D03*
X017100Y005413D03*
X023500Y005413D03*
X023500Y007213D03*
X023500Y012413D03*
X023500Y014213D03*
X023500Y020913D03*
X023500Y022713D03*
X017100Y022713D03*
X017100Y020913D03*
M02*
