G75*
%MOIN*%
%OFA0B0*%
%FSLAX24Y24*%
%IPPOS*%
%LPD*%
%AMOC8*
5,1,8,0,0,1.08239X$1,22.5*
%
%ADD10C,0.0645*%
%ADD11OC8,0.0709*%
%ADD12OC8,0.0515*%
%ADD13C,0.0594*%
%ADD14C,0.1000*%
%ADD15R,0.0990X0.0990*%
%ADD16C,0.0500*%
%ADD17R,0.0396X0.0396*%
%ADD18C,0.0700*%
%ADD19C,0.1500*%
%ADD20C,0.2000*%
D10*
X027865Y013523D02*
X028510Y013523D01*
X028510Y014523D02*
X027865Y014523D01*
X027865Y022523D02*
X028510Y022523D01*
X028510Y023523D02*
X027865Y023523D01*
X029010Y006248D02*
X029010Y005603D01*
X030010Y005603D02*
X030010Y006248D01*
D11*
X012688Y012523D03*
X011688Y012523D03*
X010688Y012523D03*
X010688Y021523D03*
X011688Y021523D03*
X012688Y021523D03*
D12*
X013188Y006023D03*
X012188Y006023D03*
X011188Y006023D03*
X010188Y006023D03*
D13*
X031116Y017603D02*
X031709Y017603D01*
X031709Y018603D02*
X031116Y018603D01*
D14*
X024730Y021313D02*
X024730Y022313D01*
X024730Y013813D02*
X024730Y012813D01*
X024730Y006813D02*
X024730Y005813D01*
X015870Y005813D02*
X015870Y006813D01*
X015870Y012813D02*
X015870Y013813D01*
X015870Y021313D02*
X015870Y022313D01*
X016400Y030313D02*
X017400Y030313D01*
X017400Y032313D02*
X016400Y032313D01*
X009200Y032313D02*
X008200Y032313D01*
X008200Y030313D02*
X009200Y030313D01*
D15*
X005375Y022297D03*
X005375Y020328D03*
X023816Y029238D03*
X025784Y029238D03*
D16*
X015300Y018813D02*
X013300Y018813D01*
X015300Y018813D02*
X017800Y016313D01*
X015870Y013313D02*
X015080Y012523D01*
X012688Y012523D01*
X009300Y008013D02*
X009300Y003313D01*
X008800Y002813D01*
X011898Y005313D02*
X011188Y006023D01*
X011898Y005313D02*
X012800Y005313D01*
X013188Y005700D01*
X013188Y006023D01*
X015580Y006023D01*
X015870Y006313D01*
X024730Y006313D02*
X026230Y007813D01*
X028800Y007813D01*
X030010Y006603D01*
X030010Y005925D01*
X028188Y013523D02*
X027590Y013523D01*
D17*
X008800Y002813D03*
X009300Y008013D03*
X017800Y016313D03*
X013300Y018813D03*
X024800Y017313D03*
D18*
X024800Y016313D01*
X027590Y013523D01*
X028188Y022523D02*
X026590Y022523D01*
X023800Y025313D01*
X023800Y029313D01*
X023816Y029238D02*
X023816Y030183D01*
X023816Y029238D01*
X023816Y029238D01*
X024761Y029238D01*
X024761Y029768D01*
X024750Y029838D01*
X024728Y029905D01*
X024696Y029969D01*
X024654Y030026D01*
X024604Y030076D01*
X024547Y030118D01*
X024483Y030150D01*
X024416Y030172D01*
X024346Y030183D01*
X023816Y030183D01*
X023285Y030183D01*
X023215Y030172D01*
X023148Y030150D01*
X023085Y030118D01*
X023028Y030076D01*
X022978Y030026D01*
X022936Y029969D01*
X022904Y029905D01*
X022882Y029838D01*
X022871Y029768D01*
X022871Y029238D01*
X023816Y029238D01*
X023816Y029238D01*
X024761Y029238D01*
X024761Y028707D01*
X024750Y028637D01*
X024728Y028570D01*
X024696Y028507D01*
X024654Y028450D01*
X024604Y028399D01*
X024547Y028358D01*
X024483Y028326D01*
X024416Y028304D01*
X024346Y028293D01*
X023816Y028293D01*
X023816Y029238D01*
X023816Y029238D01*
X023816Y029238D01*
X022871Y029238D01*
X022871Y028707D01*
X022882Y028637D01*
X022904Y028570D01*
X022936Y028507D01*
X022978Y028450D01*
X023028Y028399D01*
X023085Y028358D01*
X023148Y028326D01*
X023215Y028304D01*
X023285Y028293D01*
X023816Y028293D01*
X023816Y029238D01*
X023816Y028951D02*
X023816Y028951D01*
X023816Y029650D02*
X023816Y029650D01*
X024761Y029650D02*
X024789Y029650D01*
X024789Y029832D02*
X024789Y028643D01*
X024800Y028617D01*
X024800Y025813D01*
X008300Y025813D01*
X008300Y018813D01*
X001800Y018813D01*
X001800Y028813D01*
X021800Y028813D01*
X021800Y031313D01*
X024800Y031313D01*
X024800Y029858D01*
X024789Y029832D01*
X024800Y030348D02*
X021800Y030348D01*
X021800Y029650D02*
X022871Y029650D01*
X022871Y028951D02*
X021800Y028951D01*
X021800Y031047D02*
X024800Y031047D01*
X024761Y028951D02*
X024789Y028951D01*
X024800Y028253D02*
X001800Y028253D01*
X001800Y027554D02*
X024800Y027554D01*
X024800Y026856D02*
X001800Y026856D01*
X001800Y026157D02*
X024800Y026157D01*
X015870Y021813D02*
X012978Y021813D01*
X012688Y021523D01*
X011688Y021523D02*
X011688Y022925D01*
X010300Y024313D01*
X008300Y024062D02*
X001800Y024062D01*
X001800Y024760D02*
X008300Y024760D01*
X008300Y025459D02*
X001800Y025459D01*
X001800Y023363D02*
X008300Y023363D01*
X008300Y022665D02*
X006370Y022665D01*
X006370Y022891D02*
X006294Y023075D01*
X006153Y023216D01*
X005969Y023292D01*
X004780Y023292D01*
X004597Y023216D01*
X004456Y023075D01*
X004380Y022891D01*
X004380Y021702D01*
X004456Y021519D01*
X004597Y021378D01*
X004780Y021302D01*
X005969Y021302D01*
X006153Y021378D01*
X006294Y021519D01*
X006370Y021702D01*
X006370Y022891D01*
X006370Y021966D02*
X008300Y021966D01*
X008300Y022313D02*
X006316Y020328D01*
X006320Y020328D02*
X006320Y019798D01*
X006309Y019728D01*
X006287Y019661D01*
X006255Y019597D01*
X006213Y019540D01*
X006163Y019490D01*
X006106Y019448D01*
X006043Y019416D01*
X005975Y019394D01*
X005905Y019383D01*
X005375Y019383D01*
X005375Y020328D01*
X005375Y020328D01*
X005375Y020328D01*
X006320Y020328D01*
X006320Y020859D01*
X006309Y020929D01*
X006287Y020996D01*
X006255Y021059D01*
X006213Y021116D01*
X006163Y021166D01*
X006106Y021208D01*
X006043Y021240D01*
X005975Y021262D01*
X005905Y021273D01*
X005375Y021273D01*
X005375Y020328D01*
X005375Y019383D01*
X004844Y019383D01*
X004774Y019394D01*
X004707Y019416D01*
X004644Y019448D01*
X004587Y019490D01*
X004537Y019540D01*
X004495Y019597D01*
X004463Y019661D01*
X004441Y019728D01*
X004430Y019798D01*
X004430Y020328D01*
X005375Y020328D01*
X006320Y020328D01*
X006320Y020569D02*
X008300Y020569D01*
X008300Y019871D02*
X006320Y019871D01*
X005375Y019871D02*
X005375Y019871D01*
X005375Y020328D02*
X005375Y020328D01*
X005375Y020328D01*
X004430Y020328D01*
X004430Y020859D01*
X004441Y020929D01*
X004463Y020996D01*
X004495Y021059D01*
X004537Y021116D01*
X004587Y021166D01*
X004644Y021208D01*
X004707Y021240D01*
X004774Y021262D01*
X004844Y021273D01*
X005375Y021273D01*
X005375Y020328D01*
X005375Y020569D02*
X005375Y020569D01*
X005375Y021268D02*
X005375Y021268D01*
X005941Y021268D02*
X008300Y021268D01*
X008300Y019172D02*
X001800Y019172D01*
X001800Y019871D02*
X004430Y019871D01*
X004430Y020569D02*
X001800Y020569D01*
X001800Y021268D02*
X004808Y021268D01*
X004380Y021966D02*
X001800Y021966D01*
X001800Y022665D02*
X004380Y022665D01*
X010688Y021523D02*
X010688Y012523D01*
X010188Y012023D01*
X010188Y006023D01*
X011688Y012523D02*
X011688Y021523D01*
D19*
X014300Y028313D02*
X022891Y028313D01*
D20*
X014300Y028313D02*
X010300Y024313D01*
X006316Y020328D01*
M02*
