G75*
%MOIN*%
%OFA0B0*%
%FSLAX24Y24*%
%IPPOS*%
%LPD*%
%AMOC8*
5,1,8,0,0,1.08239X$1,22.5*
%
%ADD10C,0.1340*%
%ADD11C,0.0725*%
%ADD12OC8,0.0789*%
%ADD13OC8,0.0595*%
%ADD14C,0.0674*%
%ADD15C,0.1080*%
%ADD16R,0.1070X0.1070*%
%ADD17R,0.0476X0.0476*%
D10*
X001300Y001313D03*
X001300Y033313D03*
X033300Y033313D03*
X033300Y001313D03*
D11*
X030010Y005603D02*
X030010Y006248D01*
X029010Y006248D02*
X029010Y005603D01*
X028510Y013523D02*
X027865Y013523D01*
X027865Y014523D02*
X028510Y014523D01*
X028510Y022523D02*
X027865Y022523D01*
X027865Y023523D02*
X028510Y023523D01*
D12*
X012688Y021523D03*
X011688Y021523D03*
X010688Y021523D03*
X010688Y012523D03*
X011688Y012523D03*
X012688Y012523D03*
D13*
X013188Y006023D03*
X012188Y006023D03*
X011188Y006023D03*
X010188Y006023D03*
D14*
X031116Y017603D02*
X031709Y017603D01*
X031709Y018603D02*
X031116Y018603D01*
D15*
X024730Y021313D02*
X024730Y022313D01*
X024730Y013813D02*
X024730Y012813D01*
X024730Y006813D02*
X024730Y005813D01*
X015870Y005813D02*
X015870Y006813D01*
X015870Y012813D02*
X015870Y013813D01*
X015870Y021313D02*
X015870Y022313D01*
X016400Y030313D02*
X017400Y030313D01*
X017400Y032313D02*
X016400Y032313D01*
X009200Y032313D02*
X008200Y032313D01*
X008200Y030313D02*
X009200Y030313D01*
D16*
X005375Y022297D03*
X005375Y020328D03*
X023816Y029238D03*
X025784Y029238D03*
D17*
X024800Y017313D03*
X017800Y016313D03*
X013300Y018813D03*
X009300Y008013D03*
X008800Y002813D03*
M02*
