G75*
%MOIN*%
%OFA0B0*%
%FSLAX24Y24*%
%IPPOS*%
%LPD*%
%AMOC8*
5,1,8,0,0,1.08239X$1,22.5*
%
%ADD10C,0.0000*%
%ADD11C,0.0645*%
%ADD12R,0.0591X0.0591*%
%ADD13R,0.0787X0.0630*%
%ADD14OC8,0.0709*%
%ADD15OC8,0.0515*%
%ADD16R,0.0709X0.0630*%
%ADD17C,0.0594*%
%ADD18C,0.1000*%
%ADD19R,0.0900X0.0800*%
%ADD20R,0.0990X0.0990*%
%ADD21C,0.0500*%
%ADD22C,0.0320*%
%ADD23C,0.0700*%
%ADD24R,0.0396X0.0396*%
%ADD25C,0.0560*%
%ADD26C,0.0860*%
D10*
X000300Y000313D02*
X000300Y034313D01*
X034300Y034313D01*
X034300Y000313D01*
X000300Y000313D01*
X000670Y001313D02*
X000672Y001363D01*
X000678Y001413D01*
X000688Y001462D01*
X000702Y001510D01*
X000719Y001557D01*
X000740Y001602D01*
X000765Y001646D01*
X000793Y001687D01*
X000825Y001726D01*
X000859Y001763D01*
X000896Y001797D01*
X000936Y001827D01*
X000978Y001854D01*
X001022Y001878D01*
X001068Y001899D01*
X001115Y001915D01*
X001163Y001928D01*
X001213Y001937D01*
X001262Y001942D01*
X001313Y001943D01*
X001363Y001940D01*
X001412Y001933D01*
X001461Y001922D01*
X001509Y001907D01*
X001555Y001889D01*
X001600Y001867D01*
X001643Y001841D01*
X001684Y001812D01*
X001723Y001780D01*
X001759Y001745D01*
X001791Y001707D01*
X001821Y001667D01*
X001848Y001624D01*
X001871Y001580D01*
X001890Y001534D01*
X001906Y001486D01*
X001918Y001437D01*
X001926Y001388D01*
X001930Y001338D01*
X001930Y001288D01*
X001926Y001238D01*
X001918Y001189D01*
X001906Y001140D01*
X001890Y001092D01*
X001871Y001046D01*
X001848Y001002D01*
X001821Y000959D01*
X001791Y000919D01*
X001759Y000881D01*
X001723Y000846D01*
X001684Y000814D01*
X001643Y000785D01*
X001600Y000759D01*
X001555Y000737D01*
X001509Y000719D01*
X001461Y000704D01*
X001412Y000693D01*
X001363Y000686D01*
X001313Y000683D01*
X001262Y000684D01*
X001213Y000689D01*
X001163Y000698D01*
X001115Y000711D01*
X001068Y000727D01*
X001022Y000748D01*
X000978Y000772D01*
X000936Y000799D01*
X000896Y000829D01*
X000859Y000863D01*
X000825Y000900D01*
X000793Y000939D01*
X000765Y000980D01*
X000740Y001024D01*
X000719Y001069D01*
X000702Y001116D01*
X000688Y001164D01*
X000678Y001213D01*
X000672Y001263D01*
X000670Y001313D01*
X000670Y033313D02*
X000672Y033363D01*
X000678Y033413D01*
X000688Y033462D01*
X000702Y033510D01*
X000719Y033557D01*
X000740Y033602D01*
X000765Y033646D01*
X000793Y033687D01*
X000825Y033726D01*
X000859Y033763D01*
X000896Y033797D01*
X000936Y033827D01*
X000978Y033854D01*
X001022Y033878D01*
X001068Y033899D01*
X001115Y033915D01*
X001163Y033928D01*
X001213Y033937D01*
X001262Y033942D01*
X001313Y033943D01*
X001363Y033940D01*
X001412Y033933D01*
X001461Y033922D01*
X001509Y033907D01*
X001555Y033889D01*
X001600Y033867D01*
X001643Y033841D01*
X001684Y033812D01*
X001723Y033780D01*
X001759Y033745D01*
X001791Y033707D01*
X001821Y033667D01*
X001848Y033624D01*
X001871Y033580D01*
X001890Y033534D01*
X001906Y033486D01*
X001918Y033437D01*
X001926Y033388D01*
X001930Y033338D01*
X001930Y033288D01*
X001926Y033238D01*
X001918Y033189D01*
X001906Y033140D01*
X001890Y033092D01*
X001871Y033046D01*
X001848Y033002D01*
X001821Y032959D01*
X001791Y032919D01*
X001759Y032881D01*
X001723Y032846D01*
X001684Y032814D01*
X001643Y032785D01*
X001600Y032759D01*
X001555Y032737D01*
X001509Y032719D01*
X001461Y032704D01*
X001412Y032693D01*
X001363Y032686D01*
X001313Y032683D01*
X001262Y032684D01*
X001213Y032689D01*
X001163Y032698D01*
X001115Y032711D01*
X001068Y032727D01*
X001022Y032748D01*
X000978Y032772D01*
X000936Y032799D01*
X000896Y032829D01*
X000859Y032863D01*
X000825Y032900D01*
X000793Y032939D01*
X000765Y032980D01*
X000740Y033024D01*
X000719Y033069D01*
X000702Y033116D01*
X000688Y033164D01*
X000678Y033213D01*
X000672Y033263D01*
X000670Y033313D01*
X032670Y033313D02*
X032672Y033363D01*
X032678Y033413D01*
X032688Y033462D01*
X032702Y033510D01*
X032719Y033557D01*
X032740Y033602D01*
X032765Y033646D01*
X032793Y033687D01*
X032825Y033726D01*
X032859Y033763D01*
X032896Y033797D01*
X032936Y033827D01*
X032978Y033854D01*
X033022Y033878D01*
X033068Y033899D01*
X033115Y033915D01*
X033163Y033928D01*
X033213Y033937D01*
X033262Y033942D01*
X033313Y033943D01*
X033363Y033940D01*
X033412Y033933D01*
X033461Y033922D01*
X033509Y033907D01*
X033555Y033889D01*
X033600Y033867D01*
X033643Y033841D01*
X033684Y033812D01*
X033723Y033780D01*
X033759Y033745D01*
X033791Y033707D01*
X033821Y033667D01*
X033848Y033624D01*
X033871Y033580D01*
X033890Y033534D01*
X033906Y033486D01*
X033918Y033437D01*
X033926Y033388D01*
X033930Y033338D01*
X033930Y033288D01*
X033926Y033238D01*
X033918Y033189D01*
X033906Y033140D01*
X033890Y033092D01*
X033871Y033046D01*
X033848Y033002D01*
X033821Y032959D01*
X033791Y032919D01*
X033759Y032881D01*
X033723Y032846D01*
X033684Y032814D01*
X033643Y032785D01*
X033600Y032759D01*
X033555Y032737D01*
X033509Y032719D01*
X033461Y032704D01*
X033412Y032693D01*
X033363Y032686D01*
X033313Y032683D01*
X033262Y032684D01*
X033213Y032689D01*
X033163Y032698D01*
X033115Y032711D01*
X033068Y032727D01*
X033022Y032748D01*
X032978Y032772D01*
X032936Y032799D01*
X032896Y032829D01*
X032859Y032863D01*
X032825Y032900D01*
X032793Y032939D01*
X032765Y032980D01*
X032740Y033024D01*
X032719Y033069D01*
X032702Y033116D01*
X032688Y033164D01*
X032678Y033213D01*
X032672Y033263D01*
X032670Y033313D01*
X032670Y001313D02*
X032672Y001363D01*
X032678Y001413D01*
X032688Y001462D01*
X032702Y001510D01*
X032719Y001557D01*
X032740Y001602D01*
X032765Y001646D01*
X032793Y001687D01*
X032825Y001726D01*
X032859Y001763D01*
X032896Y001797D01*
X032936Y001827D01*
X032978Y001854D01*
X033022Y001878D01*
X033068Y001899D01*
X033115Y001915D01*
X033163Y001928D01*
X033213Y001937D01*
X033262Y001942D01*
X033313Y001943D01*
X033363Y001940D01*
X033412Y001933D01*
X033461Y001922D01*
X033509Y001907D01*
X033555Y001889D01*
X033600Y001867D01*
X033643Y001841D01*
X033684Y001812D01*
X033723Y001780D01*
X033759Y001745D01*
X033791Y001707D01*
X033821Y001667D01*
X033848Y001624D01*
X033871Y001580D01*
X033890Y001534D01*
X033906Y001486D01*
X033918Y001437D01*
X033926Y001388D01*
X033930Y001338D01*
X033930Y001288D01*
X033926Y001238D01*
X033918Y001189D01*
X033906Y001140D01*
X033890Y001092D01*
X033871Y001046D01*
X033848Y001002D01*
X033821Y000959D01*
X033791Y000919D01*
X033759Y000881D01*
X033723Y000846D01*
X033684Y000814D01*
X033643Y000785D01*
X033600Y000759D01*
X033555Y000737D01*
X033509Y000719D01*
X033461Y000704D01*
X033412Y000693D01*
X033363Y000686D01*
X033313Y000683D01*
X033262Y000684D01*
X033213Y000689D01*
X033163Y000698D01*
X033115Y000711D01*
X033068Y000727D01*
X033022Y000748D01*
X032978Y000772D01*
X032936Y000799D01*
X032896Y000829D01*
X032859Y000863D01*
X032825Y000900D01*
X032793Y000939D01*
X032765Y000980D01*
X032740Y001024D01*
X032719Y001069D01*
X032702Y001116D01*
X032688Y001164D01*
X032678Y001213D01*
X032672Y001263D01*
X032670Y001313D01*
D11*
X030010Y005603D02*
X030010Y006248D01*
X029010Y006248D02*
X029010Y005603D01*
X028510Y013523D02*
X027865Y013523D01*
X027865Y014523D02*
X028510Y014523D01*
X028510Y022523D02*
X027865Y022523D01*
X027865Y023523D02*
X028510Y023523D01*
D12*
X006188Y010211D03*
X006188Y008834D03*
X003688Y008834D03*
X003688Y010211D03*
X003688Y004211D03*
X003688Y002834D03*
X006188Y002834D03*
X006188Y004211D03*
D13*
X006188Y005971D03*
X006188Y007074D03*
X003688Y007074D03*
X003688Y005971D03*
X003688Y011471D03*
X003688Y012574D03*
X006188Y012574D03*
X006188Y011471D03*
X027413Y016551D03*
X027413Y017654D03*
X027438Y019221D03*
X027438Y020324D03*
D14*
X012688Y021523D03*
X011688Y021523D03*
X010688Y021523D03*
X010688Y012523D03*
X011688Y012523D03*
X012688Y012523D03*
D15*
X013188Y006023D03*
X012188Y006023D03*
X011188Y006023D03*
X010188Y006023D03*
D16*
X011590Y003251D03*
X011590Y002149D03*
X016913Y002051D03*
X016913Y003154D03*
D17*
X031116Y017603D02*
X031709Y017603D01*
X031709Y018603D02*
X031116Y018603D01*
D18*
X024730Y021313D02*
X024730Y022313D01*
X024730Y013813D02*
X024730Y012813D01*
X024730Y006813D02*
X024730Y005813D01*
X015870Y005813D02*
X015870Y006813D01*
X015870Y012813D02*
X015870Y013813D01*
X015870Y021313D02*
X015870Y022313D01*
X010688Y027200D02*
X015300Y031813D01*
X016400Y031813D01*
X016900Y032313D01*
X016400Y032313D02*
X017400Y032313D01*
X017400Y030313D02*
X016400Y030313D01*
X009200Y030313D02*
X008200Y030313D01*
X008200Y032313D02*
X009200Y032313D01*
D19*
X008600Y017313D03*
X007000Y017313D03*
D20*
X005375Y020328D03*
X005375Y022297D03*
X023816Y029238D03*
X025784Y029238D03*
D21*
X026440Y023523D02*
X028188Y023523D01*
X026440Y023523D02*
X024730Y021813D01*
X023300Y021813D01*
X019800Y018313D01*
X017300Y018313D01*
X014300Y015313D01*
X014300Y010813D01*
X012300Y008813D01*
X006209Y008813D01*
X006188Y008834D01*
X004874Y008387D02*
X004800Y008461D01*
X003688Y007200D02*
X003688Y007074D01*
X003688Y005971D02*
X003688Y004211D01*
X003688Y002834D02*
X005409Y001113D01*
X015974Y001113D01*
X016913Y002051D01*
X020469Y002051D01*
X024730Y006313D01*
X019230Y008013D02*
X024530Y013313D01*
X024730Y013313D01*
X026710Y014523D02*
X026800Y014523D01*
X027174Y016313D02*
X017800Y016313D01*
X013300Y018813D02*
X011188Y018813D01*
X010688Y019313D01*
X010688Y021313D01*
X010688Y021523D01*
X009300Y008013D02*
X019230Y008013D01*
X016815Y003251D02*
X016913Y003154D01*
X016815Y003251D02*
X011590Y003251D01*
X012188Y003849D01*
X011590Y002149D02*
X011254Y001813D01*
X010800Y001813D01*
X010188Y002425D01*
X010188Y006023D01*
X008800Y002813D02*
X006209Y002813D01*
X006188Y002834D01*
X006188Y004211D02*
X006188Y005971D01*
X024800Y017313D02*
X024800Y017686D01*
X027413Y017654D02*
X027413Y019196D01*
X027438Y019221D01*
X030794Y019221D01*
X031413Y018603D01*
D22*
X027413Y016551D02*
X027174Y016313D01*
X013300Y016813D02*
X013300Y018813D01*
X013300Y016813D02*
X012300Y015813D01*
X001300Y015813D01*
X001300Y009813D01*
X002300Y008813D01*
X003666Y008813D01*
X003688Y008834D01*
X003688Y010211D02*
X003688Y011471D01*
X006188Y011471D02*
X006188Y010211D01*
D23*
X004800Y008461D02*
X004800Y012574D01*
X006188Y012574D01*
X007039Y012574D01*
X008300Y011313D01*
X011300Y011313D01*
X011688Y011700D01*
X011688Y012523D01*
X008600Y017313D02*
X010688Y019400D01*
X010688Y021313D01*
X008300Y021268D02*
X006104Y021268D01*
X006153Y021247D02*
X005969Y021323D01*
X004780Y021323D01*
X004597Y021247D01*
X004456Y021106D01*
X004380Y020923D01*
X004380Y019734D01*
X004456Y019550D01*
X004525Y019481D01*
X004525Y018813D01*
X002300Y018813D01*
X002300Y032361D01*
X002404Y032465D01*
X002586Y032780D01*
X002680Y033131D01*
X002680Y033494D01*
X002662Y033563D01*
X010300Y033563D01*
X010300Y029313D01*
X008300Y029313D01*
X008300Y018813D01*
X006702Y018813D01*
X006225Y019290D01*
X006225Y019481D01*
X006294Y019550D01*
X006370Y019734D01*
X006370Y020923D01*
X006294Y021106D01*
X006153Y021247D01*
X006106Y021417D02*
X006163Y021459D01*
X006213Y021509D01*
X006255Y021566D01*
X006287Y021629D01*
X006309Y021696D01*
X006320Y021766D01*
X006320Y022297D01*
X006320Y022827D01*
X006309Y022897D01*
X006287Y022964D01*
X006255Y023028D01*
X006213Y023085D01*
X006163Y023135D01*
X006106Y023177D01*
X006043Y023209D01*
X005975Y023231D01*
X005905Y023242D01*
X005375Y023242D01*
X005375Y022297D01*
X005375Y022297D01*
X006320Y022297D01*
X005375Y022297D01*
X005375Y022297D01*
X005375Y023242D01*
X004844Y023242D01*
X004774Y023231D01*
X004707Y023209D01*
X004644Y023177D01*
X004587Y023135D01*
X004537Y023085D01*
X004495Y023028D01*
X004463Y022964D01*
X004441Y022897D01*
X004430Y022827D01*
X004430Y022297D01*
X005375Y022297D01*
X005375Y022297D01*
X005375Y021352D01*
X005905Y021352D01*
X005975Y021363D01*
X006043Y021385D01*
X006106Y021417D01*
X006320Y021966D02*
X008300Y021966D01*
X008300Y022665D02*
X006320Y022665D01*
X005375Y022665D02*
X005375Y022665D01*
X005375Y022297D02*
X004430Y022297D01*
X004430Y021766D01*
X004441Y021696D01*
X004463Y021629D01*
X004495Y021566D01*
X004537Y021509D01*
X004587Y021459D01*
X004644Y021417D01*
X004707Y021385D01*
X004774Y021363D01*
X004844Y021352D01*
X005375Y021352D01*
X005375Y022297D01*
X005375Y022297D01*
X005375Y021966D02*
X005375Y021966D01*
X004646Y021268D02*
X002300Y021268D01*
X002300Y021966D02*
X004430Y021966D01*
X004430Y022665D02*
X002300Y022665D01*
X002300Y023363D02*
X008300Y023363D01*
X008300Y024062D02*
X002300Y024062D01*
X002300Y024760D02*
X008300Y024760D01*
X008300Y025459D02*
X002300Y025459D01*
X002300Y026157D02*
X008300Y026157D01*
X008300Y026856D02*
X002300Y026856D01*
X002300Y027554D02*
X008300Y027554D01*
X008300Y028253D02*
X002300Y028253D01*
X002300Y028951D02*
X008300Y028951D01*
X008001Y029313D02*
X009399Y029313D01*
X009766Y029465D01*
X010048Y029746D01*
X010200Y030114D01*
X010200Y030511D01*
X010048Y030879D01*
X009766Y031160D01*
X009399Y031312D01*
X008001Y031312D01*
X007634Y031160D01*
X007352Y030879D01*
X007200Y030511D01*
X007200Y030114D01*
X007352Y029746D01*
X007634Y029465D01*
X008001Y029313D01*
X007449Y029650D02*
X002300Y029650D01*
X002300Y030348D02*
X007200Y030348D01*
X007520Y031047D02*
X002300Y031047D01*
X002300Y031745D02*
X007437Y031745D01*
X007424Y031762D02*
X007491Y031678D01*
X007566Y031603D01*
X007649Y031536D01*
X007740Y031480D01*
X007836Y031433D01*
X007937Y031398D01*
X008041Y031374D01*
X008147Y031363D01*
X008700Y031362D01*
X008700Y032312D01*
X008700Y031363D01*
X009253Y031363D01*
X009359Y031374D01*
X009463Y031398D01*
X009564Y031433D01*
X009660Y031480D01*
X009751Y031536D01*
X009834Y031603D01*
X009909Y031678D01*
X009976Y031762D01*
X010033Y031852D01*
X010079Y031948D01*
X010114Y032049D01*
X010138Y032153D01*
X010150Y032259D01*
X010150Y032312D01*
X008700Y032312D01*
X008700Y032312D01*
X007250Y032312D01*
X007250Y032259D01*
X007262Y032153D01*
X007286Y032049D01*
X007321Y031948D01*
X007367Y031852D01*
X007424Y031762D01*
X007250Y032313D02*
X008700Y032313D01*
X008700Y033262D01*
X008147Y033262D01*
X008041Y033251D01*
X007937Y033227D01*
X007836Y033192D01*
X007740Y033145D01*
X007649Y033089D01*
X007566Y033022D01*
X007491Y032947D01*
X007424Y032863D01*
X007367Y032773D01*
X007321Y032677D01*
X007286Y032576D01*
X007262Y032472D01*
X007250Y032366D01*
X007250Y032313D01*
X007259Y032444D02*
X002383Y032444D01*
X002680Y033142D02*
X007735Y033142D01*
X008700Y033142D02*
X008700Y033142D01*
X008700Y033262D02*
X008700Y032313D01*
X008700Y032313D01*
X008700Y032312D01*
X008700Y032313D01*
X010150Y032313D01*
X010150Y032366D01*
X010138Y032472D01*
X010114Y032576D01*
X010079Y032677D01*
X010033Y032773D01*
X009976Y032863D01*
X009909Y032947D01*
X009834Y033022D01*
X009751Y033089D01*
X009660Y033145D01*
X009564Y033192D01*
X009463Y033227D01*
X009359Y033251D01*
X009253Y033262D01*
X008700Y033262D01*
X008700Y032444D02*
X008700Y032444D01*
X008700Y031745D02*
X008700Y031745D01*
X009963Y031745D02*
X010300Y031745D01*
X010300Y031047D02*
X009880Y031047D01*
X010200Y030348D02*
X010300Y030348D01*
X010300Y029650D02*
X009951Y029650D01*
X010141Y032444D02*
X010300Y032444D01*
X010300Y033142D02*
X009665Y033142D01*
X014800Y033142D02*
X015935Y033142D01*
X015940Y033145D02*
X015849Y033089D01*
X015766Y033022D01*
X015691Y032947D01*
X015624Y032863D01*
X015567Y032773D01*
X015521Y032677D01*
X015486Y032576D01*
X015462Y032472D01*
X015450Y032366D01*
X015450Y032313D01*
X016900Y032313D01*
X016900Y033262D01*
X016347Y033262D01*
X016241Y033251D01*
X016137Y033227D01*
X016036Y033192D01*
X015940Y033145D01*
X015459Y032444D02*
X014800Y032444D01*
X015450Y032312D02*
X015450Y032259D01*
X015462Y032153D01*
X015486Y032049D01*
X015521Y031948D01*
X015567Y031852D01*
X015624Y031762D01*
X015691Y031678D01*
X015766Y031603D01*
X015849Y031536D01*
X015940Y031480D01*
X016036Y031433D01*
X016137Y031398D01*
X016241Y031374D01*
X016347Y031363D01*
X016900Y031362D01*
X016900Y032312D01*
X016900Y031363D01*
X017453Y031363D01*
X017559Y031374D01*
X017663Y031398D01*
X017764Y031433D01*
X017860Y031480D01*
X017951Y031536D01*
X018034Y031603D01*
X018109Y031678D01*
X018176Y031762D01*
X018233Y031852D01*
X018279Y031948D01*
X018314Y032049D01*
X018338Y032153D01*
X018350Y032259D01*
X018350Y032312D01*
X016900Y032312D01*
X016900Y032312D01*
X015450Y032312D01*
X015637Y031745D02*
X014800Y031745D01*
X014800Y031047D02*
X015720Y031047D01*
X015834Y031160D02*
X015552Y030879D01*
X015400Y030511D01*
X015400Y030114D01*
X015552Y029746D01*
X015834Y029465D01*
X016201Y029313D01*
X017599Y029313D01*
X017966Y029465D01*
X018248Y029746D01*
X018400Y030114D01*
X018400Y030511D01*
X018248Y030879D01*
X017966Y031160D01*
X017599Y031312D01*
X016201Y031312D01*
X015834Y031160D01*
X015400Y030348D02*
X014800Y030348D01*
X014800Y029650D02*
X015649Y029650D01*
X014800Y028951D02*
X022821Y028951D01*
X022821Y028643D02*
X022897Y028459D01*
X023038Y028319D01*
X023221Y028243D01*
X024410Y028243D01*
X024594Y028319D01*
X024735Y028459D01*
X024811Y028643D01*
X024811Y029832D01*
X024735Y030016D01*
X024594Y030157D01*
X024410Y030233D01*
X023221Y030233D01*
X023038Y030157D01*
X022897Y030016D01*
X022821Y029832D01*
X022821Y028643D01*
X023198Y028253D02*
X014800Y028253D01*
X014800Y027813D02*
X028300Y027813D01*
X028300Y033313D01*
X014800Y033313D01*
X014800Y027813D01*
X018151Y029650D02*
X022821Y029650D01*
X024434Y028253D02*
X028300Y028253D01*
X028300Y028951D02*
X026729Y028951D01*
X026729Y028707D02*
X026729Y029238D01*
X026729Y029768D01*
X026718Y029838D01*
X026696Y029905D01*
X026664Y029969D01*
X026622Y030026D01*
X026572Y030076D01*
X026515Y030118D01*
X026452Y030150D01*
X026385Y030172D01*
X026315Y030183D01*
X025784Y030183D01*
X025254Y030183D01*
X025184Y030172D01*
X025117Y030150D01*
X025053Y030118D01*
X024996Y030076D01*
X024946Y030026D01*
X024904Y029969D01*
X024872Y029905D01*
X024850Y029838D01*
X024839Y029768D01*
X024839Y029238D01*
X025784Y029238D01*
X025784Y030183D01*
X025784Y029238D01*
X025784Y029238D01*
X025784Y029238D01*
X024839Y029238D01*
X024839Y028707D01*
X024850Y028637D01*
X024872Y028570D01*
X024904Y028507D01*
X024946Y028450D01*
X024996Y028399D01*
X025053Y028358D01*
X025117Y028326D01*
X025184Y028304D01*
X025254Y028293D01*
X025784Y028293D01*
X025784Y029238D01*
X026729Y029238D01*
X025784Y029238D01*
X025784Y029238D01*
X025784Y029238D01*
X025784Y028293D01*
X026315Y028293D01*
X026385Y028304D01*
X026452Y028326D01*
X026515Y028358D01*
X026572Y028399D01*
X026622Y028450D01*
X026664Y028507D01*
X026696Y028570D01*
X026718Y028637D01*
X026729Y028707D01*
X026729Y029650D02*
X028300Y029650D01*
X028300Y030348D02*
X018400Y030348D01*
X018080Y031047D02*
X028300Y031047D01*
X028300Y031745D02*
X018163Y031745D01*
X018350Y032313D02*
X018350Y032366D01*
X018338Y032472D01*
X018314Y032576D01*
X018279Y032677D01*
X018233Y032773D01*
X018176Y032863D01*
X018109Y032947D01*
X018034Y033022D01*
X017951Y033089D01*
X017860Y033145D01*
X017764Y033192D01*
X017663Y033227D01*
X017559Y033251D01*
X017453Y033262D01*
X016900Y033262D01*
X016900Y032313D01*
X016900Y032313D01*
X016900Y032312D01*
X016900Y032313D01*
X018350Y032313D01*
X018341Y032444D02*
X028300Y032444D01*
X028300Y033142D02*
X017865Y033142D01*
X016900Y033142D02*
X016900Y033142D01*
X016900Y032444D02*
X016900Y032444D01*
X016900Y031745D02*
X016900Y031745D01*
X024811Y029650D02*
X024839Y029650D01*
X024811Y028951D02*
X024839Y028951D01*
X025784Y028951D02*
X025784Y028951D01*
X025784Y029650D02*
X025784Y029650D01*
X028188Y022523D02*
X027438Y021773D01*
X027438Y020324D01*
X026811Y020324D01*
X024800Y018313D01*
X024800Y017313D01*
X026800Y014523D02*
X025590Y013313D01*
X024730Y013313D01*
X026800Y014523D02*
X028188Y014523D01*
X028188Y013523D02*
X028188Y006748D01*
X029010Y005925D01*
X012188Y006023D02*
X012188Y003849D01*
X006188Y007074D02*
X004874Y008387D01*
X003688Y007200D01*
X003688Y012574D02*
X004800Y012574D01*
X006188Y012574D02*
X006188Y012803D01*
X007000Y017313D02*
X005375Y018938D01*
X005375Y020328D01*
X006370Y020569D02*
X008300Y020569D01*
X008300Y019871D02*
X006370Y019871D01*
X006343Y019172D02*
X008300Y019172D01*
X004525Y019172D02*
X002300Y019172D01*
X002300Y019871D02*
X004380Y019871D01*
X004380Y020569D02*
X002300Y020569D01*
D24*
X013300Y018813D03*
X017800Y016313D03*
X024800Y017313D03*
X009300Y008013D03*
X008800Y002813D03*
D25*
X012188Y006023D02*
X011136Y007074D01*
X006188Y007074D01*
D26*
X010688Y021523D02*
X010688Y027200D01*
M02*
