<?xml version="1.0" encoding="UTF-8" standalone="no"?>
<svg
   xmlns:dc="http://purl.org/dc/elements/1.1/"
   xmlns:cc="http://creativecommons.org/ns#"
   xmlns:rdf="http://www.w3.org/1999/02/22-rdf-syntax-ns#"
   xmlns:svg="http://www.w3.org/2000/svg"
   xmlns="http://www.w3.org/2000/svg"
   xmlns:sodipodi="http://sodipodi.sourceforge.net/DTD/sodipodi-0.dtd"
   xmlns:inkscape="http://www.inkscape.org/namespaces/inkscape"
   version="1.0"
   width="640.000000pt"
   height="454.000000pt"
   viewBox="0 0 640.000000 454.000000"
   preserveAspectRatio="xMidYMid meet"
   id="svg2"
   inkscape:version="0.48.4 r9939"
   sodipodi:docname="Cowboy.svg">
  <defs
     id="defs22" />
  <sodipodi:namedview
     pagecolor="#ffffff"
     bordercolor="#666666"
     borderopacity="1"
     objecttolerance="10"
     gridtolerance="10"
     guidetolerance="10"
     inkscape:pageopacity="0"
     inkscape:pageshadow="2"
     inkscape:window-width="640"
     inkscape:window-height="480"
     id="namedview20"
     showgrid="false"
     inkscape:zoom="0.3575"
     inkscape:cx="400"
     inkscape:cy="283.75"
     inkscape:window-x="0"
     inkscape:window-y="0"
     inkscape:window-maximized="0"
     inkscape:current-layer="svg2" />
  <metadata
     id="metadata4">
Created by potrace 1.11, written by Peter Selinger 2001-2013
<rdf:RDF>
  <cc:Work
     rdf:about="">
    <dc:format>image/svg+xml</dc:format>
    <dc:type
       rdf:resource="http://purl.org/dc/dcmitype/StillImage" />
  </cc:Work>
</rdf:RDF>
</metadata>
  <g
     id="g3005">
    <path
       d="m 186.6,27.9 c -2.7,4.3 17,26 37.4,41.3 20.6,15.4 41.7,25.4 43.6,20.5 1.1,-2.9 -3.9,-10.1 -14.3,-20.8 -6.5,-6.6 -10,-11 -9.3,-11.4 4.7,-2.9 8.9,-13.7 5.8,-14.8 -1,-0.3 -1,-1.1 0,-3.9 2.5,-6.9 0.9,-8.8 -7.6,-8.8 -5.4,0 -10.9,1.6 -19,5.7 L 218,38.3 207.3,33 C 196.5,27.6 188,25.5 186.6,27.9 z m 29.7,20.2 c 4.5,1.2 19.7,15.1 19.7,18 0,1.7 -0.3,1.7 -4.7,-0.3 C 220.8,61.2 211,52.7 211,48.3 c 0,-1.6 0.4,-1.6 5.3,-0.2 z"
       id="path8"
       style="fill:none;stroke:#0000ff"
       inkscape:connector-curvature="0" />
    <path
       d="m 496.5,44.1 c -11,4.4 -44.5,17.7 -74.5,29.6 -30,11.9 -54.7,21.7 -54.9,21.9 -0.5,0.4 3.9,71.7 4.4,72.2 0.4,0.5 85.4,-35.5 88,-37.2 1.1,-0.7 8.9,-12.8 17.4,-26.7 8.5,-14 20.7,-34 27.1,-44.4 13.4,-21.8 14.4,-23.5 13.3,-23.4 -0.4,0 -9.8,3.6 -20.8,8 z"
       id="path10"
       style="fill:none;stroke:#0000ff"
       inkscape:connector-curvature="0" />
    <path
       d="m 265.6,99.7 c -1.2,10.3 -3.3,15 -10,21.8 -6.4,6.6 -23.4,18.2 -37.6,25.8 -9.9,5.4 -41.9,18.1 -57,22.7 -16.4,5.1 -25.2,11.9 -31,24.2 -9.7,20.5 -3.3,45.4 15.3,59.4 3.3,2.4 6.3,4.4 6.9,4.4 0.5,0 0.7,-1.2 0.4,-2.8 -1.2,-5.4 -2.5,-16.9 -3.1,-26.7 -0.4,-5.5 -0.8,-11 -1,-12.3 -1.1,-7.1 9.2,-27.8 15.5,-31.2 1.6,-0.9 1.8,-0.5 1.8,4.3 0.1,6.9 4.8,16 17.6,33.9 l 9.7,13.6 14.9,-7.2 14.9,-7.3 0.4,-26.9 c 0.2,-14.8 0.7,-27.7 1.1,-28.6 0.5,-1 5.6,-3.2 13.9,-5.8 30.4,-9.7 38.1,-17.1 36.2,-34.7 -0.6,-5.6 -6.8,-31 -7.9,-32 -0.2,-0.2 -0.6,2.2 -1,5.4 z"
       id="path12"
       style="fill:none;stroke:#0000ff"
       inkscape:connector-curvature="0" />
    <path
       d="m 172.8,120.3 c -12.2,4.7 -11.3,2.7 -7.6,17 l 2.1,7.8 3.4,-0.3 c 3.1,-0.2 3.7,0.2 6.3,4.2 5.9,9.1 4.9,8.6 10.5,5.7 7.7,-3.9 9.8,-6.7 10.3,-13.5 0.3,-4.5 0,-6.7 -1.6,-9.8 -2.4,-4.5 -10.9,-15.4 -12,-15.3 -0.4,0 -5.5,1.9 -11.4,4.2 z"
       id="path14"
       style="fill:none;stroke:#0000ff"
       inkscape:connector-curvature="0" />
    <path
       d="m 451,147 c -6.9,2.7 -54.8,20.7 -106.5,40 -91.2,34.1 -114.5,42.9 -114.5,43.4 0,0.1 2.3,2.6 5,5.5 8.7,9.3 8.2,11.4 -7.6,28.1 -5.6,5.9 -10.9,12.1 -11.8,13.8 -2.1,4.1 -0.9,5.3 9.6,8.7 11.5,3.8 22.2,8.8 25.3,11.9 1.9,1.9 2.5,3.6 2.5,6.6 0,5.1 -1.3,7.7 -5.8,11.6 l -3.5,3 4.6,2.7 c 5.5,3.3 5.4,3 7.8,11.9 l 2,7.1 -2.8,2.3 c -1.5,1.3 -3.1,2.3 -3.4,2.4 -0.4,0 -2,-1.5 -3.7,-3.4 l -3,-3.4 -0.6,4.5 c -0.3,2.5 -0.6,5.8 -0.6,7.3 0,2.2 -1.7,4.4 -8.6,10.6 l -8.5,7.7 -2.1,-2 -2,-2.1 3.9,-5.5 4,-5.6 -1.2,-8 c -0.6,-4.5 -1.4,-8.4 -1.8,-8.7 -0.6,-0.6 -15.1,2.1 -16.8,3.2 -1.3,0.7 -12.5,-7.4 -18.5,-13.3 -11.3,-11.3 -14,-20.3 -13.1,-43.7 0.4,-9.1 1.4,-18.4 2.5,-23.4 1,-4.5 1.7,-8.2 1.4,-8.2 -1.9,0 -40.4,29 -57.7,43.4 -15.7,13.1 -47.8,45.2 -58.9,59.1 -13.4,16.7 -29.7,42 -39.1,60.7 -4.7,9.3 -8.5,17.5 -8.5,18.2 0,2.5 16.4,5.4 35.5,6.3 45.4,1.9 107.2,-12.1 153,-34.9 17.1,-8.5 64.7,-40.5 95.4,-64.1 45.9,-35.4 91,-76.2 134.3,-121.6 15.6,-16.2 34.7,-36.2 42.6,-44.4 7.8,-8.3 14.1,-15.1 14,-15.2 -2.6,-2.1 -28.3,-17.5 -29.1,-17.4 -0.7,0 -6.8,2.3 -13.7,4.9 z"
       id="path16"
       style="fill:none;stroke:#0000ff"
       inkscape:connector-curvature="0" />
    <path
       d="m 579,159 c -30,7.1 -61.6,14.6 -70.2,16.6 l -15.8,3.7 -24.7,23 c -13.7,12.6 -28.5,26.4 -33.1,30.5 -5.2,4.8 -7.8,7.8 -7.1,8.3 0.6,0.4 22.4,0.7 48.3,0.8 l 47.1,0.1 39,-33.1 c 21.5,-18.2 46.8,-39.6 56.3,-47.6 9.4,-7.9 17.2,-14.7 17.2,-14.9 0,-0.8 -2.7,-0.2 -57,12.6 z"
       id="path18"
       style="fill:none;stroke:#0000ff"
       inkscape:connector-curvature="0" />
  </g>
</svg>
